/* XPM */
static char *_629_7a5cd10c158f16fc7b7be1c3a0c323ef838914e16fe3c7664d1fe50f8878121e_0[] = {
/* columns rows colors chars-per-pixel */
"80 80 256 2 ",
"   c None",
".  c #8A1D1D",
"X  c #8B1D1D",
"o  c #8B1D1E",
"O  c #8B1E1E",
"+  c #8C1E1E",
"@  c #8E1F1F",
"#  c #922121",
"$  c #932222",
"%  c #952323",
"&  c #972424",
"*  c #992525",
"=  c #9A2525",
"-  c #9B2626",
";  c #9F2828",
":  c #A02828",
">  c #A12929",
",  c #A22929",
"<  c #A82D2C",
"1  c #A82D2D",
"2  c #AB2E2E",
"3  c #AF3130",
"4  c #B03130",
"5  c #B23231",
"6  c #B53433",
"7  c #B73534",
"8  c #BA3735",
"9  c #BC3736",
"0  c #C03A38",
"q  c #C13A39",
"w  c #C33B3A",
"e  c #C63D3B",
"r  c #E73A38",
"t  c #E73B39",
"y  c #E73C39",
"u  c #E73C3A",
"i  c #E83E3B",
"p  c #E83E3C",
"a  c #E83F3C",
"s  c #E93F3C",
"d  c #CB403E",
"f  c #E9403E",
"g  c #E9413F",
"h  c #EA423F",
"j  c #D34442",
"k  c #D44542",
"l  c #D74644",
"z  c #DB4846",
"x  c #DC4946",
"c  c #DD4947",
"v  c #DE4A47",
"b  c #DE4A48",
"n  c #EA4340",
"m  c #EA4441",
"M  c #EB4441",
"N  c #EB4542",
"B  c #EB4643",
"V  c #EB4644",
"C  c #EB4744",
"Z  c #EB4745",
"A  c #EC4744",
"S  c #EC4844",
"D  c #EC4845",
"F  c #EC4946",
"G  c #EC4A47",
"H  c #ED4A47",
"J  c #E04B48",
"K  c #E34C4A",
"L  c #E44D4A",
"P  c #E44D4B",
"I  c #E64E4C",
"U  c #EC4B48",
"Y  c #ED4B48",
"T  c #ED4C48",
"R  c #ED4C49",
"E  c #ED4D49",
"W  c #ED4D4A",
"Q  c #ED4E4A",
"!  c #ED4E4B",
"~  c #EE4E4B",
"^  c #EE4F4B",
"/  c #E84F4C",
"(  c #EE4E4C",
")  c #EE4F4C",
"_  c #E9504D",
"`  c #EA504D",
"'  c #EE504C",
"]  c #EE504D",
"[  c #EE514D",
"{  c #EE514E",
"}  c #EF514E",
"|  c #EC524E",
" . c #ED524F",
".. c #EF524E",
"X. c #EE524F",
"o. c #EF524F",
"O. c #EF534F",
"+. c #EE5350",
"@. c #EF5350",
"#. c #EF5450",
"$. c #EF5451",
"%. c #EF5552",
"&. c #F05350",
"*. c #F05450",
"=. c #F05451",
"-. c #F05652",
";. c #F05653",
":. c #F05753",
">. c #F05754",
",. c #F05855",
"<. c #F05955",
"1. c #F05956",
"2. c #F05A56",
"3. c #F15A57",
"4. c #F15B57",
"5. c #F15C58",
"6. c #F15D58",
"7. c #F15D59",
"8. c #F15D5A",
"9. c #F15E5A",
"0. c #F25E5A",
"q. c #F25F5B",
"w. c #F2605B",
"e. c #F2605C",
"r. c #F2615D",
"t. c #F2625E",
"y. c #F3625E",
"u. c #F3635F",
"i. c #F3645F",
"p. c #F36460",
"a. c #F36560",
"s. c black",
"d. c black",
"f. c black",
"g. c black",
"h. c black",
"j. c black",
"k. c black",
"l. c black",
"z. c black",
"x. c black",
"c. c black",
"v. c black",
"b. c black",
"n. c black",
"m. c black",
"M. c black",
"N. c black",
"B. c black",
"V. c black",
"C. c black",
"Z. c black",
"A. c black",
"S. c black",
"D. c black",
"F. c black",
"G. c black",
"H. c black",
"J. c black",
"K. c black",
"L. c black",
"P. c black",
"I. c black",
"U. c black",
"Y. c black",
"T. c black",
"R. c black",
"E. c black",
"W. c black",
"Q. c black",
"!. c black",
"~. c black",
"^. c black",
"/. c black",
"(. c black",
"). c black",
"_. c black",
"`. c black",
"'. c black",
"]. c black",
"[. c black",
"{. c black",
"}. c black",
"|. c black",
" X c black",
".X c black",
"XX c black",
"oX c black",
"OX c black",
"+X c black",
"@X c black",
"#X c black",
"$X c black",
"%X c black",
"&X c black",
"*X c black",
"=X c black",
"-X c black",
";X c black",
":X c black",
">X c black",
",X c black",
"<X c black",
"1X c black",
"2X c black",
"3X c black",
"4X c black",
"5X c black",
"6X c black",
"7X c black",
"8X c black",
"9X c black",
"0X c black",
"qX c black",
"wX c black",
"eX c black",
"rX c black",
"tX c black",
"yX c black",
"uX c black",
"iX c black",
"pX c black",
"aX c black",
"sX c black",
"dX c black",
"fX c black",
"gX c black",
"hX c black",
"jX c black",
"kX c black",
"lX c black",
"zX c black",
"xX c black",
"cX c black",
"vX c black",
"bX c black",
"nX c black",
"mX c black",
"MX c black",
"NX c black",
"BX c black",
"VX c black",
"CX c black",
"ZX c black",
"AX c black",
"SX c black",
"DX c black",
"FX c black",
"GX c black",
"HX c black",
"JX c black",
"KX c black",
"LX c black",
"PX c black",
"IX c black",
"UX c black",
/* pixels */
"                                                                                                                                                                ",
"                                                                                                                                                                ",
"                                                                                                                                                                ",
"                                                                                                                                                                ",
"                                                                                                                                                                ",
"                                                                                                                                                                ",
"                                                                                                                                                                ",
"                                                                                                                                                                ",
"                                                                                                                                                                ",
"                                                                                                                                                                ",
"                                                                                                                                                                ",
"                                                                                                                                                                ",
"                                                                                                                                                                ",
"                                                                            @.@.@.                                                                              ",
"                                                                  @.@.@.@.@.@.@.@.@.@.@.@.@.@.@.@.                                                              ",
"                                                            Y ] @.@.@.@.@.@.@.@.@.@.@.@.@.@.@.@.@.@.@.@.                                                        ",
"                                                          Z ] @.@.@.@.@.@.@.@.@.@.@.@.@.@.@.@.@.@.@.@.@.@.@.                                                    ",
"                                                      h N ) @.@.@.@.@.@.@.@.@.@.@.@.@.@.@.@.@.@.@.@.@.@.@.@.@.@.                                                ",
"                                                    h h Y @.@.@.@.@.@.@.@.@.@.@.@.@.@.@.@.@.@.@.@.@.@.@.@.@.@.@.@.                                              ",
"                                                    h N ] @.@.@.@.@.@.@.@.@.@.@.@.@.@.@.@.@.@.@.@.@.@.@.@.@.@.@.@.@.@.                                          ",
"                                                  h h F @.@.@.@.@.@.@.@.@.@.@.@.@.@.@.@.@.@.@.@.@.@.@.@.@.@.@.@.@.@.@.                                          ",
"                                                h h n ) @.@.@.@.@.@.@.@.@.@.@.@.@.@.@.@.@.@.@.@.@.@.@.@.@.@.@.@.@.@.@.@.                                        ",
"                                                h h N ] @.@.@.@.@.@.@.@.@.@.@.@.@.@.@.@.@.@.@.@.@.@.@.@.@.@.@.@.@.@.@.@.@.                                      ",
"                                                h h F @.@.@.@.@.@.@.@.@.@.@.@.@.@.@.@.@.@.@.@.@.@.@.@.@.@.@.@.@.@.@.@.@.@.                                      ",
"                                              h h h R @.@.@.@.@.@.@.@.@.@.@.@.@.@.@.@.&.] ] @.@.@.@.@.@.@.@.@.@.@.@.@.@.@.                                      ",
"                                              h h n R @.@.@.@.@.@.@.@.@.@.@.@.@.@.@.@.l 5 < e _ @.@.@.@.@.@.@.@.@.@.&.&.@.@.                                    ",
"                                              h h N ] @.@.@.@.@.@.@.@.@.@.@.@.@.@.-.z * X X @ 0 @.@.@.@.@.@.@.@.@.@.L L @.@.                                    ",
"                                              h h N ] @.@.@.@.@.@.@.@.@.@.@.@.@.@.@.8 X @ @ X , I &.@.@.@.@.@.@.&.k ; , x -.                                    ",
"                                              h h A ] @.@.@.@.@.@.@.@.@.@.@.@.@.@.] 3 X @ @ X * K &.@.@.@.@.@.@._ < X X 9 @.                                    ",
"                                            h h h F @.@.@.@.$.-.-.$.$.@.@.@.@.@.@.@.9 X @ @ X < _ @.@.@.@.@.@.&.x % X X 3 ]                                     ",
"                                            h h h Y @.@.@.-.q.y.y.y.q.$.@.@.@.@.@.@.x , @ X * j &.@.@.@.@.@.@.-.l # @ X 6 @.                                    ",
"                                            h h h R @.@.$.q.a.a.a.a.a.w.-.@.@.@.@.@.@.J 0 0 z @.@.@.@.@.@.@.@.-.b & X @ d &.                                    ",
"                                            h h h R @.] 4.i.a.a.a.a.a.a.y.-.@.@.@.@.@.&.&.&.&.@.@.@.@.@.@.@.@.@.] 7 # 5 I &.                                    ",
"                                            h h h R @.@.q.a.a.a.a.a.a.a.a.y.-.@.@.@.@.@.@.@.@.@.@.@.@.@.@.@.@.@.@._ z / @.@.                                    ",
"                                            h h h ) @.@.q.a.a.i.a.a.a.a.a.a.y.5.4.4.4.4.4.$.@.@.@.@.@.@.@.@.@.@.@.@.-.@.@.@.                                    ",
"                                            h h n R @.] 4.i.a.a.a.a.a.a.a.a.a.a.a.a.a.a.y.y.4.@.@.@.@.@.@.@.@.@.@.@.@.@.@.@.                                    ",
"                                            h h n ) $.@.$.q.a.a.a.a.a.a.a.a.a.a.a.a.a.a.a.a.y.-.@.@.@.@.@.@.@.@.@.@.@.@.@.@.                                    ",
"                                            h h n R @.@.@.$.q.a.a.a.a.a.a.a.a.a.a.a.a.a.a.a.a.q.@.@.@.@.@.@.@.@.@.@.@.@.@.@.                                    ",
"                                            h h n R $.@.@.@.$.q.p.a.a.a.a.a.a.a.a.a.a.a.a.a.a.q.@.@.@.@.@.@.@.@.@.@.@.@.@.                                      ",
"                                            h h h Y @.@.@.@.@.$.q.p.a.a.a.a.a.a.a.a.a.a.a.a.a.q.@.@.@.@.@.@.@.@.@.@.@.@.@.                                      ",
"                                            h h h F @.@.@.@.@.@.$.q.p.a.a.a.a.a.a.a.a.a.a.a.y.4.@.@.@.@.@.@.@.@.@.@.@.@.@.                                      ",
"                                            h h h N ] @.@.@.@.@.@.@.4.y.a.a.a.a.a.a.a.a.a.i.q.$.@.@.@.@.@.@.@.@.@.@.@.@.@.                                      ",
"                                            h h h n R @.@.@.@.@.@.@.@.>.q.q.q.q.q.q.q.y.q.4.$.@.@.@.@.@.@.@.@.@.@.@.@.@.@.                                      ",
"                                            h h h h Z ] @.@.@.@.@.@.@.@.@.@.@.@.@.@.@.$.@.@.@.@.@.@.@.@.@.@.@.@.@.@.@.@.                                        ",
"                                              h h h h Y @.@.@.@.@.@.@.@.@.@.@.@.@.@.@.@.@.@.@.@.@.@.@.@.@.@.@.@.@.@.@.@.                                        ",
"                                              h h h h N ) @.@.@.@.@.@.@.@.@.@.@.@.@.@.@.@.@.@.@.@.@.@.@.@.@.@.@.@.@.@.@.                                        ",
"                                              a n h h h N ) @.@.@.@.@.@.@.@.@.@.@.@.@.@.@.@.@.@.@.@.@.@.@.@.@.@.@.@.@.                                          ",
"                                            t Z Y h h h h N R ] @.@.@.@.@.@.@.@.@.@.@.@.@.@.@.@.@.@.@.@.@.@.@.@.@.@.@.                                          ",
"                                          t y R ] F h h h h n F ] ] $.@.@.@.@.@.@.$.@.] @.@.@.@.@.@.@.@.$.@.$.@.$.$.                                            ",
"                                          t t R @.] Y n h h h h N F R ] ] @.$.$.$.@.@.@.@.@.@.@.@.@.@.@.@.@.@.$.$.@.]                                           ",
"                                          t t F $.@.@.R A n h h h h h N N F R R ] ] ] ] @.@.@.$.$.@.@.$.$.@.] ] @.@.@.R                                         ",
"                                          t t Z @.@.@.@.] R F N n h h h h h h h N N N F F Y R R R R R R R F Y ] @.@.@.F y                                       ",
"                                            t N @.@.@.@.@.@.] ] R Y n h h h h h h h h h h h h h h h h n N F ] @.@.@.] h t                                       ",
"                                            t a ) @.@.@.@.@.@.@.@.              h h h h h h h h h h n R ] @.@.@.@.) n t t                                       ",
"                                              t h R @.@.                                                @.@.$.$.R h t t                                         ",
"                                                                                                          R ) F a t t                                           ",
"                                                                                                            i t t t                                             ",
"                                                                                                                                                                ",
"                                                                                                                                                                ",
"                                                                                                                                                                ",
"                                                                                                                                                                ",
"                                                                                                                                                                ",
"                                                                                                                                                                ",
"                                                                                                                                                                ",
"                                                                                                                                                                ",
"                                                                                                                                                                ",
"                                                                                                                                                                ",
"                                                                                                                                                                ",
"                                                                                                                                                                ",
"                                                                                                                                                                ",
"                                                                                                                                                                ",
"                                                                                                                                                                ",
"                                                                                                                                                                ",
"                                                                                                                                                                ",
"                                                                                                                                                                ",
"                                                                                                                                                                ",
"                                                                                                                                                                ",
"                                                                                                                                                                ",
"                                                                                                                                                                ",
"                                                                                                                                                                "
};
