/* XPM */
static char *_629_7a5cd10c158f16fc7b7be1c3a0c323ef838914e16fe3c7664d1fe50f8878121e_9[] = {
/* columns rows colors chars-per-pixel */
"80 80 256 2 ",
"   c None",
".  c #8A1D1D",
"X  c #8A1E1E",
"o  c #8B1E1E",
"O  c #8C1E1E",
"+  c #8C1F1F",
"@  c #8E1F1F",
"#  c #8F2020",
"$  c #902020",
"%  c #942323",
"&  c #962424",
"*  c #972424",
"=  c #982524",
"-  c #9A2626",
";  c #9F2828",
":  c #A12A29",
">  c #A32B2A",
",  c #A42B2A",
"<  c #A92D2D",
"1  c #AB2F2E",
"2  c #AC2F2E",
"3  c #AF3130",
"4  c #B33332",
"5  c #B43332",
"6  c #B43433",
"7  c #B83634",
"8  c #B93635",
"9  c #BA3635",
"0  c #BD3837",
"q  c #BF3A38",
"w  c #C23B39",
"e  c #C33B3A",
"r  c #C83E3C",
"t  c #DF3535",
"y  c #E03535",
"u  c #E03536",
"i  c #E03636",
"p  c #E03737",
"a  c #E03837",
"s  c #E23A3A",
"d  c #E33B3B",
"f  c #E73B39",
"g  c #E43D3D",
"h  c #E83D3B",
"j  c #E83E3B",
"k  c #E83E3C",
"l  c #E83F3D",
"z  c #E93F3D",
"x  c #CB403E",
"c  c #CC403E",
"v  c #CD403F",
"b  c #CE413F",
"n  c #E8403D",
"m  c #E9403E",
"M  c #EA413E",
"N  c #E9423F",
"B  c #EA423F",
"V  c #D04340",
"C  c #D24341",
"Z  c #D54543",
"A  c #D74644",
"S  c #D94745",
"D  c #DA4846",
"F  c #DB4846",
"G  c #DE4A48",
"H  c #DF4A48",
"J  c #E64140",
"K  c #E74443",
"L  c #E94240",
"P  c #E94340",
"I  c #EA4340",
"U  c #EB4340",
"Y  c #EA4441",
"T  c #EB4441",
"R  c #EA4442",
"E  c #EB4542",
"W  c #EB4643",
"Q  c #EB4744",
"!  c #EC4744",
"~  c #EB4845",
"^  c #E94846",
"/  c #EA4846",
"(  c #EC4845",
")  c #EC4946",
"_  c #EC4A47",
"`  c #ED4A47",
"'  c #E34C4A",
"]  c #E44D4A",
"[  c #E74E4C",
"{  c #E74F4C",
"}  c #EC4B48",
"|  c #ED4B48",
" . c #ED4C49",
".. c #EC4D4A",
"X. c #ED4D4A",
"o. c #EC4D4B",
"O. c #ED4D4B",
"+. c #ED4E4B",
"@. c #EE4E4B",
"#. c #EE4F4C",
"$. c #E8504D",
"%. c #E9504D",
"&. c #EA504D",
"*. c #EA504E",
"=. c #EB514E",
"-. c #ED504D",
";. c #EE504C",
":. c #EE504D",
">. c #EE504E",
",. c #EE514E",
"<. c #EF514E",
"1. c #EC524F",
"2. c #ED524F",
"3. c #EE524F",
"4. c #EF524F",
"5. c #EE534F",
"6. c #ED5350",
"7. c #EE5250",
"8. c #EE5350",
"9. c #EF5350",
"0. c #EF5451",
"q. c #EF5551",
"w. c #F05350",
"e. c #F05450",
"r. c #F05451",
"t. c #F05653",
"y. c #F05753",
"u. c #F05854",
"i. c #F05855",
"p. c #F15B58",
"a. c #F15C58",
"s. c #F15D59",
"d. c #F2605C",
"f. c #F2605D",
"g. c #F2615D",
"h. c #F3625E",
"j. c #F3635F",
"k. c #F36460",
"l. c #F36561",
"z. c black",
"x. c black",
"c. c black",
"v. c black",
"b. c black",
"n. c black",
"m. c black",
"M. c black",
"N. c black",
"B. c black",
"V. c black",
"C. c black",
"Z. c black",
"A. c black",
"S. c black",
"D. c black",
"F. c black",
"G. c black",
"H. c black",
"J. c black",
"K. c black",
"L. c black",
"P. c black",
"I. c black",
"U. c black",
"Y. c black",
"T. c black",
"R. c black",
"E. c black",
"W. c black",
"Q. c black",
"!. c black",
"~. c black",
"^. c black",
"/. c black",
"(. c black",
"). c black",
"_. c black",
"`. c black",
"'. c black",
"]. c black",
"[. c black",
"{. c black",
"}. c black",
"|. c black",
" X c black",
".X c black",
"XX c black",
"oX c black",
"OX c black",
"+X c black",
"@X c black",
"#X c black",
"$X c black",
"%X c black",
"&X c black",
"*X c black",
"=X c black",
"-X c black",
";X c black",
":X c black",
">X c black",
",X c black",
"<X c black",
"1X c black",
"2X c black",
"3X c black",
"4X c black",
"5X c black",
"6X c black",
"7X c black",
"8X c black",
"9X c black",
"0X c black",
"qX c black",
"wX c black",
"eX c black",
"rX c black",
"tX c black",
"yX c black",
"uX c black",
"iX c black",
"pX c black",
"aX c black",
"sX c black",
"dX c black",
"fX c black",
"gX c black",
"hX c black",
"jX c black",
"kX c black",
"lX c black",
"zX c black",
"xX c black",
"cX c black",
"vX c black",
"bX c black",
"nX c black",
"mX c black",
"MX c black",
"NX c black",
"BX c black",
"VX c black",
"CX c black",
"ZX c black",
"AX c black",
"SX c black",
"DX c black",
"FX c black",
"GX c black",
"HX c black",
"JX c black",
"KX c black",
"LX c black",
"PX c black",
"IX c black",
"UX c black",
/* pixels */
"                                                                                                                                                                ",
"                                                                                                                                                                ",
"                                                                                                                                                                ",
"                                                                                                                                                                ",
"                                                                                                                                                                ",
"                                                                                                                                                                ",
"                                                                                                                                                                ",
"                                                                                                                                                                ",
"                                                                                                                                                                ",
"                                                                                                                                                                ",
"                                                                                                                                                                ",
"                                                                                                                                                                ",
"                                                                                                                                                                ",
"                                                                        9.9.9.9.9.9.9.                                                                          ",
"                                                                9.9.9.9.9.9.9.9.9.9.9.9.9.9.9.9.9.                                                              ",
"                                                            #.9.9.9.9.9.9.9.9.9.9.9.9.9.9.9.9.9.9.9.9.9.                                                        ",
"                                                        U | 9.9.9.9.9.9.9.9.9.9.9.9.9.9.9.9.9.9.9.9.9.9.9.9.                                                    ",
"                                                      B ( ;.9.9.9.9.9.9.9.9.9.9.9.9.9.9.9.9.9.9.9.9.9.9.9.9.9.9.                                                ",
"                                                    B E #.9.9.9.9.9.9.9.9.9.9.9.9.9.9.9.9.9.9.9.9.9.9.9.9.9.9.9.9.                                              ",
"                                                  B B ( 9.9.9.9.9.9.9.9.9.9.9.9.9.9.9.9.9.9.9.9.9.9.9.9.9.9.9.9.9.9.                                            ",
"                                                  B U #.9.9.9.9.9.9.9.9.9.9.9.9.9.9.9.9.9.9.9.9.9.9.9.9.9.9.9.9.9.9.9.                                          ",
"                                                B B E ;.9.9.9.9.9.9.9.9.9.9.9.9.9.9.9.9.9.9.9.9.9.9.9.9.9.9.9.9.9.9.9.9.                                        ",
"                                                B B ( 9.9.9.9.9.9.9.9.9.9.9.9.9.9.9.9.9.9.9.9.9.9.9.9.9.9.9.9.9.9.9.9.9.                                        ",
"                                              B B B  .9.9.9.9.9.9.9.9.9.9.9.9.t.t.t.9.9.9.9.9.9.9.9.9.9.9.9.9.9.9.9.9.9.9.                                      ",
"                                              B B U ;.9.9.9.9.9.9.9.9.9.9.9.%.C e c [ 9.9.9.9.9.9.9.9.9.9.9.9.9.9.9.9.9.9.                                      ",
"                                              B B E ;.9.9.9.9.9.9.9.9.9.9.%.5 $ o + 1 ] w.9.9.9.9.9.9.9.9.9.9.9.t.t.w.9.9.                                      ",
"                                              B B ! ;.9.9.9.9.9.9.9.9.9.t.x + o + o o q 9.9.9.9.9.9.9.9.9.9.9.%.C r D ;.9.9.                                    ",
"                                            B B B ( 9.9.9.9.9.9.9.9.9.9.9.9 o + + + o 2 ;.9.9.9.9.9.9.9.9.9.%.4 $ + & c 9.9.                                    ",
"                                            ( |  .;.q.9.9.9.9.9.9.9.9.9.w.e + + + + o 6 ;.9.9.9.9.9.9.9.9.w.c # o o o : [ w.                                    ",
"                                          k.h.h.h.h.a.q.9.9.9.9.9.9.9.9.w.G ; o o o - A w.9.9.9.9.9.9.9.9.9.9 o + + o % G t.                                    ",
"                                      k.k.k.k.k.k.k.k.a.9.9.9.9.9.9.9.9.9.9.D 4 : 3 Z 9.9.9.9.9.9.9.9.9.9.w.0 o + + o - ' t.                                    ",
"                                k.k.k.k.k.k.k.k.k.k.k.h.t.9.9.9.9.9.9.9.9.9.w.;.%.;.w.9.9.9.9.9.9.9.9.9.9.w.S & o o + 9 ;.9.                                    ",
"                              k.k.k.k.k.k.k.k.k.k.k.k.h.i.9.9.9.9.9.9.9.9.9.9.9.9.9.9.9.9.9.9.9.9.9.9.9.9.9.9.C 1 , 0 [ 9.9.                                    ",
"                            k.k.k.k.k.k.k.k.k.k.k.k.k.h.i.9.9.9.9.9.9.9.9.9.9.9.9.9.9.9.9.9.9.9.9.9.9.9.9.9.9.9.%.%.9.9.9.9.                                    ",
"                            k.k.k.k.k.k.k.k.k.k.k.k.k.h.q.9.9.9.9.9.9.9.9.9.9.9.9.9.9.9.9.9.9.9.9.9.9.9.9.9.9.9.9.9.9.9.9.;.                                    ",
"                            k.k.k.k.k.k.k.k.k.k.k.k.h.i.9.9.9.9.9.9.9.9.9.9.9.9.9.9.9.9.9.9.9.9.9.9.9.9.9.9.9.9.9.9.9.9.9./         u u u u                     ",
"                          k.k.k.k.k.k.k.k.k.k.k.h.a.y.9.9.9.9.9.9.9.9.9.9.9.9.9.9.9.9.9.9.9.9.9.9.9.9.9.9.9.9.9.9.9.9.9.9.K u u u u u u u u u u                 ",
"                          k.k.k.k.k.k.k.k.h.i.;.( ;.9.9.9.9.9.9.9.9.9.9.9.9.9.9.9.9.9.9.9.9.9.9.9.9.9.9.9.9.9.9.9.9.9.9.9.J u u u u u u u u u u                 ",
"                          k.k.k.k.k.k.k.k.;.E B E ;.9.9.9.9.9.9.9.9.9.9.9.9.9.9.9.9.9.9.9.9.9.9.9.9.9.9.9.9.9.9.9.9.9.9.;.g u u u u u u u u u u                 ",
"                        k.k.k.k.k.k.k.k.k.Q B B U  .9.9.9.9.9.9.9.9.9.9.9.9.9.9.9.9.9.9.9.9.9.9.9.9.9.9.9.9.9.9.9.9.9.9.;.s u u u u u u u u u u                 ",
"                        k.k.k.k.k.k.k.k.k.  B B B | 9.9.9.9.9.9.9.9.9.9.9.9.9.9.9.9.9.9.9.9.9.9.9.9.9.9.9.9.9.9.9.9.9.9. .s u u u u u u u u u u                 ",
"                        k.k.k.k.k.k.k.k.    B B B ! ;.9.9.9.9.9.9.9.9.9.9.9.9.9.9.9.9.9.9.9.9.9.9.9.9.9.9.9.9.9.9.9.9.9./ u u u u u u u u u u u                 ",
"                        k.k.k.k.k.k.k.k.    B B B U #.9.9.9.9.9.9.9.9.9.9.9.9.9.9.9.9.9.9.9.9.9.9.9.9.9.9.9.9.9.9.9.9.9.J t u u u u u u u u u                   ",
"                          k.k.k.k.k.k.      B B B B ( 9.9.9.9.9.9.9.9.9.9.9.9.9.9.9.9.9.9.9.9.9.9.9.9.9.9.9.9.9.9.9.9.;.d t u u u u u u                         ",
"                            k.k.k.k.k.        B B B U  .9.9.9.9.9.9.9.9.9.9.9.9.9.9.9.9.9.9.9.9.9.9.9.9.9.9.9.9.9.9.9. .u u u u u u                             ",
"                                              B B B B E ;.9.9.9.9.9.9.9.9.9.9.9.9.9.9.9.9.9.9.9.9.9.9.9.9.9.9.9.9.9.9.    u u u                                 ",
"                                                B B B B E ;.9.9.9.9.9.9.9.9.9.9.9.9.9.9.9.9.9.9.9.9.9.9.9.9.9.9.9.9.9.                                          ",
"                                                l U B B B E  .9.9.9.9.9.9.9.9.9.9.9.9.9.9.9.9.9.9.9.9.9.9.9.9.9.9.9.                                            ",
"                                              f U ( U B B B U ( #.;.9.9.9.9.9.9.9.9.9.9.9.9.9.9.9.9.9.9.9.9.9.9.9.9.                                            ",
"                                              f U ;.| U B B B B U !  .#.;.;.9.9.9.9.9.9.9.9.9.9.9.9.9.9.9.9.9.9.9.9.;.                                          ",
"                                              f j #.9.#./ U B B B B B U E ! (  .#.;.;.;.9.9.9.9.9.9.9.9.9.9.;.;.9.9.;.                                          ",
"                                              f f / 9.9.;. .( E U B B B B B B B U E E E ( ( ( |  . . . .( (  .;.9.9.;.B                                         ",
"                                                f U ;.9.9.9.9.;.;. .( B B B B B B B B B B B B B B B B E (  .9.9.9.9. .j                                         ",
"                                                f j  .9.9.9.9.9.9.                B B B B B B B B B ( ;.;.9.9.9.9. .B f                                         ",
"                                                  f B | ;.9.                                          9.9.9.9.9. .B f f                                         ",
"                                                                                                        ;.;.;. .l f f                                           ",
"                                                                                                          E U j f f                                             ",
"                                                                                                            f f                                                 ",
"                                                                                                                                                                ",
"                                                                                                                                                                ",
"                                                                                                                                                                ",
"                                                                                                                                                                ",
"                                                                                                                                                                ",
"                                                                                                                                                                ",
"                                                                                                                                                                ",
"                                                                                                                                                                ",
"                                                                                                                                                                ",
"                                                                                                                                                                ",
"                                                                                                                                                                ",
"                                                                                                                                                                ",
"                                                                                                                                                                ",
"                                                                                                                                                                ",
"                                                                                                                                                                ",
"                                                                                                                                                                ",
"                                                                                                                                                                ",
"                                                                                                                                                                ",
"                                                                                                                                                                ",
"                                                                                                                                                                ",
"                                                                                                                                                                ",
"                                                                                                                                                                "
};
