/* XPM */
static char *_629_7a5cd10c158f16fc7b7be1c3a0c323ef838914e16fe3c7664d1fe50f8878121e_10[] = {
/* columns rows colors chars-per-pixel */
"80 80 256 2 ",
"   c None",
".  c #8A1D1D",
"X  c #8B1D1D",
"o  c #8B1D1E",
"O  c #8B1E1E",
"+  c #8C1D1E",
"@  c #8C1E1E",
"#  c #8E1F1F",
"$  c #902020",
"%  c #912021",
"&  c #922121",
"*  c #932121",
"=  c #932222",
"-  c #952322",
";  c #972424",
":  c #992424",
">  c #9E2827",
",  c #9F2828",
"<  c #A02828",
"1  c #A52B2B",
"2  c #A92D2D",
"3  c #AB2E2E",
"4  c #AD302F",
"5  c #AF3130",
"6  c #B13231",
"7  c #B43332",
"8  c #B73534",
"9  c #BA3635",
"0  c #BC3836",
"q  c #BD3837",
"w  c #BF3938",
"e  c #C03A38",
"r  c #C43C3A",
"t  c #C83E3C",
"y  c #E03536",
"u  c #E03636",
"i  c #E03736",
"p  c #E13938",
"a  c #E33B3B",
"s  c #E73B39",
"d  c #E73C3A",
"f  c #E73D3B",
"g  c #E53F3E",
"h  c #E83D3B",
"j  c #E83F3C",
"k  c #E83F3D",
"l  c #CC403E",
"z  c #CD413F",
"x  c #E9403D",
"c  c #E9403E",
"v  c #E9413F",
"b  c #EA413E",
"n  c #EA413F",
"m  c #EA423F",
"M  c #CE4140",
"N  c #CF4240",
"B  c #D04340",
"V  c #D14341",
"C  c #D24341",
"Z  c #D64644",
"A  c #D94745",
"S  c #DB4846",
"D  c #DC4947",
"F  c #DF4B48",
"G  c #E64241",
"H  c #E74341",
"J  c #E94240",
"K  c #EA4240",
"L  c #EA4340",
"P  c #EA4341",
"I  c #EB4441",
"U  c #EB4541",
"Y  c #EA4442",
"T  c #EB4542",
"R  c #EA4543",
"E  c #EB4643",
"W  c #E84544",
"Q  c #EB4744",
"!  c #EC4744",
"~  c #EB4845",
"^  c #EA4846",
"/  c #EA4947",
"(  c #EC4845",
")  c #EC4946",
"_  c #EC4947",
"`  c #EC4A47",
"'  c #E04B48",
"]  c #E44D4A",
"[  c #E44D4B",
"{  c #E54E4B",
"}  c #E64E4C",
"|  c #E74F4C",
" . c #EC4B48",
".. c #ED4B48",
"X. c #ED4C49",
"o. c #ED4C4A",
"O. c #ED4D4A",
"+. c #EC4D4B",
"@. c #ED4D4B",
"#. c #ED4E4B",
"$. c #EE4E4B",
"%. c #EE4F4B",
"&. c #E84F4D",
"*. c #ED4F4C",
"=. c #EE4F4C",
"-. c #EE4F4D",
";. c #E9504D",
":. c #EB514E",
">. c #EE504D",
",. c #ED504E",
"<. c #EC514E",
"1. c #EC514F",
"2. c #EE504E",
"3. c #EE514E",
"4. c #EF514E",
"5. c #EF514F",
"6. c #EC524F",
"7. c #ED524F",
"8. c #EF524E",
"9. c #EE524F",
"0. c #EF524F",
"q. c #EF534F",
"w. c #EE5350",
"e. c #EF5350",
"r. c #EF5451",
"t. c #EF5552",
"y. c #F05350",
"u. c #F05450",
"i. c #F05451",
"p. c #F15451",
"a. c #F05653",
"s. c #F05854",
"d. c #F05855",
"f. c #F15956",
"g. c #F15C58",
"h. c #F15E5A",
"j. c #F25E5A",
"k. c #F2605C",
"l. c #F2615D",
"z. c #F2625E",
"x. c #F3625E",
"c. c #F3625F",
"v. c #F3635F",
"b. c #F36360",
"n. c #F36460",
"m. c #F36561",
"M. c black",
"N. c black",
"B. c black",
"V. c black",
"C. c black",
"Z. c black",
"A. c black",
"S. c black",
"D. c black",
"F. c black",
"G. c black",
"H. c black",
"J. c black",
"K. c black",
"L. c black",
"P. c black",
"I. c black",
"U. c black",
"Y. c black",
"T. c black",
"R. c black",
"E. c black",
"W. c black",
"Q. c black",
"!. c black",
"~. c black",
"^. c black",
"/. c black",
"(. c black",
"). c black",
"_. c black",
"`. c black",
"'. c black",
"]. c black",
"[. c black",
"{. c black",
"}. c black",
"|. c black",
" X c black",
".X c black",
"XX c black",
"oX c black",
"OX c black",
"+X c black",
"@X c black",
"#X c black",
"$X c black",
"%X c black",
"&X c black",
"*X c black",
"=X c black",
"-X c black",
";X c black",
":X c black",
">X c black",
",X c black",
"<X c black",
"1X c black",
"2X c black",
"3X c black",
"4X c black",
"5X c black",
"6X c black",
"7X c black",
"8X c black",
"9X c black",
"0X c black",
"qX c black",
"wX c black",
"eX c black",
"rX c black",
"tX c black",
"yX c black",
"uX c black",
"iX c black",
"pX c black",
"aX c black",
"sX c black",
"dX c black",
"fX c black",
"gX c black",
"hX c black",
"jX c black",
"kX c black",
"lX c black",
"zX c black",
"xX c black",
"cX c black",
"vX c black",
"bX c black",
"nX c black",
"mX c black",
"MX c black",
"NX c black",
"BX c black",
"VX c black",
"CX c black",
"ZX c black",
"AX c black",
"SX c black",
"DX c black",
"FX c black",
"GX c black",
"HX c black",
"JX c black",
"KX c black",
"LX c black",
"PX c black",
"IX c black",
"UX c black",
/* pixels */
"                                                                                                                                                                ",
"                                                                                                                                                                ",
"                                                                                                                                                                ",
"                                                                                                                                                                ",
"                                                                                                                                                                ",
"                                                                                                                                                                ",
"                                                                                                                                                                ",
"                                                                                                                                                                ",
"                                                                                                                                                                ",
"                                                                                                                                                                ",
"                                                                                                                                                                ",
"                                                                                                                                                                ",
"                                                                                                                                                                ",
"                                                                        e.e.e.e.e.e.                                                                            ",
"                                                                e.e.e.e.e.e.e.e.e.e.e.e.e.e.e.e.e.                                                              ",
"                                                            %.e.e.e.e.e.e.e.e.e.e.e.e.e.e.e.e.e.e.e.e.e.                                                        ",
"                                                        m ` 2.e.e.e.e.e.e.e.e.e.e.e.e.e.e.e.e.e.e.e.e.e.e.e.                                                    ",
"                                                      m Q 2.e.e.e.e.e.e.e.e.e.e.e.e.e.e.e.e.e.e.e.e.e.e.e.e.e.e.                                                ",
"                                                    m L %.e.e.e.e.e.e.e.e.e.e.e.e.e.e.e.e.e.e.e.e.e.e.e.e.e.e.e.e.                                              ",
"                                                  m m ` e.e.e.e.e.e.e.e.e.e.e.e.e.e.e.e.e.e.e.e.e.e.e.e.e.e.e.e.e.e.                                            ",
"                                                  m L %.e.e.e.e.e.e.e.e.e.e.e.e.e.e.e.e.e.e.e.e.e.e.e.e.e.e.e.e.e.e.e.                                          ",
"                                                m m T 2.e.e.e.e.e.e.e.e.e.e.e.e.e.e.e.e.e.e.e.e.e.e.e.e.e.e.e.e.e.e.e.e.                                        ",
"                                                m m ` e.e.e.e.e.e.e.e.e.e.e.e.e.e.e.e.e.e.e.e.e.e.e.e.e.e.e.e.e.e.e.e.e.                                        ",
"                                              m m m %.e.e.e.e.e.e.e.e.e.e.e.e.a.a.a.e.e.e.e.e.e.e.e.e.e.e.e.e.e.e.e.e.e.e.                                      ",
"                                              m m L =.e.e.e.e.e.e.e.e.e.e.e.2.Z t V &.e.e.e.e.e.e.e.e.e.e.e.e.e.e.e.e.e.e.                                      ",
"                                              m m T 2.e.e.e.e.e.e.e.e.e.e.:.9 & # $ 4 { e.e.e.e.e.e.e.e.e.e.e.e.a.a.y.e.e.                                      ",
"                                              m m T 2.e.e.e.e.e.e.e.e.e.a.V & O # O # w e.e.e.e.e.e.e.e.e.e.e.:.Z l D e.e.e.                                    ",
"                                              m m ` e.e.e.e.e.e.e.e.e.e.e.q O # # # O 2 2.e.e.e.e.e.e.e.e.e.:.9 & # : l e.e.                                    ",
"                                            ! `  .%.e.e.e.e.e.e.e.e.e.e.y.r # # # # O 6 2.e.e.e.e.e.e.e.e.y.V & O # O , { y.                                    ",
"                                          n.z.z.z.z.g.r.e.e.e.e.e.e.e.e.y.F > O O O - V a.e.e.e.e.e.e.e.e.y.q O # # O & S a.                                    ",
"                                  n.n.n.n.n.n.n.n.n.n.g.e.e.e.e.e.e.e.e.e.e.A 5 , 2 N 2.e.e.e.e.e.e.e.e.e.y.e O # # O ; ' a.                                    ",
"                              n.n.n.n.n.n.n.n.n.n.n.n.z.a.e.e.e.e.e.e.e.e.e.y.2.| :.y.e.e.e.e.e.e.e.e.e.e.y.A ; O O O 7 2.e.                                    ",
"                            n.n.n.n.n.n.n.n.n.n.n.n.n.b.d.e.e.e.e.e.e.e.e.e.e.e.y.e.e.e.e.e.e.e.e.e.e.e.e.e.e.N 1 , 8 { e.e.                                    ",
"                            n.n.n.n.n.n.n.n.n.n.n.n.n.z.d.e.e.e.e.e.e.e.e.e.e.e.e.e.e.e.e.e.e.e.e.e.e.e.e.e.e.e.:.| 2.e.e.e.          i i i                     ",
"                          n.n.n.n.n.n.n.n.n.n.n.n.n.n.z.r.e.e.e.e.e.e.e.e.e.e.e.e.e.e.e.e.e.e.e.e.e.e.e.e.e.e.e.e.y.e.e.e.=.      i i i i i i i                 ",
"                          n.n.n.n.n.n.n.n.n.n.n.n.n.z.d.e.e.e.e.e.e.e.e.e.e.e.e.e.e.e.e.e.e.e.e.e.e.e.e.e.e.e.e.e.e.e.e.e.^ i   i i i i i i i i                 ",
"                        n.n.n.n.n.n.n.n.n.n.n.z.z.g.d.e.e.e.e.e.e.e.e.e.e.e.e.e.e.e.e.e.e.e.e.e.e.e.e.e.e.e.e.e.e.e.e.e.e.Q i i i i i i i i i i i               ",
"                        n.n.n.n.n.n.n.n.n.g.e.%.^ 2.e.e.e.e.e.e.e.e.e.e.e.e.e.e.e.e.e.e.e.e.e.e.e.e.e.e.e.e.e.e.e.e.e.e.e.G i i i i i i i i i i i               ",
"                        n.n.n.n.n.n.n.n.n.T m m L 2.e.e.e.e.e.e.e.e.e.e.e.e.e.e.e.e.e.e.e.e.e.e.e.e.e.e.e.e.e.e.e.e.e.e.2.g i i i i i i i i i i i               ",
"                      n.n.n.n.n.n.n.n.n.  m m m L %.e.e.e.e.e.e.e.e.e.e.e.e.e.e.e.e.e.e.e.e.e.e.e.e.e.e.e.e.e.e.e.e.e.e.2.a i i i i i i i i i i                 ",
"                      n.n.n.n.n.n.n.n.n.    m m m  .e.e.e.e.e.e.e.e.e.e.e.e.e.e.e.e.e.e.e.e.e.e.e.e.e.e.e.e.e.e.e.e.e.e.%.a i i i i i i i i i                   ",
"                      n.n.n.n.n.n.n.n.      m m m Q 2.e.e.e.e.e.e.e.e.e.e.e.e.e.e.e.e.e.e.e.e.e.e.e.e.e.e.e.e.e.e.e.e.e.^ i i i i i i i i i                     ",
"                        n.n.n.n.n.n.n.      m m m L =.e.e.e.e.e.e.e.e.e.e.e.e.e.e.e.e.e.e.e.e.e.e.e.e.e.e.e.e.e.e.e.e.e.G i i i i i i i                         ",
"                          n.n.n.n.n.        m m m m ` 2.e.e.e.e.e.e.e.e.e.e.e.e.e.e.e.e.e.e.e.e.e.e.e.e.e.e.e.e.e.e.e.2.g i i i i i i                           ",
"                                              m m m L %.e.e.e.e.e.e.e.e.e.e.e.e.e.e.e.e.e.e.e.e.e.e.e.e.e.e.e.e.e.e.e.e.    i i i                               ",
"                                              m m m m T 2.e.e.e.e.e.e.e.e.e.e.e.e.e.e.e.e.e.e.e.e.e.e.e.e.e.e.e.e.e.e.                                          ",
"                                              k m m m m T 2.e.e.e.e.e.e.e.e.e.e.e.e.e.e.e.e.e.e.e.e.e.e.e.e.e.e.e.e.e.                                          ",
"                                            s m ^ m m m m T %.2.e.e.e.e.e.e.e.e.e.e.e.e.e.e.e.e.e.e.e.e.e.e.e.e.e.e.                                            ",
"                                            s T 2.` m m m m L ` =.2.e.e.e.e.e.e.e.e.e.e.e.e.e.e.e.e.e.e.e.e.e.e.e.e.                                            ",
"                                            s T e.2.` L m m m m L ` %.=.2.e.e.e.e.e.e.e.e.e.e.e.e.e.e.e.e.e.e.e.e.                                              ",
"                                            s m 2.e.e.%.! L m m m m m L T `  .%.=.2.2.2.e.e.e.e.e.e.e.e.e.e.2.2.e.                                              ",
"                                            s k 2.e.e.e.2.%.` T L m m m m m m m L T T Q ` `  .%.%.%.%.%. .`  .2.e.e.                                            ",
"                                            s d %.e.e.e.e.e.e.2.=.%.T m m m m m m m m m m m m m m m m L Q %.2.e.e.e.%.                                          ",
"                                            s s Q e.e.e.e.e.e.e.e.e.              m m m m m m m m Q  .=.2.e.e.e.e.e.Q                                           ",
"                                              s h Q =.e.e.                                          e.e.e.e.e.e.e.%.k s                                         ",
"                                                                                                    2.e.e.e.e.2.` k s                                           ",
"                                                                                                      =.2.2. .m s s d                                           ",
"                                                                                                      k L m d s s                                               ",
"                                                                                                        s s s                                                   ",
"                                                                                                                                                                ",
"                                                                                                                                                                ",
"                                                                                                                                                                ",
"                                                                                                                                                                ",
"                                                                                                                                                                ",
"                                                                                                                                                                ",
"                                                                                                                                                                ",
"                                                                                                                                                                ",
"                                                                                                                                                                ",
"                                                                                                                                                                ",
"                                                                                                                                                                ",
"                                                                                                                                                                ",
"                                                                                                                                                                ",
"                                                                                                                                                                ",
"                                                                                                                                                                ",
"                                                                                                                                                                ",
"                                                                                                                                                                ",
"                                                                                                                                                                ",
"                                                                                                                                                                ",
"                                                                                                                                                                ",
"                                                                                                                                                                "
};
