/* XPM */
static char *_629_7a5cd10c158f16fc7b7be1c3a0c323ef838914e16fe3c7664d1fe50f8878121e_11[] = {
/* columns rows colors chars-per-pixel */
"80 80 128 2 ",
"   c None",
".  c #8A1D1D",
"X  c #8B1D1D",
"o  c #8B1E1E",
"O  c #8C1E1E",
"+  c #8E1F1F",
"@  c #8F201F",
"#  c #932221",
"$  c #932222",
"%  c #952323",
"&  c #962323",
"*  c #992525",
"=  c #9A2625",
"-  c #9D2727",
";  c #9E2827",
":  c #9F2928",
">  c #A02928",
",  c #A12929",
"<  c #A22929",
"1  c #A82D2C",
"2  c #B13231",
"3  c #B73534",
"4  c #B83534",
"5  c #BB3736",
"6  c #E03636",
"7  c #E03637",
"8  c #E13737",
"9  c #E23939",
"0  c #E73B39",
"q  c #E33C3B",
"w  c #E73C3A",
"e  c #E33C3C",
"r  c #E83D3B",
"t  c #E83E3C",
"y  c #E83F3D",
"u  c #CD413F",
"i  c #E5403F",
"p  c #E9403E",
"a  c #E9413F",
"s  c #EA413E",
"d  c #EA423F",
"f  c #CE4240",
"g  c #CF4240",
"h  c #D04240",
"j  c #D24341",
"k  c #D24342",
"l  c #D24441",
"z  c #D74644",
"x  c #D94745",
"c  c #DA4846",
"v  c #DB4846",
"b  c #DC4946",
"n  c #DD4A47",
"m  c #DF4B48",
"M  c #E64241",
"N  c #EA4340",
"B  c #EA4441",
"V  c #EB4441",
"C  c #E84443",
"Z  c #EA4442",
"A  c #EA4542",
"S  c #EB4542",
"D  c #EB4642",
"F  c #EB4643",
"G  c #EB4644",
"H  c #EB4744",
"J  c #EC4744",
"K  c #E94846",
"L  c #E94947",
"P  c #EC4845",
"I  c #EC4946",
"U  c #EC4A47",
"Y  c #ED4A47",
"T  c #E04B48",
"R  c #E14B49",
"E  c #E24C49",
"W  c #E24C4A",
"Q  c #E34D4A",
"!  c #E44D4A",
"~  c #E54E4B",
"^  c #E64E4B",
"/  c #E74E4C",
"(  c #EA4A48",
")  c #EC4B48",
"_  c #ED4B48",
"`  c #ED4C49",
"'  c #ED4D4A",
"]  c #EC4E4B",
"[  c #ED4E4B",
"{  c #EE4E4B",
"}  c #EE4F4C",
"|  c #E9504D",
" . c #EB514E",
".. c #EE504D",
"X. c #EE504E",
"o. c #EE514E",
"O. c #EF514E",
"+. c #ED524F",
"@. c #EE524F",
"#. c #EF524F",
"$. c #EF534F",
"%. c #EF5350",
"&. c #EF5451",
"*. c #EF5551",
"=. c #F05350",
"-. c #F05450",
";. c #F05451",
":. c #F15451",
">. c #F05754",
",. c #F05854",
"<. c #F05855",
"1. c #F15B57",
"2. c #F15C58",
"3. c #F15C59",
"4. c #F15D59",
"5. c #F15E5A",
"6. c #F25F5B",
"7. c #F25F5C",
"8. c #F2605C",
"9. c #F2615D",
"0. c #F3625E",
"q. c #F3625F",
"w. c #F3635F",
"e. c #F36460",
"r. c black",
"t. c black",
"y. c black",
"u. c black",
/* pixels */
"                                                                                                                                                                ",
"                                                                                                                                                                ",
"                                                                                                                                                                ",
"                                                                                                                                                                ",
"                                                                                                                                                                ",
"                                                                                                                                                                ",
"                                                                                                                                                                ",
"                                                                                                                                                                ",
"                                                                                                                                                                ",
"                                                                                                                                                                ",
"                                                                                                                                                                ",
"                                                                                                                                                                ",
"                                                                                                                                                                ",
"                                                                  %.%.%.%.%.%.%.%.%.%.%.%.%.%.%.                                                                ",
"                                                            U ..%.%.%.%.%.%.%.%.%.%.%.%.%.%.%.%.%.%.%.%.                                                        ",
"                                                          H ..%.%.%.%.%.%.%.%.%.%.%.%.%.%.%.%.%.%.%.%.%.%.%.                                                    ",
"                                                      d D } %.%.%.%.%.%.%.%.%.%.%.%.%.%.%.%.%.%.%.%.%.%.%.%.%.%.                                                ",
"                                                    d d U %.%.%.%.%.%.%.%.%.%.%.%.%.%.%.%.%.%.%.%.%.%.%.%.%.%.%.%.                                              ",
"                                                    d D ..%.%.%.%.%.%.%.%.%.%.%.%.%.%.%.%.%.%.%.%.%.%.%.%.%.%.%.%.%.                                            ",
"                                                  d d U %.%.%.%.%.%.%.%.%.%.%.%.%.%.%.%.%.%.%.%.%.%.%.%.%.%.%.%.%.%.%.                                          ",
"                                                  d N } %.%.%.%.%.%.%.%.%.%.%.%.%.%.%.%.%.%.%.%.%.%.%.%.%.%.%.%.%.%.%.%.                                        ",
"                                                d d D ..%.%.%.%.%.%.%.%.%.%.%.%.%.%.%.%.%.%.%.%.%.%.%.%.%.%.%.%.%.%.%.%.%.                                      ",
"                                                d d U %.%.%.%.%.%.%.%.%.%.%.%.=.;.;.%.%.%.%.%.%.%.%.%.%.%.%.%.%.%.%.%.%.%.                                      ",
"                                              d d d { %.%.%.%.%.%.%.%.%.%.%.%.~ x n  .=.%.%.%.%.%.%.%.%.%.%.%.%.%.%.%.%.%.                                      ",
"                                              d d N { %.%.%.%.%.%.%.%.%.%.%.h > # % 2 ~ =.%.%.%.%.%.%.%.%.%.%.%.=.;.=.%.%.%.                                    ",
"                                              d d D ..%.%.%.%.%.%.%.%.%.=.T - . O . . 3 ..%.%.%.%.%.%.%.%.%.%.%.~ v ~ %.%.%.                                    ",
"                                              d d D ..%.%.%.%.%.%.%.%.%.;.g O O O O . ; ~ =.%.%.%.%.%.%.%.%.%.h > # - u %.%.                                    ",
"                                              D H U ..%.%.%.%.%.%.%.%.%.;.h O O O O . : / =.%.%.%.%.%.%.%.;.E ; . O . = m =.                                    ",
"                                            5.5.8.5.1.*.%.%.%.%.%.%.%.%.=.~ > . . . O 4 ..%.%.%.%.%.%.%.%.;.g O O O O O g ;.                                    ",
"                                          e.e.e.e.e.e.5.*.%.%.%.%.%.%.%.%.=.x 1 & = 4 ~ =.%.%.%.%.%.%.%.%.;.u O O O O @ h ;.                                    ",
"                                      e.e.e.e.e.e.e.e.8.>.%.%.%.%.%.%.%.%.%.=. .n T ..=.%.%.%.%.%.%.%.%.%.=.T = . O . ; E =.                                    ",
"                                  e.e.e.e.e.e.e.e.e.e.e.1.%.%.%.%.%.%.%.%.%.%.=.;.;.%.%.%.%.%.%.%.%.%.%.%.%.%.u - # > l %.%.                                    ",
"                                e.e.e.e.e.e.e.e.e.e.e.e.1.%.%.%.%.%.%.%.%.%.%.%.%.%.%.%.%.%.%.%.%.%.%.%.%.%.%.%.E v ~ %.%.%.                                    ",
"                              e.e.e.e.e.e.e.e.e.e.e.e.8.1.%.%.%.%.%.%.%.%.%.%.%.%.%.%.%.%.%.%.%.%.%.%.%.%.%.%.%.=.;.=.%.%.%.                                    ",
"                              e.e.e.e.e.e.e.e.e.e.e.e.5.*.%.%.%.%.%.%.%.%.%.%.%.%.%.%.%.%.%.%.%.%.%.%.%.%.%.%.%.%.%.%.%.%.{                                     ",
"                            e.e.e.e.e.e.e.e.e.e.e.8.5.*.%.%.%.%.%.%.%.%.%.%.%.%.%.%.%.%.%.%.%.%.%.%.%.%.%.%.%.%.%.%.%.%.%.( 8                                   ",
"                            e.e.e.e.e.e.e.e.e.8.1.*.%.%.%.%.%.%.%.%.%.%.%.%.%.%.%.%.%.%.%.%.%.%.%.%.%.%.%.%.%.%.%.%.%.%.%.K 8 8   8 8 8 8 8 8                   ",
"                            e.e.e.e.e.e.e.e.5.{ D { %.%.%.%.%.%.%.%.%.%.%.%.%.%.%.%.%.%.%.%.%.%.%.%.%.%.%.%.%.%.%.%.%.%.%.D 8 8 8 8 8 8 8 8 8 8                 ",
"                            e.e.e.e.e.e.e.8.{ d d ) %.%.%.%.%.%.%.%.%.%.%.%.%.%.%.%.%.%.%.%.%.%.%.%.%.%.%.%.%.%.%.%.%.%...i 8 8 8 8 8 8 8 8 8 8 8               ",
"                            e.e.e.e.e.e.e.8.U d d U %.%.%.%.%.%.%.%.%.%.%.%.%.%.%.%.%.%.%.%.%.%.%.%.%.%.%.%.%.%.%.%.%.%...e 8 8 8 8 8 8 8 8 8 8 8               ",
"                            e.e.e.e.e.e.e.7.H d d D ..%.%.%.%.%.%.%.%.%.%.%.%.%.%.%.%.%.%.%.%.%.%.%.%.%.%.%.%.%.%.%.%.%.{ 9 8 8 8 8 8 8 8 8 8 8 8               ",
"                            e.e.e.e.e.e.e.8.D d d N { %.%.%.%.%.%.%.%.%.%.%.%.%.%.%.%.%.%.%.%.%.%.%.%.%.%.%.%.%.%.%.%.%.K 8 8 8 8 8 8 8 8 8 8 8 8               ",
"                            e.e.e.e.e.e.e.e.N d d d J ..%.%.%.%.%.%.%.%.%.%.%.%.%.%.%.%.%.%.%.%.%.%.%.%.%.%.%.%.%.%.%.%.M 8 8 8 8 8 8 8 8 8 8 8                 ",
"                            e.e.e.e.e.e.e.    d d d N { %.%.%.%.%.%.%.%.%.%.%.%.%.%.%.%.%.%.%.%.%.%.%.%.%.%.%.%.%.%.%...9 8 8 8 8 8 8 8 8 8 8                   ",
"                              e.e.e.e.e.      d d d d D } %.%.%.%.%.%.%.%.%.%.%.%.%.%.%.%.%.%.%.%.%.%.%.%.%.%.%.%.%.%...  8 8 8 8 8                             ",
"                                e.e.e.          d d d d D ..%.%.%.%.%.%.%.%.%.%.%.%.%.%.%.%.%.%.%.%.%.%.%.%.%.%.%.%.%.                                          ",
"                                                  d d d d D { %.%.%.%.%.%.%.%.%.%.%.%.%.%.%.%.%.%.%.%.%.%.%.%.%.%.%.%.                                          ",
"                                                t D d d d d D U ..%.%.%.%.%.%.%.%.%.%.%.%.%.%.%.%.%.%.%.%.%.%.%.%.%.                                            ",
"                                              0 d ..U N d d d d D U { ..%.%.%.%.%.%.%.%.%.%.%.%.%.%.%.%.%.%.%.%.%.                                              ",
"                                              0 d ..%.{ D d d d d d N D J U { } ......%.%.%.%.%.%.%.%.%.%.%.%...%.                                              ",
"                                              0 w { %.%...{ J D d d d d d d d N D D U U U { { { } } ..} { { U                                                   ",
"                                                0 D ..%.%.%.....{ U J N d d d d d d d d d d d N N N N N D U                                                     ",
"                                                0 r { %.%.%.%.%.%.%.          d d d d d d D D D D D U { ..%.                                                    ",
"                                                0 0 D ..%.%.%.%.                          ..........%.%.%.%.                                                    ",
"                                                  0 w D { ..                                %.%.%.%.%.%.%...                                                    ",
"                                                    0 0                                     ..%.%.%.%.%.%.{ t                                                   ",
"                                                                                            U ......{ ) H t 0                                                   ",
"                                                                                            w d d t w 0 0 0                                                     ",
"                                                                                              0 0 0 0 0                                                         ",
"                                                                                                                                                                ",
"                                                                                                                                                                ",
"                                                                                                                                                                ",
"                                                                                                                                                                ",
"                                                                                                                                                                ",
"                                                                                                                                                                ",
"                                                                                                                                                                ",
"                                                                                                                                                                ",
"                                                                                                                                                                ",
"                                                                                                                                                                ",
"                                                                                                                                                                ",
"                                                                                                                                                                ",
"                                                                                                                                                                ",
"                                                                                                                                                                ",
"                                                                                                                                                                ",
"                                                                                                                                                                ",
"                                                                                                                                                                ",
"                                                                                                                                                                ",
"                                                                                                                                                                ",
"                                                                                                                                                                ",
"                                                                                                                                                                "
};
