/* XPM */
static char *_629_7a5cd10c158f16fc7b7be1c3a0c323ef838914e16fe3c7664d1fe50f8878121e_12[] = {
/* columns rows colors chars-per-pixel */
"80 80 256 2 ",
"   c None",
".  c #8A1D1D",
"X  c #8A1D1E",
"o  c #8B1D1E",
"O  c #8A1E1E",
"+  c #8B1E1E",
"@  c #8C1E1E",
"#  c #8C1F1F",
"$  c #8D1F1F",
"%  c #8E1F1F",
"&  c #8F2020",
"*  c #902020",
"=  c #902120",
"-  c #922221",
";  c #932222",
":  c #962423",
">  c #982424",
",  c #9D2727",
"<  c #A22A29",
"1  c #A32B2A",
"2  c #A42B2A",
"3  c #A62C2B",
"4  c #AA2E2D",
"5  c #AA2E2E",
"6  c #AF3130",
"7  c #B23331",
"8  c #B63433",
"9  c #B73534",
"0  c #BB3736",
"q  c #C03A39",
"w  c #C43C3A",
"e  c #C43C3B",
"r  c #C63D3B",
"t  c #C73E3C",
"y  c #C93F3D",
"u  c #E03535",
"i  c #E03636",
"p  c #E03737",
"a  c #E13737",
"s  c #E13838",
"d  c #E23A39",
"f  c #E73B39",
"g  c #E73C3A",
"h  c #E43D3C",
"j  c #E43D3D",
"k  c #E83D3B",
"l  c #E83E3C",
"z  c #E83F3C",
"x  c #E83F3D",
"c  c #CB403E",
"v  c #CD413F",
"b  c #CE413F",
"n  c #E9403D",
"m  c #E9403E",
"M  c #E9423F",
"N  c #EA423F",
"B  c #D14341",
"V  c #D24341",
"C  c #D24442",
"Z  c #D34442",
"A  c #D44543",
"S  c #D94745",
"D  c #DB4846",
"F  c #DC4946",
"G  c #DD4947",
"H  c #E64140",
"J  c #E74342",
"K  c #E74544",
"L  c #E94240",
"P  c #EA4240",
"I  c #EA4340",
"U  c #EA4441",
"Y  c #EB4441",
"T  c #E84543",
"R  c #EB4542",
"E  c #EB4642",
"W  c #EB4643",
"Q  c #EB4644",
"!  c #EB4744",
"~  c #EC4744",
"^  c #EB4845",
"/  c #EA4846",
"(  c #EC4845",
")  c #EC4945",
"_  c #EC4946",
"`  c #EC4A47",
"'  c #E14B49",
"]  c #E44D4A",
"[  c #E54E4B",
"{  c #E64E4B",
"}  c #E74F4C",
"|  c #EB4A48",
" . c #EC4A48",
".. c #EC4B48",
"X. c #ED4B48",
"o. c #EB4C49",
"O. c #EB4C4A",
"+. c #ED4C49",
"@. c #ED4D4A",
"#. c #ED4E4A",
"$. c #ED4E4B",
"%. c #EE4E4A",
"&. c #EE4E4B",
"*. c #EE4F4B",
"=. c #E84F4C",
"-. c #E84F4D",
";. c #E94F4D",
":. c #ED4F4C",
">. c #EE4F4C",
",. c #EA504D",
"<. c #EB514E",
"1. c #EE504C",
"2. c #EE504D",
"3. c #EF504D",
"4. c #EC514E",
"5. c #ED514E",
"6. c #EE514E",
"7. c #EF514E",
"8. c #EE514F",
"9. c #EC524F",
"0. c #ED524F",
"q. c #EF524E",
"w. c #EE524F",
"e. c #EF524F",
"r. c #EF534F",
"t. c #EF5350",
"y. c #EF5450",
"u. c #EF5551",
"i. c #EF5552",
"p. c #EF5652",
"a. c #EF5653",
"s. c #F05350",
"d. c #F05450",
"f. c #F05451",
"g. c #F15451",
"h. c #F05552",
"j. c #F05653",
"k. c #F05753",
"l. c #F05754",
"z. c #F05956",
"x. c #F15956",
"c. c #F15B58",
"v. c #F15C59",
"b. c #F15D59",
"n. c #F15E5A",
"m. c #F25F5B",
"M. c #F2605D",
"N. c #F2615D",
"B. c #F2625E",
"V. c #F3625E",
"C. c #F3635F",
"Z. c #F36460",
"A. c black",
"S. c black",
"D. c black",
"F. c black",
"G. c black",
"H. c black",
"J. c black",
"K. c black",
"L. c black",
"P. c black",
"I. c black",
"U. c black",
"Y. c black",
"T. c black",
"R. c black",
"E. c black",
"W. c black",
"Q. c black",
"!. c black",
"~. c black",
"^. c black",
"/. c black",
"(. c black",
"). c black",
"_. c black",
"`. c black",
"'. c black",
"]. c black",
"[. c black",
"{. c black",
"}. c black",
"|. c black",
" X c black",
".X c black",
"XX c black",
"oX c black",
"OX c black",
"+X c black",
"@X c black",
"#X c black",
"$X c black",
"%X c black",
"&X c black",
"*X c black",
"=X c black",
"-X c black",
";X c black",
":X c black",
">X c black",
",X c black",
"<X c black",
"1X c black",
"2X c black",
"3X c black",
"4X c black",
"5X c black",
"6X c black",
"7X c black",
"8X c black",
"9X c black",
"0X c black",
"qX c black",
"wX c black",
"eX c black",
"rX c black",
"tX c black",
"yX c black",
"uX c black",
"iX c black",
"pX c black",
"aX c black",
"sX c black",
"dX c black",
"fX c black",
"gX c black",
"hX c black",
"jX c black",
"kX c black",
"lX c black",
"zX c black",
"xX c black",
"cX c black",
"vX c black",
"bX c black",
"nX c black",
"mX c black",
"MX c black",
"NX c black",
"BX c black",
"VX c black",
"CX c black",
"ZX c black",
"AX c black",
"SX c black",
"DX c black",
"FX c black",
"GX c black",
"HX c black",
"JX c black",
"KX c black",
"LX c black",
"PX c black",
"IX c black",
"UX c black",
/* pixels */
"                                                                                                                                                                ",
"                                                                                                                                                                ",
"                                                                                                                                                                ",
"                                                                                                                                                                ",
"                                                                                                                                                                ",
"                                                                                                                                                                ",
"                                                                                                                                                                ",
"                                                                                                                                                                ",
"                                                                                                                                                                ",
"                                                                                                                                                                ",
"                                                                                                                                                                ",
"                                                                                                                                                                ",
"                                                                    t.t.t.t.t.t.t.t.t.t.t.t.                                                                    ",
"                                                              1.t.t.t.t.t.t.t.t.t.t.t.t.t.t.t.t.t.t.t.                                                          ",
"                                                          R *.t.t.t.t.t.t.t.t.t.t.t.t.t.t.t.t.t.t.t.t.t.t.                                                      ",
"                                                        I *.t.t.t.t.t.t.t.t.t.t.t.t.t.t.t.t.t.t.t.t.t.t.t.t.t.                                                  ",
"                                                      N ( 1.t.t.t.t.t.t.t.t.t.t.t.t.t.t.t.t.t.t.t.t.t.t.t.t.t.t.t.                                              ",
"                                                    N R >.t.t.t.t.t.t.t.t.t.t.t.t.t.t.t.t.t.t.t.t.t.t.t.t.t.t.t.t.t.                                            ",
"                                                  N N ( 1.t.t.t.t.t.t.t.t.t.t.t.t.t.t.t.t.t.t.t.t.t.t.t.t.t.t.t.t.t.t.                                          ",
"                                                  N I *.t.t.t.t.t.t.t.t.t.t.t.t.t.t.t.t.t.t.t.t.t.t.t.t.t.t.t.t.t.t.t.t.                                        ",
"                                                N N R 1.t.t.t.t.t.t.t.t.t.t.t.t.t.t.t.t.t.t.t.t.t.t.t.t.t.t.t.t.t.t.t.t.                                        ",
"                                                N N ( 1.t.t.t.t.t.t.t.t.t.t.t.t.t.t.t.t.t.t.t.t.t.t.t.t.t.t.t.t.t.t.t.t.t.                                      ",
"                                                N N X.t.t.t.t.t.t.t.t.t.t.t.s.1.=.,.t.t.t.t.t.t.t.t.t.t.t.t.t.t.t.t.t.t.t.                                      ",
"                                              N N I *.t.t.t.t.t.t.t.t.t.t.s.' 9 1 3 t ,.t.t.t.t.t.t.t.t.t.t.t.t.t.t.t.t.t.t.                                    ",
"                                              N N R 1.t.t.t.t.t.t.t.t.t.t.} 5 o o o & w t.t.t.t.t.t.t.t.t.t.t.s.1.,.1.s.t.t.                                    ",
"                                              N N R 1.t.t.t.t.t.t.t.t.t.h.Z - o @ @ o 1 =.t.t.t.t.t.t.t.t.t.s.' 8 2 7 G s.t.                                    ",
"                                              N N ! 1.t.t.t.t.t.t.t.t.t.h.b @ o @ @ o , ] s.t.t.t.t.t.t.t.t.=.5 o o o 3 } s.                                    ",
"                                            ( *.u.x.x.u.t.t.t.t.t.t.t.t.s.G > o @ @ o 6 1.t.t.t.t.t.t.t.t.h.Z - @ @ o & V h.                                    ",
"                                            m.C.Z.Z.Z.m.h.t.t.t.t.t.t.t.t.1.w : @ @ 1 D s.t.t.t.t.t.t.t.t.h.c @ o @ @ @ b h.                                    ",
"                                          Z.Z.Z.Z.Z.Z.Z.m.t.t.t.t.t.t.t.t.t.1.D y b ] t.t.t.t.t.t.t.t.t.t.h.S - o @ o : G h.                                    ",
"                                        Z.Z.Z.Z.Z.Z.Z.Z.C.h.t.t.t.t.t.t.t.t.t.h.h.h.s.t.t.t.t.t.t.t.t.t.t.t.1.0 - o - q 1.t.                                    ",
"                                        Z.Z.Z.Z.Z.Z.Z.Z.C.h.t.t.t.t.t.t.t.t.t.t.t.t.t.t.t.t.t.t.t.t.t.t.t.t.s.,.V w A 1.t.t.                                    ",
"                                      Z.Z.Z.Z.Z.Z.Z.Z.Z.C.u.t.t.t.t.t.t.t.t.t.t.t.t.t.t.t.t.t.t.t.t.t.t.t.t.t.t.h.h.s.t.t.t.                                    ",
"                                    Z.Z.Z.Z.Z.Z.Z.Z.Z.Z.c.u.t.t.t.t.t.t.t.t.t.t.t.t.t.t.t.t.t.t.t.t.t.t.t.t.t.t.t.t.t.t.t.1.                                    ",
"                                  Z.Z.Z.Z.Z.Z.Z.Z.Z.Z.m.u.t.t.t.t.t.t.t.t.t.t.t.t.t.t.t.t.t.t.t.t.t.t.t.t.t.t.t.t.t.t.t.t.o.                                    ",
"                                  Z.Z.Z.Z.Z.Z.Z.Z.Z.C.h.t.t.t.t.t.t.t.t.t.t.t.t.t.t.t.t.t.t.t.t.t.t.t.t.t.t.t.t.t.t.t.t.t.^ p                                   ",
"                                  Z.Z.Z.Z.Z.Z.Z.Z.C.l.t.t.t.t.t.t.t.t.t.t.t.t.t.t.t.t.t.t.t.t.t.t.t.t.t.t.t.t.t.t.t.t.t.t.K p                                   ",
"                                  Z.Z.Z.Z.Z.Z.Z.C.h.t.t.t.t.t.t.t.t.t.t.t.t.t.t.t.t.t.t.t.t.t.t.t.t.t.t.t.t.t.t.t.t.t.t.t.H p p                                 ",
"                                  Z.Z.Z.Z.Z.Z.Z.C.t.1.t.t.t.t.t.t.t.t.t.t.t.t.t.t.t.t.t.t.t.t.t.t.t.t.t.t.t.t.t.t.t.t.t.1.j p p p p                             ",
"                                  Z.Z.Z.Z.Z.Z.Z.Z.u.1.t.t.t.t.t.t.t.t.t.t.t.t.t.t.t.t.t.t.t.t.t.t.t.t.t.t.t.t.t.t.t.t.t.>.d p p p p p p p                       ",
"                                  Z.Z.Z.Z.Z.Z.Z.Z.x.>.t.t.t.t.t.t.t.t.t.t.t.t.t.t.t.t.t.t.t.t.t.t.t.t.t.t.t.t.t.t.t.t.t.| p p p p p p p p p                     ",
"                                    Z.Z.Z.Z.Z.Z.Z.m.*.1.t.t.t.t.t.t.t.t.t.t.t.t.t.t.t.t.t.t.t.t.t.t.t.t.t.t.t.t.t.t.t.t.R p p p p p p p p p p                   ",
"                                    Z.Z.Z.Z.Z.Z.Z.m.( *.t.t.t.t.t.t.t.t.t.t.t.t.t.t.t.t.t.t.t.t.t.t.t.t.t.t.t.t.t.t.t.1.j p p p p p p p p p p                   ",
"                                    Z.Z.Z.Z.Z.Z.Z.m.R ! 1.t.t.t.t.t.t.t.t.t.t.t.t.t.t.t.t.t.t.t.t.t.t.t.t.t.t.t.t.t.t.o.d p p p p p p p p p p                   ",
"                                    Z.Z.Z.Z.Z.Z.Z.u.I N ( 1.t.t.t.t.t.t.t.t.t.t.t.t.t.t.t.t.t.t.t.t.t.t.t.t.t.t.t.t.t.H p p p p p p p p p p p                   ",
"                                      Z.Z.Z.Z.Z.m.~ N N N ( 1.t.t.t.t.t.t.t.t.t.t.t.t.t.t.t.t.t.t.t.t.t.t.t.t.t.t.t.t.    p p p p p p p p p p                   ",
"                                          Z.Z.    N N N N N R *.1.t.t.t.t.t.t.t.t.t.t.t.t.t.t.t.t.t.t.t.t.t.t.t.t.t.            p p p p p p                     ",
"                                                    N N N N N I ^ *.1.t.t.t.t.t.t.t.t.t.t.t.t.t.t.t.t.t.t.t.t.t.t.t.                                            ",
"                                                      R I N N N N N R ( X.*.1.1.1.t.t.t.t.t.t.t.t.t.t.t.t.t.t.t.t.                                              ",
"                                                      X.>.( R N N N N N N I R R ( ( *.*.>.1.1.1.1.1.1.1.1.>.*.*.                                                ",
"                                                    g ( u.1.1.*.( R R I N N N N N N N N I R R R R R R R R R                                                     ",
"                                                    f N *.t.t.t.t.1.1.*.(   N N N I R I N N N N I I I N                                                         ",
"                                                    f f N *.t.t.t.t.t.t.          *.1.*.*.*.*.*.*.>.                                                            ",
"                                                      f f z X.t.t.t.t.            t.t.t.t.t.t.t.t.u.                                                            ",
"                                                        f f k ! X.X.              t.t.t.t.t.t.t.t.t.                                                            ",
"                                                          f f f g                 *.1.t.t.t.t.t.u.1.                                                            ",
"                                                                                  z ( 1.1.1.t.1.1.R                                                             ",
"                                                                                    g N I I I I z f                                                             ",
"                                                                                    f f f f f f f                                                               ",
"                                                                                                                                                                ",
"                                                                                                                                                                ",
"                                                                                                                                                                ",
"                                                                                                                                                                ",
"                                                                                                                                                                ",
"                                                                                                                                                                ",
"                                                                                                                                                                ",
"                                                                                                                                                                ",
"                                                                                                                                                                ",
"                                                                                                                                                                ",
"                                                                                                                                                                ",
"                                                                                                                                                                ",
"                                                                                                                                                                ",
"                                                                                                                                                                ",
"                                                                                                                                                                ",
"                                                                                                                                                                ",
"                                                                                                                                                                ",
"                                                                                                                                                                ",
"                                                                                                                                                                ",
"                                                                                                                                                                ",
"                                                                                                                                                                "
};
