/* XPM */
static char *_629_7a5cd10c158f16fc7b7be1c3a0c323ef838914e16fe3c7664d1fe50f8878121e_13[] = {
/* columns rows colors chars-per-pixel */
"80 80 256 2 ",
"   c None",
".  c #8A1D1D",
"X  c #8A1E1D",
"o  c #8B1D1E",
"O  c #8A1E1E",
"+  c #8B1E1E",
"@  c #8C1E1E",
"#  c #8D1F1F",
"$  c #8E1F1F",
"%  c #8E201F",
"&  c #8F2020",
"*  c #902120",
"=  c #912121",
"-  c #922121",
";  c #932222",
":  c #962323",
">  c #982524",
",  c #9F2828",
"<  c #A52B2B",
"1  c #A62C2B",
"2  c #A62C2C",
"3  c #AB2F2E",
"4  c #AC2F2E",
"5  c #AC302F",
"6  c #AF3130",
"7  c #B33332",
"8  c #B53433",
"9  c #B83634",
"0  c #B93635",
"q  c #BA3635",
"w  c #BE3937",
"e  c #C03A38",
"r  c #C13A39",
"t  c #C23B39",
"y  c #C33B3A",
"u  c #E03636",
"i  c #E13838",
"p  c #E23A39",
"a  c #E33B3A",
"s  c #E73A38",
"d  c #E73B39",
"f  c #E33C3B",
"g  c #E73C39",
"h  c #E73C3A",
"j  c #E53F3E",
"k  c #E83D3B",
"l  c #E83E3C",
"z  c #E83F3D",
"x  c #CB403E",
"c  c #CC403E",
"v  c #CD413F",
"b  c #CE413F",
"n  c #E5403F",
"m  c #E9403E",
"M  c #E9413E",
"N  c #E9413F",
"B  c #E9423F",
"V  c #EA423F",
"C  c #CF4240",
"Z  c #D14341",
"A  c #D24341",
"S  c #D24441",
"D  c #D44542",
"F  c #D64543",
"G  c #D74644",
"H  c #D94745",
"J  c #DA4846",
"K  c #DB4846",
"L  c #DF4A47",
"P  c #DF4B48",
"I  c #E74442",
"U  c #E94240",
"Y  c #EA4240",
"T  c #EA4340",
"R  c #EA4341",
"E  c #EA4441",
"W  c #EB4441",
"Q  c #EA4542",
"!  c #EB4542",
"~  c #EA4543",
"^  c #EB4643",
"/  c #E84644",
"(  c #E84745",
")  c #E94745",
"_  c #EB4744",
"`  c #EC4744",
"'  c #EC4844",
"]  c #EC4845",
"[  c #EC4846",
"{  c #EC4946",
"}  c #EC4A46",
"|  c #EC4A47",
" . c #E24C49",
".. c #E44D4A",
"X. c #E64E4B",
"o. c #E74F4C",
"O. c #EB4B49",
"+. c #EC4A48",
"@. c #ED4A48",
"#. c #EC4B48",
"$. c #ED4B48",
"%. c #ED4C49",
"&. c #ED4C4A",
"*. c #EC4D4A",
"=. c #ED4D4A",
"-. c #EC4E4C",
";. c #EE4F4C",
":. c #E9504D",
">. c #EA504D",
",. c #EB504E",
"<. c #ED504C",
"1. c #ED504D",
"2. c #EE504D",
"3. c #EC514E",
"4. c #EE504E",
"5. c #EE514E",
"6. c #EF514E",
"7. c #ED524F",
"8. c #EE524F",
"9. c #EF524F",
"0. c #EF534F",
"q. c #EE5350",
"w. c #EF5350",
"e. c #EF5450",
"r. c #EF5451",
"t. c #EF5551",
"y. c #EF5552",
"u. c #F05350",
"i. c #F05450",
"p. c #F05451",
"a. c #F15451",
"s. c #F05552",
"d. c #F05652",
"f. c #F05653",
"g. c #F05753",
"h. c #F05855",
"j. c #F05955",
"k. c #F05956",
"l. c #F15956",
"z. c #F05A56",
"x. c #F15A56",
"c. c #F15B57",
"v. c #F15B58",
"b. c #F15C58",
"n. c #F15D59",
"m. c #F15D5A",
"M. c #F15E5A",
"N. c #F2605C",
"B. c #F2605D",
"V. c #F2615D",
"C. c #F2625E",
"Z. c #F3625E",
"A. c #F3635F",
"S. c #F36460",
"D. c #F36461",
"F. c #F36561",
"G. c black",
"H. c black",
"J. c black",
"K. c black",
"L. c black",
"P. c black",
"I. c black",
"U. c black",
"Y. c black",
"T. c black",
"R. c black",
"E. c black",
"W. c black",
"Q. c black",
"!. c black",
"~. c black",
"^. c black",
"/. c black",
"(. c black",
"). c black",
"_. c black",
"`. c black",
"'. c black",
"]. c black",
"[. c black",
"{. c black",
"}. c black",
"|. c black",
" X c black",
".X c black",
"XX c black",
"oX c black",
"OX c black",
"+X c black",
"@X c black",
"#X c black",
"$X c black",
"%X c black",
"&X c black",
"*X c black",
"=X c black",
"-X c black",
";X c black",
":X c black",
">X c black",
",X c black",
"<X c black",
"1X c black",
"2X c black",
"3X c black",
"4X c black",
"5X c black",
"6X c black",
"7X c black",
"8X c black",
"9X c black",
"0X c black",
"qX c black",
"wX c black",
"eX c black",
"rX c black",
"tX c black",
"yX c black",
"uX c black",
"iX c black",
"pX c black",
"aX c black",
"sX c black",
"dX c black",
"fX c black",
"gX c black",
"hX c black",
"jX c black",
"kX c black",
"lX c black",
"zX c black",
"xX c black",
"cX c black",
"vX c black",
"bX c black",
"nX c black",
"mX c black",
"MX c black",
"NX c black",
"BX c black",
"VX c black",
"CX c black",
"ZX c black",
"AX c black",
"SX c black",
"DX c black",
"FX c black",
"GX c black",
"HX c black",
"JX c black",
"KX c black",
"LX c black",
"PX c black",
"IX c black",
"UX c black",
/* pixels */
"                                                                                                                                                                ",
"                                                                                                                                                                ",
"                                                                                                                                                                ",
"                                                                                                                                                                ",
"                                                                                                                                                                ",
"                                                                                                                                                                ",
"                                                                                                                                                                ",
"                                                                                                                                                                ",
"                                                                                                                                                                ",
"                                                                                                                                                                ",
"                                                                                                                                                                ",
"                                                                      w.w.w.w.w.w.w.w.w.                                                                        ",
"                                                                w.w.w.w.w.w.w.w.w.w.w.w.w.w.w.w.w.                                                              ",
"                                                            %.w.w.w.w.w.w.w.w.w.w.w.w.w.w.w.w.w.w.w.w.w.w.                                                      ",
"                                                        V } 5.w.w.w.w.w.w.w.w.w.w.w.w.w.w.w.w.w.w.w.w.w.w.w.w.                                                  ",
"                                                      V ^ 5.w.w.w.w.w.w.w.w.w.w.w.w.w.w.w.w.w.w.w.w.w.w.w.w.w.w.                                                ",
"                                                    V V %.w.w.w.w.w.w.w.w.w.w.w.w.w.w.w.w.w.w.w.w.w.w.w.w.w.w.w.w.                                              ",
"                                                  V V ^ 5.w.w.w.w.w.w.w.w.w.w.w.w.w.w.w.w.w.w.w.w.w.w.w.w.w.w.w.w.w.                                            ",
"                                                  V V %.w.w.w.w.w.w.w.w.w.w.w.w.w.w.w.w.w.w.w.w.w.w.w.w.w.w.w.w.w.w.w.                                          ",
"                                                V V ^ 5.w.w.w.w.w.w.w.w.w.w.w.w.w.w.w.w.w.w.w.w.w.w.w.w.w.w.w.w.w.w.w.w.                                        ",
"                                                V V _ 5.w.w.w.w.w.w.w.w.w.w.w.w.w.w.w.w.w.w.w.w.w.w.w.w.w.w.w.w.w.w.w.w.w.                                      ",
"                                                V V } w.w.w.w.w.w.w.w.w.w.w.w.u.f.u.f.w.w.w.w.w.w.w.w.w.w.w.w.w.w.w.w.w.w.                                      ",
"                                              V V V %.w.w.w.w.w.w.w.w.w.w.w.u.o.v t Z >.w.w.w.w.w.w.w.w.w.w.w.w.w.w.w.w.w.w.                                    ",
"                                              V V T ;.w.w.w.w.w.w.w.w.w.w.u...3 @ @ = 8 >.w.w.w.w.w.w.w.w.w.w.w.f.f.f.w.w.w.                                    ",
"                                              V V ^ 5.w.w.w.w.w.w.w.w.w.w.w.t + + @ + % v f.w.w.w.w.w.w.w.w.w.5.S t C >.u.w.                                    ",
"                                              V V ^ 5.w.w.w.w.w.w.w.w.w.w.5.5 + @ @ @ + q w.w.w.w.w.w.w.w.w.5.w = + & q 5.w.                                    ",
"                                              V T %.f.y.w.w.w.w.w.w.w.w.w.w.8 + + @ @ + t u.w.w.w.w.w.w.w.f.K : + @ + = H f.                                    ",
"                                            V } j.V.V.V.j.y.w.w.w.w.w.w.w.u.G > + + + , P u.w.w.w.w.w.w.w.f.x @ @ @ @ @ v f.                                    ",
"                                            } m.F.F.F.F.F.m.w.w.w.w.w.w.w.w.w.F 6 < 7 K w.w.w.w.w.w.w.w.w.f.Z & @ @ + = F f.                                    ",
"                                            v.F.F.F.F.F.F.V.f.w.w.w.w.w.w.w.w.u.5.>.5.u.w.w.w.w.w.w.w.w.w.w.o.2 + + + 4 >.w.                                    ",
"                                            F.F.F.F.F.F.F.F.j.5.w.w.w.w.w.w.w.w.w.w.w.w.w.w.w.w.w.w.w.w.w.w.u.L 8 1 q  .u.w.                                    ",
"                                          F.F.F.F.F.F.F.F.F.j.5.w.w.w.w.w.w.w.w.w.w.w.w.w.w.w.w.w.w.w.w.w.w.w.u.5.>.5.u.w.w.                                    ",
"                                          F.F.F.F.F.F.F.F.V.f.w.w.w.w.w.w.w.w.w.w.w.w.w.w.w.w.w.w.w.w.w.w.w.w.w.w.u.w.w.w.w.                                    ",
"                                          F.F.F.F.F.F.F.F.m.w.w.w.w.w.w.w.w.w.w.w.w.w.w.w.w.w.w.w.w.w.w.w.w.w.w.w.w.w.w.w.w.                                    ",
"                                        F.F.F.F.F.F.F.F.V.f.w.w.w.w.w.w.w.w.w.w.w.w.w.w.w.w.w.w.w.w.w.w.w.w.w.w.w.w.w.w.w.5.                                    ",
"                                        F.F.F.F.F.F.F.F.m.y.w.w.w.w.w.w.w.w.w.w.w.w.w.w.w.w.w.w.w.w.w.w.w.w.w.w.w.w.w.w.w.O.                                    ",
"                                      F.F.F.F.F.F.F.F.S.j.w.w.w.w.w.w.w.w.w.w.w.w.w.w.w.w.w.w.w.w.w.w.w.w.w.w.w.w.w.w.w.w.I                                     ",
"                                      F.F.F.F.F.F.F.F.F.j.w.w.w.w.w.w.w.w.w.w.w.w.w.w.w.w.w.w.w.w.w.w.w.w.w.w.w.w.w.w.w.5.j                                     ",
"                                        F.F.F.F.F.F.F.F.V.y.w.w.w.w.w.w.w.w.w.w.w.w.w.w.w.w.w.w.w.w.w.w.w.w.w.w.w.w.w.w.5.i                                     ",
"                                        F.F.F.F.F.F.F.F.F.j.w.w.w.w.w.w.w.w.w.w.w.w.w.w.w.w.w.w.w.w.w.w.w.w.w.w.w.w.w.w.%.i u u                                 ",
"                                          F.F.F.F.F.F.F.F.V.y.w.w.w.w.w.w.w.w.w.w.w.w.w.w.w.w.w.w.w.w.w.w.w.w.w.w.w.w.w._ u u u u                               ",
"                                          F.F.F.F.F.F.F.F.F.j.w.w.w.w.w.w.w.w.w.w.w.w.w.w.w.w.w.w.w.w.w.w.w.w.w.w.w.w.5.n u u u u u u                           ",
"                                            F.F.F.F.F.F.F.F.j.w.w.w.w.w.w.w.w.w.w.w.w.w.w.w.w.w.w.w.w.w.w.w.w.w.w.w.w.;.i u u u u u u u                         ",
"                                            F.F.F.F.F.F.F.F.j.w.w.w.w.w.w.w.w.w.w.w.w.w.w.w.w.w.w.w.w.w.w.w.w.w.w.w.w._ u u u u u u u u                         ",
"                                              F.F.F.F.F.F.V.f.w.w.w.w.w.w.w.w.w.w.w.w.w.w.w.w.w.w.w.w.w.w.w.w.w.w.w.5.f u u u u u u u u                         ",
"                                                F.F.F.F.V.5.} 5.w.w.w.w.w.w.w.w.w.w.w.w.w.w.w.w.w.w.w.w.w.w.w.w.w.w._ u u u u u u u u u                         ",
"                                                  V.j.y.} V V ^ %.5.w.w.w.w.w.w.w.w.w.w.w.w.w.w.w.w.w.w.w.w.w.w.w.w.  u u u u u u u u u                         ",
"                                                      V V V V V V ^ } %.5.5.w.w.w.w.w.w.w.w.w.w.w.w.w.w.w.w.w.w.w.        u u u u u u                           ",
"                                                        V V V V V V V V ^ ^ } +.%.;.5.5.5.w.w.w.w.w.w.w.w.5.5.;.              u u                               ",
"                                                              ^ ^ T V V V V V V V T ^ ^ ^ } } } +.+.+.+.} } ^                                                   ",
"                                                              ^ 5.;.%.} _ ^ ^ T V V V V V V V V V V V V V                                                       ",
"                                                              k } 5.w.w.5.5.5.;.%.%.+.} } } ` ^ V V                                                             ",
"                                                              d d l ^ %.5.5.5.w.w.w.w.w.w.w.w.5.                                                                ",
"                                                                d d d h V T T 5.w.w.w.w.w.w.w.w.                                                                ",
"                                                                      d d d V 5.w.w.w.w.w.w.w.w.                                                                ",
"                                                                              ;.w.w.w.w.w.w.w.%.                                                                ",
"                                                                              T ;.5.5.5.5.5.+.l                                                                 ",
"                                                                              d l V T T T V k d                                                                 ",
"                                                                                d d d d d d d                                                                   ",
"                                                                                                                                                                ",
"                                                                                                                                                                ",
"                                                                                                                                                                ",
"                                                                                                                                                                ",
"                                                                                                                                                                ",
"                                                                                                                                                                ",
"                                                                                                                                                                ",
"                                                                                                                                                                ",
"                                                                                                                                                                ",
"                                                                                                                                                                ",
"                                                                                                                                                                ",
"                                                                                                                                                                ",
"                                                                                                                                                                ",
"                                                                                                                                                                ",
"                                                                                                                                                                ",
"                                                                                                                                                                ",
"                                                                                                                                                                ",
"                                                                                                                                                                ",
"                                                                                                                                                                ",
"                                                                                                                                                                ",
"                                                                                                                                                                "
};
