/* XPM */
static char *_629_7a5cd10c158f16fc7b7be1c3a0c323ef838914e16fe3c7664d1fe50f8878121e_14[] = {
/* columns rows colors chars-per-pixel */
"80 80 256 2 ",
"   c None",
".  c #8A1D1D",
"X  c #8B1D1D",
"o  c #8B1D1E",
"O  c #8B1E1E",
"+  c #8C1E1E",
"@  c #8D1E1F",
"#  c #8E1F1F",
"$  c #8E1F20",
"%  c #912121",
"&  c #922121",
"*  c #942222",
"=  c #962323",
"-  c #972424",
";  c #9A2625",
":  c #9D2727",
">  c #A12929",
",  c #A42B2A",
"<  c #A92D2D",
"1  c #AA2E2D",
"2  c #AB2F2E",
"3  c #B23331",
"4  c #B53433",
"5  c #B83634",
"6  c #BB3735",
"7  c #BF3938",
"8  c #C13B39",
"9  c #C23B39",
"0  c #C43C3A",
"q  c #C53D3B",
"w  c #C73E3C",
"e  c #C83E3D",
"r  c #C83F3D",
"t  c #CA3F3D",
"y  c #E03536",
"u  c #E03636",
"i  c #E13637",
"p  c #E13838",
"a  c #E23839",
"s  c #E73A39",
"d  c #E73B39",
"f  c #E53F3E",
"g  c #E83D3B",
"h  c #E83E3C",
"j  c #CD413F",
"k  c #CE413F",
"l  c #E6413F",
"z  c #E9413E",
"x  c #E9413F",
"c  c #E9423F",
"v  c #EA423F",
"b  c #D34442",
"n  c #D84744",
"m  c #D84745",
"M  c #DA4846",
"N  c #DC4946",
"B  c #DE4A47",
"V  c #DF4B48",
"C  c #E64140",
"Z  c #E74544",
"A  c #EA4240",
"S  c #EA4340",
"D  c #EA4441",
"F  c #EB4441",
"G  c #E84442",
"H  c #EB4542",
"J  c #EB4643",
"K  c #EB4743",
"L  c #E94745",
"P  c #EB4744",
"I  c #EC4744",
"U  c #EB4845",
"Y  c #EC4845",
"T  c #EC4946",
"R  c #ED4A47",
"E  c #EC4B47",
"W  c #E34C4A",
"Q  c #E34D4A",
"!  c #E44D4A",
"~  c #E44D4B",
"^  c #E54D4B",
"/  c #E54E4B",
"(  c #E64E4B",
")  c #EB4B49",
"_  c #EC4B48",
"`  c #ED4B48",
"'  c #EB4C4A",
"]  c #ED4C49",
"[  c #ED4D49",
"{  c #ED4D4A",
"}  c #ED4E4B",
"|  c #EE4E4B",
" . c #EE4F4C",
".. c #E9504D",
"X. c #EA504D",
"o. c #EB514E",
"O. c #EE504C",
"+. c #EE504D",
"@. c #EE514D",
"#. c #EC514E",
"$. c #EE514E",
"%. c #EF514E",
"&. c #ED524F",
"*. c #EE524F",
"=. c #EF524F",
"-. c #EF5250",
";. c #EE5350",
":. c #EF5350",
">. c #EF5451",
",. c #EF5551",
"<. c #EF5552",
"1. c #EF5653",
"2. c #F05350",
"3. c #F05450",
"4. c #F05451",
"5. c #F05652",
"6. c #F05653",
"7. c #F05753",
"8. c #F05754",
"9. c #F05855",
"0. c #F05955",
"q. c #F05956",
"w. c #F05A56",
"e. c #F15B57",
"r. c #F15C58",
"t. c #F15C59",
"y. c #F15D59",
"u. c #F15D5A",
"i. c #F15E5A",
"p. c #F15E5B",
"a. c #F25E5B",
"s. c #F2605C",
"d. c #F2605D",
"f. c #F2615D",
"g. c #F2625E",
"h. c #F3625E",
"j. c #F3625F",
"k. c #F3635F",
"l. c #F36460",
"z. c black",
"x. c black",
"c. c black",
"v. c black",
"b. c black",
"n. c black",
"m. c black",
"M. c black",
"N. c black",
"B. c black",
"V. c black",
"C. c black",
"Z. c black",
"A. c black",
"S. c black",
"D. c black",
"F. c black",
"G. c black",
"H. c black",
"J. c black",
"K. c black",
"L. c black",
"P. c black",
"I. c black",
"U. c black",
"Y. c black",
"T. c black",
"R. c black",
"E. c black",
"W. c black",
"Q. c black",
"!. c black",
"~. c black",
"^. c black",
"/. c black",
"(. c black",
"). c black",
"_. c black",
"`. c black",
"'. c black",
"]. c black",
"[. c black",
"{. c black",
"}. c black",
"|. c black",
" X c black",
".X c black",
"XX c black",
"oX c black",
"OX c black",
"+X c black",
"@X c black",
"#X c black",
"$X c black",
"%X c black",
"&X c black",
"*X c black",
"=X c black",
"-X c black",
";X c black",
":X c black",
">X c black",
",X c black",
"<X c black",
"1X c black",
"2X c black",
"3X c black",
"4X c black",
"5X c black",
"6X c black",
"7X c black",
"8X c black",
"9X c black",
"0X c black",
"qX c black",
"wX c black",
"eX c black",
"rX c black",
"tX c black",
"yX c black",
"uX c black",
"iX c black",
"pX c black",
"aX c black",
"sX c black",
"dX c black",
"fX c black",
"gX c black",
"hX c black",
"jX c black",
"kX c black",
"lX c black",
"zX c black",
"xX c black",
"cX c black",
"vX c black",
"bX c black",
"nX c black",
"mX c black",
"MX c black",
"NX c black",
"BX c black",
"VX c black",
"CX c black",
"ZX c black",
"AX c black",
"SX c black",
"DX c black",
"FX c black",
"GX c black",
"HX c black",
"JX c black",
"KX c black",
"LX c black",
"PX c black",
"IX c black",
"UX c black",
/* pixels */
"                                                                                                                                                                ",
"                                                                                                                                                                ",
"                                                                                                                                                                ",
"                                                                                                                                                                ",
"                                                                                                                                                                ",
"                                                                                                                                                                ",
"                                                                                                                                                                ",
"                                                                                                                                                                ",
"                                                                                                                                                                ",
"                                                                                                                                                                ",
"                                                                                                                                                                ",
"                                                                    :.:.:.:.:.:.:.:.:.:.:.:.:.                                                                  ",
"                                                              @.:.:.:.:.:.:.:.:.:.:.:.:.:.:.:.:.:.:.:.                                                          ",
"                                                          D  .:.:.:.:.:.:.:.:.:.:.:.:.:.:.:.:.:.:.:.:.:.:.:.                                                    ",
"                                                        S } :.:.:.:.:.:.:.:.:.:.:.:.:.:.:.:.:.:.:.:.:.:.:.:.:.                                                  ",
"                                                      v Y @.:.:.:.:.:.:.:.:.:.:.:.:.:.:.:.:.:.:.:.:.:.:.:.:.:.:.:.                                              ",
"                                                    v D @.:.:.:.:.:.:.:.:.:.:.:.:.:.:.:.:.:.:.:.:.:.:.:.:.:.:.:.:.:.                                            ",
"                                                  v v Y :.:.:.:.:.:.:.:.:.:.:.:.:.:.:.:.:.:.:.:.:.:.:.:.:.:.:.:.:.:.:.                                          ",
"                                                  v S } :.:.:.:.:.:.:.:.:.:.:.:.:.:.:.:.:.:.:.:.:.:.:.:.:.:.:.:.:.:.:.:.                                        ",
"                                                v v D @.:.:.:.:.:.:.:.:.:.:.:.:.:.:.:.:.:.:.:.:.:.:.:.:.:.:.:.:.:.:.:.:.                                        ",
"                                                v v Y :.:.:.:.:.:.:.:.:.:.:.:.:.:.:.:.:.:.:.:.:.:.:.:.:.:.:.:.:.:.:.:.:.:.                                      ",
"                                                v v _ :.:.:.:.:.:.:.:.:.:.:.:.:.2.@.@.:.:.:.:.:.:.:.:.:.:.:.:.:.:.:.:.:.:.                                      ",
"                                              v v S } :.:.:.:.:.:.:.:.:.:.:.:.o.w < < 0 o.:.:.:.:.:.:.:.:.:.:.:.:.:.:.:.:.:.                                    ",
"                                              v v D @.:.:.:.:.:.:.:.:.:.:.:.@.7 + . . + 5 @.:.:.:.:.:.:.:.:.:.:.2.@.o.:.:.:.                                    ",
"                                              v v D @.:.:.:.:.:.:.:.:.:.:.2.W ; . + + . - V 4.:.:.:.:.:.:.:.:.2.N 3 < r @.:.                                    ",
"                                              v v I @.:.:.:.:.:.:.:.:.:.:.4.N = . + + + & m 4.:.:.:.:.:.:.:.2./ , . . & b 4.                                    ",
"                                            v v v _ e.e.e.1.:.:.:.:.:.:.:.2./ > . + + . : / 2.:.:.:.:.:.:.:.4.k $ + + . 5 :.                                    ",
"                                            v v _ y.l.l.d.d.8.:.:.:.:.:.:.:.:.k - + + = r :.:.:.:.:.:.:.:.:.2.0 + + + . 4 :.                                    ",
"                                            v D y.l.l.l.l.l.d.1.:.:.:.:.:.:.:.:.M 9 9 m @.:.:.:.:.:.:.:.:.:.4.k + + + + w 4.                                    ",
"                                            v @.l.l.l.l.l.l.l.e.:.:.:.:.:.:.:.:.4.4.4.4.:.:.:.:.:.:.:.:.:.:.2.( < + + < / 2.                                    ",
"                                            v 1.l.l.l.l.l.l.l.y.:.:.:.:.:.:.:.:.:.:.:.:.:.:.:.:.:.:.:.:.:.:.:.2./ w r / :.:.                                    ",
"                                            D e.l.l.l.l.l.l.l.y.:.:.:.:.:.:.:.:.:.:.:.:.:.:.:.:.:.:.:.:.:.:.:.:.2.4.4.2.:.:.                                    ",
"                                            D y.l.l.l.l.l.l.l.e.:.:.:.:.:.:.:.:.:.:.:.:.:.:.:.:.:.:.:.:.:.:.:.:.:.:.:.:.:.:.                                    ",
"                                            Y d.l.l.l.l.l.l.d.8.:.:.:.:.:.:.:.:.:.:.:.:.:.:.:.:.:.:.:.:.:.:.:.:.:.:.:.:.:.:.                                    ",
"                                            } d.l.l.l.l.l.l.d.4.:.:.:.:.:.:.:.:.:.:.:.:.:.:.:.:.:.:.:.:.:.:.:.:.:.:.:.:.:.:.                                    ",
"                                            @.l.l.l.l.l.l.l.d.1.:.:.:.:.:.:.:.:.:.:.:.:.:.:.:.:.:.:.:.:.:.:.:.:.:.:.:.:.:.                                      ",
"                                            1.l.l.l.l.l.l.l.d.e.:.:.:.:.:.:.:.:.:.:.:.:.:.:.:.:.:.:.:.:.:.:.:.:.:.:.:.:.:.                                      ",
"                                            1.l.l.l.l.l.l.l.l.d.e.:.:.:.:.:.:.:.:.:.:.:.:.:.:.:.:.:.:.:.:.:.:.:.:.:.:.:.:.                                      ",
"                                            @.l.l.l.l.l.l.l.l.l.d.e.:.:.:.:.:.:.:.:.:.:.:.:.:.:.:.:.:.:.:.:.:.:.:.:.:.:.:.                                      ",
"                                            Y y.l.l.l.l.l.l.l.l.l.d.4.:.:.:.:.:.:.:.:.:.:.:.:.:.:.:.:.:.:.:.:.:.:.:.:.:.:.                                      ",
"                                            v } d.l.l.l.l.l.l.l.l.l.y.:.:.:.:.:.:.:.:.:.:.:.:.:.:.:.:.:.:.:.:.:.:.:.:.:.                                        ",
"                                              v } d.l.l.l.l.l.l.l.l.d.1.:.:.:.:.:.:.:.:.:.:.:.:.:.:.:.:.:.:.:.:.:.:.:.@.l                                       ",
"                                              v v } d.l.l.l.l.l.l.l.d.1.:.:.:.:.:.:.:.:.:.:.:.:.:.:.:.:.:.:.:.:.:.:.:.) p                                       ",
"                                                v v @.d.l.l.l.l.l.l.y.:.:.:.:.:.:.:.:.:.:.:.:.:.:.:.:.:.:.:.:.:.:.:.:.C u u                                     ",
"                                                v v S @.d.l.l.l.l.d.4.:.:.:.:.:.:.:.:.:.:.:.:.:.:.:.:.:.:.:.:.:.:.:.' p u u                                     ",
"                                                  v v S } e.y.y.y.4.:.:.:.:.:.:.:.:.:.:.:.:.:.:.:.:.:.:.:.:.:.:.:.@.f u u u u                                   ",
"                                                    v v v D D D I } @.:.:.:.:.:.:.:.:.:.:.:.:.:.:.:.:.:.:.:.:.:.:.Z u u u u u                                   ",
"                                                      v v v v v v v D Y _ } @.@.@.:.:.:.:.:.:.:.:.:.:.:.:.:.:.@.L p u u u u u                                   ",
"                                                          v v v v v v v v S D D I Y _ } } @.@.@.@.@.@.@.@. .} D p u u u u u                                     ",
"                                                                v v v S v v v v v v v S S S D D D D D D D S     u u u u u                                       ",
"                                                                      } } _ Y L D D D S S S v v v v v v                                                         ",
"                                                                      :.:.:.:.@.@.@.@. .} Y v g                                                                 ",
"                                                                      :.:.:.:.:.:.:.:.@.v g d d                                                                 ",
"                                                                      :.:.:.:.:.:.:.:.@.h d d                                                                   ",
"                                                                      :.:.:.:.:.:.:.:.@.                                                                        ",
"                                                                      } :.:.:.:.:.:.:.}                                                                         ",
"                                                                      v } @.@.@.@.@.} v                                                                         ",
"                                                                      d g v S S S v h d                                                                         ",
"                                                                        d d d d d d d                                                                           ",
"                                                                                                                                                                ",
"                                                                                                                                                                ",
"                                                                                                                                                                ",
"                                                                                                                                                                ",
"                                                                                                                                                                ",
"                                                                                                                                                                ",
"                                                                                                                                                                ",
"                                                                                                                                                                ",
"                                                                                                                                                                ",
"                                                                                                                                                                ",
"                                                                                                                                                                ",
"                                                                                                                                                                ",
"                                                                                                                                                                ",
"                                                                                                                                                                ",
"                                                                                                                                                                ",
"                                                                                                                                                                ",
"                                                                                                                                                                ",
"                                                                                                                                                                ",
"                                                                                                                                                                ",
"                                                                                                                                                                ",
"                                                                                                                                                                "
};
