/* XPM */
static char *_629_7a5cd10c158f16fc7b7be1c3a0c323ef838914e16fe3c7664d1fe50f8878121e_15[] = {
/* columns rows colors chars-per-pixel */
"80 80 256 2 ",
"   c None",
".  c #8A1D1D",
"X  c #8B1D1D",
"o  c #8B1E1D",
"O  c #8B1E1E",
"+  c #8C1D1E",
"@  c #8C1E1E",
"#  c #8C1F1E",
"$  c #8D1F1E",
"%  c #8D1E1F",
"&  c #902020",
"*  c #912120",
"=  c #912021",
"-  c #922121",
";  c #932221",
":  c #932222",
">  c #942222",
",  c #9B2625",
"<  c #9B2626",
"1  c #9D2727",
"2  c #A12929",
"3  c #A62C2B",
"4  c #A92D2D",
"5  c #AD302F",
"6  c #AE302F",
"7  c #AF3030",
"8  c #B53433",
"9  c #B63534",
"0  c #B83534",
"q  c #B93634",
"w  c #BB3736",
"e  c #BD3837",
"r  c #BE3937",
"t  c #C33C3A",
"y  c #C43C3A",
"u  c #C83E3D",
"i  c #E03636",
"p  c #E13737",
"a  c #E33938",
"s  c #E73B39",
"d  c #E73C3A",
"f  c #E53D3C",
"g  c #E73E3C",
"h  c #E83D3B",
"j  c #E83E3B",
"k  c #E83E3C",
"l  c #CB403E",
"z  c #CC403E",
"x  c #CD413F",
"c  c #E9403D",
"v  c #E9403E",
"b  c #E9413E",
"n  c #E9423F",
"m  c #EA423F",
"M  c #CF4240",
"N  c #D24341",
"B  c #D24442",
"V  c #D34442",
"C  c #D84644",
"Z  c #D84744",
"A  c #D94745",
"S  c #DE4A48",
"D  c #DF4A48",
"F  c #E74341",
"G  c #E94240",
"H  c #EA4340",
"J  c #EA4441",
"K  c #EB4441",
"L  c #EA4542",
"P  c #EB4542",
"I  c #EB4543",
"U  c #EB4643",
"Y  c #E84544",
"T  c #EB4744",
"R  c #EB4745",
"E  c #EC4845",
"W  c #EC4946",
"Q  c #EC4A47",
"!  c #E34C4A",
"~  c #E54D4B",
"^  c #E64E4B",
"/  c #E64E4C",
"(  c #EC4A48",
")  c #EC4B48",
"_  c #ED4B48",
"`  c #ED4C49",
"'  c #ED4D4A",
"]  c #ED4E4B",
"[  c #ED4F4B",
"{  c #EE4E4B",
"}  c #EE4F4C",
"|  c #E9504D",
" . c #EA504D",
".. c #EA514E",
"X. c #EB514E",
"o. c #EE504D",
"O. c #EC514E",
"+. c #EE504E",
"@. c #EE514E",
"#. c #EF514E",
"$. c #EC524F",
"%. c #ED524F",
"&. c #EE524E",
"*. c #EF524F",
"=. c #EF5250",
"-. c #EF5350",
";. c #EF5450",
":. c #EF5451",
">. c #EF5552",
",. c #EF5652",
"<. c #EF5653",
"1. c #F05350",
"2. c #F05450",
"3. c #F05451",
"4. c #F05652",
"5. c #F05653",
"6. c #F05854",
"7. c #F05855",
"8. c #F05955",
"9. c #F15955",
"0. c #F15A56",
"q. c #F05A57",
"w. c #F15A57",
"e. c #F15B57",
"r. c #F15C59",
"t. c #F15D5A",
"y. c #F15E5A",
"u. c #F25F5B",
"i. c #F25F5C",
"p. c #F2605C",
"a. c #F2615D",
"s. c #F2625E",
"d. c #F3625E",
"f. c #F2625F",
"g. c #F3625F",
"h. c #F3635F",
"j. c #F3645F",
"k. c #F36360",
"l. c #F36460",
"z. c #F36560",
"x. c #F36461",
"c. c #F36561",
"v. c black",
"b. c black",
"n. c black",
"m. c black",
"M. c black",
"N. c black",
"B. c black",
"V. c black",
"C. c black",
"Z. c black",
"A. c black",
"S. c black",
"D. c black",
"F. c black",
"G. c black",
"H. c black",
"J. c black",
"K. c black",
"L. c black",
"P. c black",
"I. c black",
"U. c black",
"Y. c black",
"T. c black",
"R. c black",
"E. c black",
"W. c black",
"Q. c black",
"!. c black",
"~. c black",
"^. c black",
"/. c black",
"(. c black",
"). c black",
"_. c black",
"`. c black",
"'. c black",
"]. c black",
"[. c black",
"{. c black",
"}. c black",
"|. c black",
" X c black",
".X c black",
"XX c black",
"oX c black",
"OX c black",
"+X c black",
"@X c black",
"#X c black",
"$X c black",
"%X c black",
"&X c black",
"*X c black",
"=X c black",
"-X c black",
";X c black",
":X c black",
">X c black",
",X c black",
"<X c black",
"1X c black",
"2X c black",
"3X c black",
"4X c black",
"5X c black",
"6X c black",
"7X c black",
"8X c black",
"9X c black",
"0X c black",
"qX c black",
"wX c black",
"eX c black",
"rX c black",
"tX c black",
"yX c black",
"uX c black",
"iX c black",
"pX c black",
"aX c black",
"sX c black",
"dX c black",
"fX c black",
"gX c black",
"hX c black",
"jX c black",
"kX c black",
"lX c black",
"zX c black",
"xX c black",
"cX c black",
"vX c black",
"bX c black",
"nX c black",
"mX c black",
"MX c black",
"NX c black",
"BX c black",
"VX c black",
"CX c black",
"ZX c black",
"AX c black",
"SX c black",
"DX c black",
"FX c black",
"GX c black",
"HX c black",
"JX c black",
"KX c black",
"LX c black",
"PX c black",
"IX c black",
"UX c black",
/* pixels */
"                                                                                                                                                                ",
"                                                                                                                                                                ",
"                                                                                                                                                                ",
"                                                                                                                                                                ",
"                                                                                                                                                                ",
"                                                                                                                                                                ",
"                                                                                                                                                                ",
"                                                                                                                                                                ",
"                                                                                                                                                                ",
"                                                                                                                                                                ",
"                                                                                                                                                                ",
"                                                                            -.-.                                                                                ",
"                                                                  -.-.-.-.-.-.-.-.-.-.-.-.-.-.                                                                  ",
"                                                            _ +.-.-.-.-.-.-.-.-.-.-.-.-.-.-.-.-.-.-.-.                                                          ",
"                                                          T +.-.-.-.-.-.-.-.-.-.-.-.-.-.-.-.-.-.-.-.-.-.-.-.                                                    ",
"                                                      m U } -.-.-.-.-.-.-.-.-.-.-.-.-.-.-.-.-.-.-.-.-.-.-.-.-.-.                                                ",
"                                                    m m _ -.-.-.-.-.-.-.-.-.-.-.-.-.-.-.-.-.-.-.-.-.-.-.-.-.-.-.-.                                              ",
"                                                    m U +.-.-.-.-.-.-.-.-.-.-.-.-.-.-.-.-.-.-.-.-.-.-.-.-.-.-.-.-.-.                                            ",
"                                                  m m Q -.-.-.-.-.-.-.-.-.-.-.-.-.-.-.-.-.-.-.-.-.-.-.-.-.-.-.-.-.-.-.                                          ",
"                                                m m H } -.-.-.-.-.-.-.-.-.-.-.-.-.-.-.-.-.-.-.-.-.-.-.-.-.-.-.-.-.-.-.-.                                        ",
"                                                m m U +.-.-.-.-.-.-.-.-.-.-.-.-.-.-.-.-.-.-.-.-.-.-.-.-.-.-.-.-.-.-.-.-.                                        ",
"                                                m m Q -.-.-.-.-.-.-.-.-.-.-.-.-.-.-.1.-.-.-.-.-.-.-.-.-.-.-.-.-.-.-.-.-.-.                                      ",
"                                              m m m ] -.-.-.-.-.-.-.-.-.-.-.-.-.1.+./  .-.-.-.-.-.-.-.-.-.-.-.-.-.-.-.-.-.                                      ",
"                                              m m H } -.-.-.-.-.-.-.-.-.-.-.-.-.C 6 1 3 x +.-.-.-.-.-.-.-.-.-.-.-.1.1.-.-.-.                                    ",
"                                              m m U +.-.-.-.-.-.-.-.-.-.-.-.1.D 1 . . . & M 1.-.-.-.-.-.-.-.-.-.-.^ ! +.-.-.                                    ",
"                                              m m U +.-.-.-.-.-.-.-.-.-.-.-.5.y $ $ $ $ . 6 +.-.-.-.-.-.-.-.-.-.M 2 < w  .-.                                    ",
"                                              m m Q +.-.-.-.-.-.-.-.-.-.-.-.1.e . $ $ $ . 4 +.-.-.-.-.-.-.-.1.S < . . & x 5.                                    ",
"                                            m m m Q >.8.8.8.5.-.-.-.-.-.-.-.5.V & . $ $ $ e -.-.-.-.-.-.-.-.5.u $ $ $ . 9 -.                                    ",
"                                            m m m ] d.d.z.z.d.8.-.-.-.-.-.-.-. .e > $ & 7 ^ 1.-.-.-.-.-.-.-.5.t $ $ $ . w -.                                    ",
"                                            m m U 8.z.z.z.z.z.d.8.-.-.-.-.-.-.-.+.A l V  .1.-.-.-.-.-.-.-.-.5.N & . . & M 5.                                    ",
"                                            m m _ d.z.z.z.z.z.z.t.-.-.-.-.-.-.-.-.1.5.5.-.-.-.-.-.-.-.-.-.-.-. .8 & & w  .-.                                    ",
"                                            m m +.z.z.j.j.z.z.z.i.>.-.-.-.-.-.-.-.-.-.-.-.-.-.-.-.-.-.-.-.-.-.1. .A A  .-.-.                                    ",
"                                            m m ] d.z.z.z.z.z.z.d.>.-.-.-.-.-.-.-.-.-.-.-.-.-.-.-.-.-.-.-.-.-.-.-.5.5.-.-.-.                                    ",
"                                            m m ] d.z.z.z.z.z.z.d.>.-.-.-.-.-.-.-.-.-.-.-.-.-.-.-.-.-.-.-.-.-.-.-.-.-.-.-.-.                                    ",
"                                            m m ] d.z.z.z.z.z.z.d.>.-.-.-.-.-.-.-.-.-.-.-.-.-.-.-.-.-.-.-.-.-.-.-.-.-.-.-.-.                                    ",
"                                            m m ] d.z.z.z.z.z.z.d.>.-.-.-.-.-.-.-.-.-.-.-.-.-.-.-.-.-.-.-.-.-.-.-.-.-.-.-.                                      ",
"                                            m m _ d.z.z.z.k.z.z.k.8.>.-.-.-.-.-.-.-.-.-.-.-.-.-.-.-.-.-.-.-.-.-.-.-.-.-.-.                                      ",
"                                            m m _ d.z.z.z.z.z.k.z.k.t.>.-.-.-.-.-.-.-.-.-.-.-.-.-.-.-.-.-.-.-.-.-.-.-.-.-.                                      ",
"                                            m m Q d.z.z.z.z.z.z.z.z.z.d.8.-.-.-.-.-.-.-.-.-.-.-.-.-.-.-.-.-.-.-.-.-.-.-.-.                                      ",
"                                            m m U t.z.z.z.z.z.z.z.z.z.z.d.8.-.-.-.-.-.-.-.-.-.-.-.-.-.-.-.-.-.-.-.-.-.-.-.                                      ",
"                                            m m m +.j.z.z.z.z.z.z.z.z.z.z.i.>.-.-.-.-.-.-.-.-.-.-.-.-.-.-.-.-.-.-.-.-.-.-.                                      ",
"                                            m m m U >.d.z.z.z.z.z.z.z.z.z.d.5.-.-.-.-.-.-.-.-.-.-.-.-.-.-.-.-.-.-.-.-.-.                                        ",
"                                              m m m U >.d.z.z.z.z.z.z.z.z.d.5.-.-.-.-.-.-.-.-.-.-.-.-.-.-.-.-.-.-.-.-.-.                                        ",
"                                              m m m m U >.t.z.z.k.z.z.z.z.d.>.-.-.-.-.-.-.-.-.-.-.-.-.-.-.-.-.-.-.-.-.-.                                        ",
"                                                m m m m U +.t.d.z.z.z.z.d.8.-.-.-.-.-.-.-.-.-.-.-.-.-.-.-.-.-.-.-.-.-.                                          ",
"                                                m m m m m U } 8.i.d.d.i.8.-.-.-.-.-.-.-.-.-.-.-.-.-.-.-.-.-.-.-.-.-.-.                                          ",
"                                                  m m m m m U Q +.5.5.>.-.-.-.-.-.-.-.-.-.-.-.-.-.-.-.-.-.-.-.-.-.+.                                            ",
"                                                    m m m m m m U Q ] +.-.-.-.-.-.-.-.-.-.-.-.-.-.-.-.-.-.-.-.-.+.T                                             ",
"                                                        m m m m m m H U Q _ ] +.+.+.-.-.-.-.-.-.-.-.-.-.-.-.-.+.F i                                             ",
"                                                          H U U m m m m m m H H U U Q Q _ ] ] } } +.} } } ] T g i                                               ",
"                                                            +.+.] Q T U H m m m m m m m m m m H H H H H m g a i                                                 ",
"                                                            -.-.-.-.+.+.+.] Q m m m m m U U U U U U m k h                                                       ",
"                                                          -.-.-.-.-.-.-.-.-.            Q } } _ U m d s                                                         ",
"                                                          +.-.-.-.-.-.-.-.-.            k H m h s s s                                                           ",
"                                                          ] -.-.-.-.-.-.-.-.              s s s s                                                               ",
"                                                          H +.-.-.-.-.-.-.+.                                                                                    ",
"                                                          s m U _ } +.+.] U                                                                                     ",
"                                                          s s s s h m m h                                                                                       ",
"                                                                s s s s                                                                                         ",
"                                                                                                                                                                ",
"                                                                                                                                                                ",
"                                                                                                                                                                ",
"                                                                                                                                                                ",
"                                                                                                                                                                ",
"                                                                                                                                                                ",
"                                                                                                                                                                ",
"                                                                                                                                                                ",
"                                                                                                                                                                ",
"                                                                                                                                                                ",
"                                                                                                                                                                ",
"                                                                                                                                                                ",
"                                                                                                                                                                ",
"                                                                                                                                                                ",
"                                                                                                                                                                ",
"                                                                                                                                                                ",
"                                                                                                                                                                ",
"                                                                                                                                                                ",
"                                                                                                                                                                ",
"                                                                                                                                                                ",
"                                                                                                                                                                "
};
