/* XPM */
static char *_629_7a5cd10c158f16fc7b7be1c3a0c323ef838914e16fe3c7664d1fe50f8878121e_16[] = {
/* columns rows colors chars-per-pixel */
"80 80 256 2 ",
"   c None",
".  c #8A1D1D",
"X  c #8B1D1D",
"o  c #8B1D1E",
"O  c #8B1E1E",
"+  c #8C1E1E",
"@  c #8D1E1E",
"#  c #8D1F1F",
"$  c #902020",
"%  c #942222",
"&  c #952322",
"*  c #962323",
"=  c #992525",
"-  c #9C2726",
";  c #9D2727",
":  c #9E2727",
">  c #9F2827",
",  c #A62C2B",
"<  c #A72C2C",
"1  c #AB2F2E",
"2  c #AF3130",
"3  c #B13231",
"4  c #B23231",
"5  c #B43432",
"6  c #B63533",
"7  c #B73533",
"8  c #B83534",
"9  c #BB3735",
"0  c #BE3837",
"q  c #BE3937",
"w  c #C23B39",
"e  c #C73D3C",
"r  c #E73A39",
"t  c #E73B39",
"y  c #E73B3A",
"u  c #E73C3A",
"i  c #E83C3B",
"p  c #E83D3C",
"a  c #E83E3D",
"s  c #E83F3D",
"d  c #CB403E",
"f  c #CC413E",
"g  c #E9403E",
"h  c #E9413F",
"j  c #EA423F",
"k  c #D04240",
"l  c #D24341",
"z  c #D24441",
"x  c #D74644",
"c  c #DC4946",
"v  c #DE4947",
"b  c #DF4B48",
"n  c #EA4340",
"m  c #EA4440",
"M  c #EA4441",
"N  c #EB4441",
"B  c #EA4442",
"V  c #EB4542",
"C  c #EA4543",
"Z  c #EB4643",
"A  c #EB4745",
"S  c #EC4744",
"D  c #EB4846",
"F  c #EC4845",
"G  c #EC4946",
"H  c #EC4A47",
"J  c #ED4A47",
"K  c #EC4B47",
"L  c #E04B48",
"P  c #E24C4A",
"I  c #E54D4B",
"U  c #E54E4B",
"Y  c #E64E4C",
"T  c #EC4A48",
"R  c #ED4B48",
"E  c #ED4C48",
"W  c #ED4C49",
"Q  c #ED4D4A",
"!  c #EE4D4A",
"~  c #ED4E4B",
"^  c #EE4E4B",
"/  c #E84F4C",
"(  c #EE4F4C",
")  c #E9504D",
"_  c #EA504D",
"`  c #EA514D",
"'  c #EB514E",
"]  c #EE504C",
"[  c #EE504D",
"{  c #EC514E",
"}  c #EE504E",
"|  c #EE514E",
" . c #EF514E",
".. c #ED524F",
"X. c #EE524F",
"o. c #EF524F",
"O. c #EE534F",
"+. c #EF534F",
"@. c #EE5350",
"#. c #EF5350",
"$. c #EF5450",
"%. c #EF5451",
"&. c #EF5551",
"*. c #EF5552",
"=. c #EF5652",
"-. c #F05350",
";. c #F05450",
":. c #F05451",
">. c #F05552",
",. c #F05652",
"<. c #F05653",
"1. c #F05753",
"2. c #F05754",
"3. c #F05855",
"4. c #F05955",
"5. c #F05A56",
"6. c #F15A56",
"7. c #F15A57",
"8. c #F15B58",
"9. c #F15C58",
"0. c #F15C59",
"q. c #F15D59",
"w. c #F15E5A",
"e. c #F25E5A",
"r. c #F25E5B",
"t. c #F25F5B",
"y. c #F25F5C",
"u. c #F2605C",
"i. c #F2615D",
"p. c #F2625E",
"a. c #F3625E",
"s. c #F3625F",
"d. c #F3635F",
"f. c #F36460",
"g. c black",
"h. c black",
"j. c black",
"k. c black",
"l. c black",
"z. c black",
"x. c black",
"c. c black",
"v. c black",
"b. c black",
"n. c black",
"m. c black",
"M. c black",
"N. c black",
"B. c black",
"V. c black",
"C. c black",
"Z. c black",
"A. c black",
"S. c black",
"D. c black",
"F. c black",
"G. c black",
"H. c black",
"J. c black",
"K. c black",
"L. c black",
"P. c black",
"I. c black",
"U. c black",
"Y. c black",
"T. c black",
"R. c black",
"E. c black",
"W. c black",
"Q. c black",
"!. c black",
"~. c black",
"^. c black",
"/. c black",
"(. c black",
"). c black",
"_. c black",
"`. c black",
"'. c black",
"]. c black",
"[. c black",
"{. c black",
"}. c black",
"|. c black",
" X c black",
".X c black",
"XX c black",
"oX c black",
"OX c black",
"+X c black",
"@X c black",
"#X c black",
"$X c black",
"%X c black",
"&X c black",
"*X c black",
"=X c black",
"-X c black",
";X c black",
":X c black",
">X c black",
",X c black",
"<X c black",
"1X c black",
"2X c black",
"3X c black",
"4X c black",
"5X c black",
"6X c black",
"7X c black",
"8X c black",
"9X c black",
"0X c black",
"qX c black",
"wX c black",
"eX c black",
"rX c black",
"tX c black",
"yX c black",
"uX c black",
"iX c black",
"pX c black",
"aX c black",
"sX c black",
"dX c black",
"fX c black",
"gX c black",
"hX c black",
"jX c black",
"kX c black",
"lX c black",
"zX c black",
"xX c black",
"cX c black",
"vX c black",
"bX c black",
"nX c black",
"mX c black",
"MX c black",
"NX c black",
"BX c black",
"VX c black",
"CX c black",
"ZX c black",
"AX c black",
"SX c black",
"DX c black",
"FX c black",
"GX c black",
"HX c black",
"JX c black",
"KX c black",
"LX c black",
"PX c black",
"IX c black",
"UX c black",
/* pixels */
"                                                                                                                                                                ",
"                                                                                                                                                                ",
"                                                                                                                                                                ",
"                                                                                                                                                                ",
"                                                                                                                                                                ",
"                                                                                                                                                                ",
"                                                                                                                                                                ",
"                                                                                                                                                                ",
"                                                                                                                                                                ",
"                                                                                                                                                                ",
"                                                                                                                                                                ",
"                                                                                                                                                                ",
"                                                                        #.#.#.#.#.#.                                                                            ",
"                                                                #.#.#.#.#.#.#.#.#.#.#.#.#.#.#.#.#.#.                                                            ",
"                                                            E #.#.#.#.#.#.#.#.#.#.#.#.#.#.#.#.#.#.#.#.#.#.                                                      ",
"                                                        j G #.#.#.#.#.#.#.#.#.#.#.#.#.#.#.#.#.#.#.#.#.#.#.#.#.                                                  ",
"                                                      j V ] #.#.#.#.#.#.#.#.#.#.#.#.#.#.#.#.#.#.#.#.#.#.#.#.#.#.                                                ",
"                                                    j n E #.#.#.#.#.#.#.#.#.#.#.#.#.#.#.#.#.#.#.#.#.#.#.#.#.#.#.#.#.                                            ",
"                                                  j j G ] #.#.#.#.#.#.#.#.#.#.#.#.#.#.#.#.#.#.#.#.#.#.#.#.#.#.#.#.#.#.                                          ",
"                                                  j j E #.#.#.#.#.#.#.#.#.#.#.#.#.#.#.#.#.#.#.#.#.#.#.#.#.#.#.#.#.#.#.                                          ",
"                                                j j V ] #.#.#.#.#.#.#.#.#.#.#.#.#.#.#.#.#.#.#.#.#.#.#.#.#.#.#.#.#.#.#.#.                                        ",
"                                                j j S ] #.#.#.#.#.#.#.#.#.#.#.#.#.#.#.#.#.#.#.#.#.#.#.#.#.#.#.#.#.#.#.#.#.                                      ",
"                                                j j G #.#.#.#.#.#.#.#.#.#.#.#.#.#.#.#.,.,.#.#.#.#.#.#.#.#.#.#.#.#.#.#.#.#.                                      ",
"                                              j j j E #.#.#.#.#.#.#.#.#.#.#.#.#.#.-.) c c ] #.#.#.#.#.#.#.#.#.#.#.#.#.#.#.                                      ",
"                                              j j V ] #.#.#.#.#.#.#.#.#.#.#.#.#.#.P 2 % % 5 / -.#.#.#.#.#.#.#.#.#.#.,.,.#.#.                                    ",
"                                              j j V ] #.#.#.#.#.#.#.#.#.#.#.#.#.] 5 O O O @ e -.#.#.#.#.#.#.#.#.*.) l x ] #.                                    ",
"                                              j j V ] #.#.#.#.#.#.#.#.#.#.#.#.-.U - O @ @ O 4 ] #.#.#.#.#.#.#.#.) 5 $ % e -.                                    ",
"                                            j j j G #.#.#.#.#.#.#.#.#.#.#.#.#.-.U - O @ @ O 4 #.#.#.#.#.#.#.#.,.z $ O O , )                                     ",
"                                            j j j G #.*.7.e.e.7.*.#.#.#.#.#.#.#.] 4 O O O $ f ,.#.#.#.#.#.#.#.-.q O @ O > U                                     ",
"                                            j j j E ,.a.f.f.f.f.e.*.#.#.#.#.#.#.-.b 1 % = q ) #.#.#.#.#.#.#.#.-.q O @ O , )                                     ",
"                                            j j j E e.f.f.f.f.f.f.e.#.#.#.#.#.#.#.-.) c L ] #.#.#.#.#.#.#.#.#.,.l $ O @ w -.                                    ",
"                                            j j n ] a.f.f.f.f.f.f.a.*.#.#.#.#.#.#.#.#.,.-.#.#.#.#.#.#.#.#.#.#.#.) 8 > 8 / -.                                    ",
"                                            j j n ] a.f.f.f.f.f.f.a.7.#.#.#.#.#.#.#.#.#.#.#.#.#.#.#.#.#.#.#.#.#.#.] Y ] #.#.                                    ",
"                                            j j n ] a.f.f.f.f.f.f.f.e.#.#.#.#.#.#.#.#.#.#.#.#.#.#.#.#.#.#.#.#.#.#.#.-.#.#.#.                                    ",
"                                            j j n ( e.f.f.f.f.f.f.f.a.*.#.#.#.#.#.#.#.#.#.#.#.#.#.#.#.#.#.#.#.#.#.#.#.#.#.#.                                    ",
"                                            j j n ( 7.f.f.f.f.f.f.f.a.7.*.#.#.#.#.#.#.#.#.#.#.#.#.#.#.#.#.#.#.#.#.#.#.#.#.#.                                    ",
"                                          j j j n ( 2.a.f.f.f.f.f.f.f.a.e.7.*.#.#.#.#.#.#.#.#.#.#.#.#.#.#.#.#.#.#.#.#.#.#.                                      ",
"                                            j j j E *.a.f.f.f.f.f.f.f.f.f.f.a.e.,.#.#.#.#.#.#.#.#.#.#.#.#.#.#.#.#.#.#.#.#.                                      ",
"                                            j j j T *.e.f.f.f.f.f.f.f.f.f.f.f.f.e.*.#.#.#.#.#.#.#.#.#.#.#.#.#.#.#.#.#.#.#.                                      ",
"                                            j j j G ] 7.a.f.f.f.f.f.f.f.f.f.f.f.f.8.#.#.#.#.#.#.#.#.#.#.#.#.#.#.#.#.#.#.#.                                      ",
"                                            j j j V ] *.a.f.f.f.f.f.f.f.f.f.f.f.f.e.*.#.#.#.#.#.#.#.#.#.#.#.#.#.#.#.#.#.#.                                      ",
"                                            j j j j E #.2.a.f.f.f.f.f.f.f.f.f.f.f.e.*.#.#.#.#.#.#.#.#.#.#.#.#.#.#.#.#.#.#.                                      ",
"                                              j j j V ] #.2.e.a.f.f.f.f.f.f.f.f.f.e.#.#.#.#.#.#.#.#.#.#.#.#.#.#.#.#.#.#.                                        ",
"                                              j j j j G #.#.#.,.8.a.a.f.f.f.f.f.a.,.#.#.#.#.#.#.#.#.#.#.#.#.#.#.#.#.#.#.                                        ",
"                                              j j j j n E #.#.#.#.*.7.e.a.a.a.e.2.#.#.#.#.#.#.#.#.#.#.#.#.#.#.#.#.#.#.#.                                        ",
"                                                j j j j V E #.#.#.#.#.#.,.2.,.*.#.#.#.#.#.#.#.#.#.#.#.#.#.#.#.#.#.#.#.                                          ",
"                                                  j j j j n T ] #.#.#.#.#.#.#.#.#.#.#.#.#.#.#.#.#.#.#.#.#.#.#.#.#.#.                                            ",
"                                                    j j j j j V E ] #.#.#.#.#.#.#.#.#.#.#.#.#.#.#.#.#.#.#.#.#.#.#.#.                                            ",
"                                                      V j j j j j V G E ] ] #.#.#.#.#.#.#.#.#.#.#.#.#.#.#.#.#.#.#.                                              ",
"                                                      ] G V j j j j j n V V G T E ( ] ] ] ] #.#.#.#.#.#.#.] ] ] D                                               ",
"                                                    #.#.#.] E G V n j j j j j j j n V V V G G G G G G G G G T E j                                               ",
"                                                  ( #.#.#.#.#.#.] E E G n j j j j j j j j j j j j j j V G E ( V y                                               ",
"                                                s E #.#.#.#.#.#.#.#.#.              j j j j j j V G E ] ] G s y y                                               ",
"                                                y A #.#.#.#.#.#.#.#.#.                            G E T j y y y                                                 ",
"                                                y i D ] #.#.#.#.#.#.                                u y y y                                                     ",
"                                                  y y V ] #.#.#.#.                                                                                              ",
"                                                    y y j E ] E                                                                                                 ",
"                                                      y y i s                                                                                                   ",
"                                                                                                                                                                ",
"                                                                                                                                                                ",
"                                                                                                                                                                ",
"                                                                                                                                                                ",
"                                                                                                                                                                ",
"                                                                                                                                                                ",
"                                                                                                                                                                ",
"                                                                                                                                                                ",
"                                                                                                                                                                ",
"                                                                                                                                                                ",
"                                                                                                                                                                ",
"                                                                                                                                                                ",
"                                                                                                                                                                ",
"                                                                                                                                                                ",
"                                                                                                                                                                ",
"                                                                                                                                                                ",
"                                                                                                                                                                ",
"                                                                                                                                                                ",
"                                                                                                                                                                ",
"                                                                                                                                                                ",
"                                                                                                                                                                ",
"                                                                                                                                                                "
};
