/* XPM */
static char *_629_7a5cd10c158f16fc7b7be1c3a0c323ef838914e16fe3c7664d1fe50f8878121e_17[] = {
/* columns rows colors chars-per-pixel */
"80 80 256 2 ",
"   c None",
".  c #8A1D1D",
"X  c #8B1D1D",
"o  c #8C1D1D",
"O  c #8C1E1E",
"+  c #8D1E1E",
"@  c #8E1F1F",
"#  c #8F1F1F",
"$  c #912020",
"%  c #922121",
"&  c #942222",
"*  c #952323",
"=  c #962323",
"-  c #982424",
";  c #9F2828",
":  c #A02928",
">  c #A32A29",
",  c #A32A2A",
"<  c #A52B2A",
"1  c #AF312F",
"2  c #AF3130",
"3  c #B23231",
"4  c #B43332",
"5  c #B93634",
"6  c #BA3635",
"7  c #BC3736",
"8  c #BC3836",
"9  c #BD3836",
"0  c #C03A38",
"q  c #C33B3A",
"w  c #C73E3C",
"e  c #CA3F3D",
"r  c #E73B39",
"t  c #E73C3A",
"y  c #E83C3A",
"u  c #E83D3B",
"i  c #E83E3B",
"p  c #E83E3C",
"a  c #E83F3D",
"s  c #E93F3D",
"d  c #E9403D",
"f  c #E9413F",
"g  c #EA423F",
"h  c #CE4240",
"j  c #CF4240",
"k  c #D14341",
"l  c #D24441",
"z  c #D44442",
"x  c #D74644",
"c  c #D94745",
"v  c #DA4845",
"b  c #DB4846",
"n  c #E94240",
"m  c #EA4240",
"M  c #EA4340",
"N  c #EB4340",
"B  c #EA4341",
"V  c #EB4341",
"C  c #EB4441",
"Z  c #EB4442",
"A  c #EB4542",
"S  c #EB4543",
"D  c #EB4643",
"F  c #EB4744",
"G  c #EB4745",
"H  c #EC4744",
"J  c #EC4845",
"K  c #EC4846",
"L  c #EC4946",
"P  c #EC4A47",
"I  c #ED4A47",
"U  c #E14C49",
"Y  c #E34D4A",
"T  c #E44D4A",
"R  c #E64E4B",
"E  c #E74F4C",
"W  c #ED4B48",
"Q  c #ED4B49",
"!  c #ED4C49",
"~  c #ED4C4A",
"^  c #ED4D4A",
"/  c #EE4D4A",
"(  c #ED4E4B",
")  c #EE4E4B",
"_  c #EE4F4B",
"`  c #E84F4D",
"'  c #EE4F4C",
"]  c #EE4F4D",
"[  c #EA504D",
"{  c #EA514E",
"}  c #EB514E",
"|  c #EE504D",
" . c #EE514D",
".. c #EE514E",
"X. c #EF514E",
"o. c #ED524F",
"O. c #EF524E",
"+. c #EE524F",
"@. c #EF524F",
"#. c #EE534F",
"$. c #EE5350",
"%. c #EF5350",
"&. c #EF5450",
"*. c #EF5451",
"=. c #EF5551",
"-. c #EF5552",
";. c #F05350",
":. c #F05450",
">. c #F05451",
",. c #F15451",
"<. c #F05551",
"1. c #F05652",
"2. c #F05653",
"3. c #F05754",
"4. c #F05854",
"5. c #F05855",
"6. c #F05955",
"7. c #F05956",
"8. c #F15956",
"9. c #F15A56",
"0. c #F15A57",
"q. c #F15B57",
"w. c #F15C58",
"e. c #F15C59",
"r. c #F15D59",
"t. c #F25D5A",
"y. c #F25E5A",
"u. c #F25E5B",
"i. c #F25F5B",
"p. c #F2605C",
"a. c #F2605D",
"s. c #F2615D",
"d. c #F2625E",
"f. c #F3625E",
"g. c #F3625F",
"h. c #F3635F",
"j. c #F36360",
"k. c #F36460",
"l. c black",
"z. c black",
"x. c black",
"c. c black",
"v. c black",
"b. c black",
"n. c black",
"m. c black",
"M. c black",
"N. c black",
"B. c black",
"V. c black",
"C. c black",
"Z. c black",
"A. c black",
"S. c black",
"D. c black",
"F. c black",
"G. c black",
"H. c black",
"J. c black",
"K. c black",
"L. c black",
"P. c black",
"I. c black",
"U. c black",
"Y. c black",
"T. c black",
"R. c black",
"E. c black",
"W. c black",
"Q. c black",
"!. c black",
"~. c black",
"^. c black",
"/. c black",
"(. c black",
"). c black",
"_. c black",
"`. c black",
"'. c black",
"]. c black",
"[. c black",
"{. c black",
"}. c black",
"|. c black",
" X c black",
".X c black",
"XX c black",
"oX c black",
"OX c black",
"+X c black",
"@X c black",
"#X c black",
"$X c black",
"%X c black",
"&X c black",
"*X c black",
"=X c black",
"-X c black",
";X c black",
":X c black",
">X c black",
",X c black",
"<X c black",
"1X c black",
"2X c black",
"3X c black",
"4X c black",
"5X c black",
"6X c black",
"7X c black",
"8X c black",
"9X c black",
"0X c black",
"qX c black",
"wX c black",
"eX c black",
"rX c black",
"tX c black",
"yX c black",
"uX c black",
"iX c black",
"pX c black",
"aX c black",
"sX c black",
"dX c black",
"fX c black",
"gX c black",
"hX c black",
"jX c black",
"kX c black",
"lX c black",
"zX c black",
"xX c black",
"cX c black",
"vX c black",
"bX c black",
"nX c black",
"mX c black",
"MX c black",
"NX c black",
"BX c black",
"VX c black",
"CX c black",
"ZX c black",
"AX c black",
"SX c black",
"DX c black",
"FX c black",
"GX c black",
"HX c black",
"JX c black",
"KX c black",
"LX c black",
"PX c black",
"IX c black",
"UX c black",
/* pixels */
"                                                                                                                                                                ",
"                                                                                                                                                                ",
"                                                                                                                                                                ",
"                                                                                                                                                                ",
"                                                                                                                                                                ",
"                                                                                                                                                                ",
"                                                                                                                                                                ",
"                                                                                                                                                                ",
"                                                                                                                                                                ",
"                                                                                                                                                                ",
"                                                                                                                                                                ",
"                                                                                                                                                                ",
"                                                                                                                                                                ",
"                                                                    %.%.%.%.%.%.%.%.%.%.%.%.                                                                    ",
"                                                               .%.%.%.%.%.%.%.%.%.%.%.%.%.%.%.%.%.%.%.                                                          ",
"                                                          C ' %.%.%.%.%.%.%.%.%.%.%.%.%.%.%.%.%.%.%.%.%.%.                                                      ",
"                                                        M _ %.%.%.%.%.%.%.%.%.%.%.%.%.%.%.%.%.%.%.%.%.%.%.%.%.                                                  ",
"                                                      g L %.%.%.%.%.%.%.%.%.%.%.%.%.%.%.%.%.%.%.%.%.%.%.%.%.%.%.%.                                              ",
"                                                    g C  .%.%.%.%.%.%.%.%.%.%.%.%.%.%.%.%.%.%.%.%.%.%.%.%.%.%.%.%.%.                                            ",
"                                                  g g L %.%.%.%.%.%.%.%.%.%.%.%.%.%.%.%.%.%.%.%.%.%.%.%.%.%.%.%.%.%.%.                                          ",
"                                                  g M _ %.%.%.%.%.%.%.%.%.%.%.%.%.%.%.%.%.%.%.%.%.%.%.%.%.%.%.%.%.%.%.%.                                        ",
"                                                g g C  .%.%.%.%.%.%.%.%.%.%.%.%.%.%.%.%.%.%.%.%.%.%.%.%.%.%.%.%.%.%.%.%.                                        ",
"                                                g g L %.%.%.%.%.%.%.%.%.%.%.%.%.%.%.%.%.%.%.%.%.%.%.%.%.%.%.%.%.%.%.%.%.%.                                      ",
"                                              g g g _ %.%.%.%.%.%.%.%.%.%.%.%.%.%.%.%.1.1.1.%.%.%.%.%.%.%.%.%.%.%.%.%.%.%.                                      ",
"                                              g g M _ %.%.%.%.%.%.%.%.%.%.%.%.%.%.;.[ l 0 l [ %.%.%.%.%.%.%.%.%.%.%.%.%.%.%.                                    ",
"                                              g g C  .%.%.%.%.%.%.%.%.%.%.%.%.%.%. .9 % O % 7  .%.%.%.%.%.%.%.%.%.;. .%.%.%.                                    ",
"                                              g g C  .%.%.%.%.%.%.%.%.%.%.%.%.%.1.c = . O . = v 1.%.%.%.%.%.%.%.%.c 4 9 R 1.                                    ",
"                                              g g G %.%.%.%.%.%.%.%.%.%.%.%.%.%.1.e O O O O O j 1.%.%.%.%.%.%.;.U ; . O 9 %.                                    ",
"                                            g g g L %.%.%.%.&.&.%.%.%.%.%.%.%.%.1.j O O O O % x 1.%.%.%.%.%.%.;.w O O . , `                                     ",
"                                            g g g W %.%.1.e.p.p.e.3.%.%.%.%.%.%.;.R , . . O 1 [ %.%.%.%.%.%.%.;.5 . O . , E                                     ",
"                                            g g g _ %.1.p.k.k.k.k.p.6.%.%.%.%.%.%.%.b 3 < 5 U ;.%.%.%.%.%.%.%.;.0 O O . 2  .                                    ",
"                                            g g M _ &.e.k.k.k.k.k.k.p.&.%.%.%.%.%.%.;. .[ %.;.%.%.%.%.%.%.%.%.1.v - . = z ;.                                    ",
"                                            g g M ' &.p.k.k.k.k.k.k.k.6.%.%.%.%.%.%.%.%.%.%.%.%.%.%.%.%.%.%.%.%.%.z 9 z  .%.                                    ",
"                                            g g C ' &.p.k.k.k.k.k.k.k.p.1.%.%.%.%.%.%.%.%.%.%.%.%.%.%.%.%.%.%.%.%.;.%.;.%.%.                                    ",
"                                            g g M  .&.e.k.k.k.k.k.k.k.k.6.%.%.%.%.%.%.%.%.%.%.%.%.%.%.%.%.%.%.%.%.%.%.%.%.%.                                    ",
"                                            g g C ' %.6.p.k.k.k.k.k.k.k.p.6.&.&.%.%.%.%.%.%.%.%.%.%.%.%.%.%.%.%.%.%.%.%.%.%.                                    ",
"                                            g g M ' %.&.i.k.k.k.k.k.k.k.k.p.p.e.e.6.&.%.%.%.%.%.%.%.%.%.%.%.%.%.%.%.%.%.%.%.                                    ",
"                                          g g g M ' %.%.6.k.k.k.k.k.k.k.k.k.k.k.k.j.e.1.%.%.%.%.%.%.%.%.%.%.%.%.%.%.%.%.%.                                      ",
"                                            g g g _ %.%.&.p.k.k.k.k.k.k.k.k.k.k.k.k.k.e.&.%.%.%.%.%.%.%.%.%.%.%.%.%.%.%.%.                                      ",
"                                            g g g L %.%.%.6.k.k.k.k.k.k.k.k.k.k.k.k.k.p.1.%.%.%.%.%.%.%.%.%.%.%.%.%.%.%.%.                                      ",
"                                            g g g G  .%.%.1.p.k.k.k.k.k.k.k.k.k.k.k.k.k.6.%.%.%.%.%.%.%.%.%.%.%.%.%.%.%.%.                                      ",
"                                            g g g M ' %.%.%.6.p.k.k.k.k.k.k.k.k.k.k.k.p.3.%.%.%.%.%.%.%.%.%.%.%.%.%.%.%.%.                                      ",
"                                            g g g g L %.%.%.&.6.p.k.k.k.k.k.k.k.k.k.k.i.&.%.%.%.%.%.%.%.%.%.%.%.%.%.%.%.                                        ",
"                                              g g g C  .%.%.%.%.1.6.e.e.p.p.k.k.k.k.p.3.%.%.%.%.%.%.%.%.%.%.%.%.%.%.%.%.                                        ",
"                                              g g g g H  .%.%.%.%.%.%.&.&.3.6.e.e.6.1.%.%.%.%.%.%.%.%.%.%.%.%.%.%.%.%.%.                                        ",
"                                                g g g g L  .%.%.%.%.%.%.%.%.%.%.&.%.%.%.%.%.%.%.%.%.%.%.%.%.%.%.%.%.%.                                          ",
"                                                g g g g g L  .%.%.%.%.%.%.%.%.%.%.%.%.%.%.%.%.%.%.%.%.%.%.%.%.%.%.%.%.                                          ",
"                                                L C g g g g C _  .%.%.%.%.%.%.%.%.%.%.%.%.%.%.%.%.%.%.%.%.%.%.%.%.%.                                            ",
"                                              g '  .C g g g g M L _  .%.%.%.%.%.%.%.%.%.%.%.%.%.%.%.%.%.%.%.%.%.%._                                             ",
"                                            r M  .%. .L M g g g g M C L W _  . . .%.%.%.%.%.%.%.%.%.%.%.%.%.%.%.%._ i                                           ",
"                                            r a  .%.%. .' L C g g g g g g M C C L L _ _ _  . . . . . . . .' _  .%.W t                                           ",
"                                            r r K %.%.%.%.%. ._ L C M g g g g g g g g g M M C C C C C C C H _ %. .g r                                           ",
"                                              r g  .%.%.%.%.%.%.%. .      g g g g g g g g g g g g g C L _  .%. .M r r                                           ",
"                                              r r G %.%.%.%.%.%.                                    ' %.&.&. .M r r                                             ",
"                                                r a _  . .%.                                          _ _ _ M r r                                               ",
"                                                r r i M                                                 i i r r                                                 ",
"                                                                                                                                                                ",
"                                                                                                                                                                ",
"                                                                                                                                                                ",
"                                                                                                                                                                ",
"                                                                                                                                                                ",
"                                                                                                                                                                ",
"                                                                                                                                                                ",
"                                                                                                                                                                ",
"                                                                                                                                                                ",
"                                                                                                                                                                ",
"                                                                                                                                                                ",
"                                                                                                                                                                ",
"                                                                                                                                                                ",
"                                                                                                                                                                ",
"                                                                                                                                                                ",
"                                                                                                                                                                ",
"                                                                                                                                                                ",
"                                                                                                                                                                ",
"                                                                                                                                                                ",
"                                                                                                                                                                ",
"                                                                                                                                                                ",
"                                                                                                                                                                ",
"                                                                                                                                                                ",
"                                                                                                                                                                "
};
