/* XPM */
static char *_629_7a5cd10c158f16fc7b7be1c3a0c323ef838914e16fe3c7664d1fe50f8878121e_1[] = {
/* columns rows colors chars-per-pixel */
"80 80 256 2 ",
"   c None",
".  c #8A1D1D",
"X  c #8B1D1D",
"o  c #8B1D1E",
"O  c #8B1E1E",
"+  c #8C1E1E",
"@  c #8E1F1F",
"#  c #922121",
"$  c #932222",
"%  c #952323",
"&  c #972424",
"*  c #992525",
"=  c #9A2625",
"-  c #9B2625",
";  c #9F2828",
":  c #A02928",
">  c #A12929",
",  c #A22A29",
"<  c #A82D2C",
"1  c #AB2F2E",
"2  c #AF312F",
"3  c #AF3130",
"4  c #B03130",
"5  c #B23231",
"6  c #B53433",
"7  c #B73534",
"8  c #B93635",
"9  c #BC3736",
"0  c #BB3836",
"q  c #C03A38",
"w  c #C13A39",
"e  c #C33B3A",
"r  c #C63D3B",
"t  c #E73B38",
"y  c #E73B39",
"u  c #E73C39",
"i  c #E73C3A",
"p  c #E83D3A",
"a  c #E83D3B",
"s  c #E83E3B",
"d  c #E83F3C",
"f  c #CB403E",
"g  c #E9403D",
"h  c #EA423F",
"j  c #D34442",
"k  c #D44442",
"l  c #D64644",
"z  c #D74644",
"x  c #DB4846",
"c  c #DC4946",
"v  c #DD4947",
"b  c #DE4A48",
"n  c #EA4240",
"m  c #EA4340",
"M  c #EA4441",
"N  c #EB4441",
"B  c #EB4542",
"V  c #EB4643",
"C  c #EB4744",
"Z  c #EB4745",
"A  c #EC4745",
"S  c #EC4845",
"D  c #EC4846",
"F  c #EC4946",
"G  c #EC4947",
"H  c #EC4A47",
"J  c #ED4A47",
"K  c #E04B48",
"L  c #E34D4A",
"P  c #E44D4A",
"I  c #E54D4B",
"U  c #E64E4C",
"Y  c #EC4A48",
"T  c #ED4A48",
"R  c #ED4B48",
"E  c #ED4C49",
"W  c #ED4C4A",
"Q  c #ED4D4A",
"!  c #ED4D4B",
"~  c #ED4E4B",
"^  c #EE4E4B",
"/  c #E84F4C",
"(  c #E94F4D",
")  c #EE4E4C",
"_  c #EE4F4C",
"`  c #E9504D",
"'  c #EA504D",
"]  c #EE504D",
"[  c #EE514E",
"{  c #EF514E",
"}  c #EC524E",
"|  c #ED524F",
" . c #EE524F",
".. c #EF524F",
"X. c #EE534F",
"o. c #EE5350",
"O. c #EF5350",
"+. c #EF5450",
"@. c #EF5451",
"#. c #EF5551",
"$. c #EF5552",
"%. c #F05350",
"&. c #F05450",
"*. c #F05451",
"=. c #F05552",
"-. c #F05652",
";. c #F05653",
":. c #F05753",
">. c #F05754",
",. c #F05854",
"<. c #F05855",
"1. c #F05955",
"2. c #F05956",
"3. c #F15A57",
"4. c #F15B57",
"5. c #F15B58",
"6. c #F15C58",
"7. c #F15C59",
"8. c #F15D59",
"9. c #F15D5A",
"0. c #F15E5A",
"q. c #F25E5A",
"w. c #F25F5B",
"e. c #F25F5C",
"r. c #F2605C",
"t. c #F2605D",
"y. c #F2615D",
"u. c #F2625E",
"i. c #F3625E",
"p. c #F3625F",
"a. c #F3635F",
"s. c #F36460",
"d. c black",
"f. c black",
"g. c black",
"h. c black",
"j. c black",
"k. c black",
"l. c black",
"z. c black",
"x. c black",
"c. c black",
"v. c black",
"b. c black",
"n. c black",
"m. c black",
"M. c black",
"N. c black",
"B. c black",
"V. c black",
"C. c black",
"Z. c black",
"A. c black",
"S. c black",
"D. c black",
"F. c black",
"G. c black",
"H. c black",
"J. c black",
"K. c black",
"L. c black",
"P. c black",
"I. c black",
"U. c black",
"Y. c black",
"T. c black",
"R. c black",
"E. c black",
"W. c black",
"Q. c black",
"!. c black",
"~. c black",
"^. c black",
"/. c black",
"(. c black",
"). c black",
"_. c black",
"`. c black",
"'. c black",
"]. c black",
"[. c black",
"{. c black",
"}. c black",
"|. c black",
" X c black",
".X c black",
"XX c black",
"oX c black",
"OX c black",
"+X c black",
"@X c black",
"#X c black",
"$X c black",
"%X c black",
"&X c black",
"*X c black",
"=X c black",
"-X c black",
";X c black",
":X c black",
">X c black",
",X c black",
"<X c black",
"1X c black",
"2X c black",
"3X c black",
"4X c black",
"5X c black",
"6X c black",
"7X c black",
"8X c black",
"9X c black",
"0X c black",
"qX c black",
"wX c black",
"eX c black",
"rX c black",
"tX c black",
"yX c black",
"uX c black",
"iX c black",
"pX c black",
"aX c black",
"sX c black",
"dX c black",
"fX c black",
"gX c black",
"hX c black",
"jX c black",
"kX c black",
"lX c black",
"zX c black",
"xX c black",
"cX c black",
"vX c black",
"bX c black",
"nX c black",
"mX c black",
"MX c black",
"NX c black",
"BX c black",
"VX c black",
"CX c black",
"ZX c black",
"AX c black",
"SX c black",
"DX c black",
"FX c black",
"GX c black",
"HX c black",
"JX c black",
"KX c black",
"LX c black",
"PX c black",
"IX c black",
"UX c black",
/* pixels */
"                                                                                                                                                                ",
"                                                                                                                                                                ",
"                                                                                                                                                                ",
"                                                                                                                                                                ",
"                                                                                                                                                                ",
"                                                                                                                                                                ",
"                                                                                                                                                                ",
"                                                                                                                                                                ",
"                                                                                                                                                                ",
"                                                                                                                                                                ",
"                                                                                                                                                                ",
"                                                                                                                                                                ",
"                                                                                                                                                                ",
"                                                                            O.O.O.                                                                              ",
"                                                                  O.O.O.O.O.O.O.O.O.O.O.O.O.O.O.O.                                                              ",
"                                                            T ] O.O.O.O.O.O.O.O.O.O.O.O.O.O.O.O.O.O.O.O.                                                        ",
"                                                          C ] O.O.O.O.O.O.O.O.O.O.O.O.O.O.O.O.O.O.O.O.O.O.O.                                                    ",
"                                                      h B _ O.O.O.O.O.O.O.O.O.O.O.O.O.O.O.O.O.O.O.O.O.O.O.O.O.O.                                                ",
"                                                    h h T O.O.O.O.O.O.O.O.O.O.O.O.O.O.O.O.O.O.O.O.O.O.O.O.O.O.O.O.                                              ",
"                                                    h B ] O.O.O.O.O.O.O.O.O.O.O.O.O.O.O.O.O.O.O.O.O.O.O.O.O.O.O.O.O.O.                                          ",
"                                                  h h T O.O.O.O.O.O.O.O.O.O.O.O.O.O.O.O.O.O.O.O.O.O.O.O.O.O.O.O.O.O.O.                                          ",
"                                                h h m _ O.O.O.O.O.O.O.O.O.O.O.O.O.O.O.O.O.O.O.O.O.O.O.O.O.O.O.O.O.O.O.O.                                        ",
"                                                h h B ] O.O.O.O.O.O.O.O.O.O.O.O.O.O.O.O.O.O.O.O.O.O.O.O.O.O.O.O.O.O.O.O.O.                                      ",
"                                                h h F O.O.O.O.O.O.O.O.O.O.O.O.O.O.O.O.O.O.O.O.O.O.O.O.O.O.O.O.O.O.O.O.O.O.                                      ",
"                                              h h h E O.O.O.O.O.O.O.O.O.O.O.O.O.O.O.O.%.] ] O.O.O.O.O.O.O.O.O.O.O.O.O.O.O.                                      ",
"                                              h h m E O.O.O.O.O.O.O.O.O.O.O.O.O.O.O.O.l 5 < r ` O.O.O.O.O.O.O.O.O.O.%.%.O.O.                                    ",
"                                              h h B ] O.O.O.O.O.O.O.O.O.O.O.O.O.O.=.x * . . @ q O.O.O.O.O.O.O.O.O.O.P P O.O.                                    ",
"                                              h h B ] O.O.O.O.O.O.O.O.O.O.O.O.O.O.O.8 . @ @ . , U %.O.O.O.O.O.O.%.k ; , c =.                                    ",
"                                              h h C ] O.O.O.O.O.O.O.O.O.O.O.O.O.O.O.3 . @ @ . * L %.O.O.O.O.O.O.` < . . 9 O.                                    ",
"                                            h h h F O.O.O.O.#.=.=.=.#.O.O.O.O.O.O.O.9 . @ @ . < ` O.O.O.O.O.O.%.c % . . 2 ]                                     ",
"                                            h h h T O.O.O.=.w.i.i.i.w.#.O.O.O.O.O.%.c , . . * j %.O.O.O.O.O.O.=.l # @ . 6 O.                                    ",
"                                            h h h E O.O.#.w.s.s.s.s.s.w.#.O.O.O.O.O.O.b q q x O.O.O.O.O.O.O.O.=.b & . @ f %.                                    ",
"                                            h h h E O.O.<.i.s.s.s.s.s.s.w.#.O.O.O.O.O.%.%.%.%.O.O.O.O.O.O.O.O.O.] 7 # 5 ( %.                                    ",
"                                            h h h E O.O.w.s.s.s.s.s.s.s.s.w.#.O.O.O.O.O.O.O.O.O.O.O.O.O.O.O.O.O.O.( x ( %.O.                                    ",
"                                            h h m _ O.O.w.s.s.s.s.s.s.s.s.i.5.#.#.O.O.O.O.O.O.O.O.O.O.O.O.O.O.O.O.O.=.O.O.O.                                    ",
"                                            h h m E O.O.<.i.s.s.s.s.s.s.s.s.i.i.w.w.w.<.<.#.O.O.O.O.O.O.O.O.O.O.O.O.O.O.O.O.                                    ",
"                                            h h m _ O.O.#.w.s.s.s.s.s.s.s.s.s.s.s.s.s.s.i.w.#.O.O.O.O.O.O.O.O.O.O.O.O.O.O.O.                                    ",
"                                            h h m _ O.O.O.#.w.s.s.s.s.s.s.s.s.s.s.s.s.s.s.s.w.O.O.O.O.O.O.O.O.O.O.O.O.O.O.O.                                    ",
"                                            h h h E O.O.O.O.=.i.s.s.s.s.s.s.s.s.s.s.s.s.s.s.i.=.O.O.O.O.O.O.O.O.O.O.O.O.O.                                      ",
"                                            h h h T O.O.O.O.O.>.i.s.s.s.s.s.s.s.s.s.s.s.s.s.s.<.O.O.O.O.O.O.O.O.O.O.O.O.O.                                      ",
"                                            h h h F O.O.O.O.O.O.<.i.s.s.s.s.s.s.s.s.s.s.s.s.i.>.O.O.O.O.O.O.O.O.O.O.O.O.O.                                      ",
"                                            h h h B ] O.O.O.O.O.O.<.i.s.s.s.s.s.s.s.s.s.s.s.i.#.O.O.O.O.O.O.O.O.O.O.O.O.O.                                      ",
"                                            h h h h E O.O.O.O.O.O.O.>.w.i.i.i.s.s.s.s.s.s.i.<.O.O.O.O.O.O.O.O.O.O.O.O.O.O.                                      ",
"                                            h h h h C ] O.O.O.O.O.O.O.#.#.=.<.<.<.w.w.w.w.=.O.O.O.O.O.O.O.O.O.O.O.O.O.O.                                        ",
"                                              h h h h E O.O.O.O.O.O.O.O.O.O.O.O.O.O.#.#.O.O.O.O.O.O.O.O.O.O.O.O.O.O.O.O.                                        ",
"                                              h h h h B _ O.O.O.O.O.O.O.O.O.O.O.O.O.O.O.O.O.O.O.O.O.O.O.O.O.O.O.O.O.O.O.                                        ",
"                                                h h h h B _ O.O.O.O.O.O.O.O.O.O.O.O.O.O.O.O.O.O.O.O.O.O.O.O.O.O.O.O.O.                                          ",
"                                                m m h h h B E ] O.O.O.O.O.O.O.O.O.O.O.O.O.O.O.O.O.O.O.O.O.O.O.O.O.O.O.                                          ",
"                                              a T F m h h h m F _ O.O.O.O.O.O.O.O.O.O.O.O.O.O.O.O.O.O.O.O.O.O.O.O.O.                                            ",
"                                            y a ] O.T m h h h h B F E ] ] O.O.O.O.O.O.O.O.O.O.O.O.O.O.O.O.O.O.O.O.O.                                            ",
"                                            y u E O.O.E C m h h h h h B B F E E ] ] ] O.O.O.O.O.O.O.O.O.O.O.] ] O.O.                                            ",
"                                            y y B O.O.O.] E F B m h h h h h h m B B B F F T E E E E E E E T T ] O.O.O.                                          ",
"                                              y d ] O.O.O.O.O.] E T B h h h h h h h h h h h h h m m m m B F ] O.O.O.]                                           ",
"                                              y u F O.O.O.O.O.O.O.              h h h h h h h h h m F E ] O.O.O.O.O.] m                                         ",
"                                                y h _ ] O.O.O.                                      O.#.O.O.O.O.O.O.F a                                         ",
"                                                u u d C                                               ] O.O.O.O.E B a u                                         ",
"                                                                                                      F E ] E B a y y                                           ",
"                                                                                                        a d a y y u                                             ",
"                                                                                                          y y                                                   ",
"                                                                                                                                                                ",
"                                                                                                                                                                ",
"                                                                                                                                                                ",
"                                                                                                                                                                ",
"                                                                                                                                                                ",
"                                                                                                                                                                ",
"                                                                                                                                                                ",
"                                                                                                                                                                ",
"                                                                                                                                                                ",
"                                                                                                                                                                ",
"                                                                                                                                                                ",
"                                                                                                                                                                ",
"                                                                                                                                                                ",
"                                                                                                                                                                ",
"                                                                                                                                                                ",
"                                                                                                                                                                ",
"                                                                                                                                                                ",
"                                                                                                                                                                ",
"                                                                                                                                                                ",
"                                                                                                                                                                ",
"                                                                                                                                                                "
};
