/* XPM */
static char *_629_7a5cd10c158f16fc7b7be1c3a0c323ef838914e16fe3c7664d1fe50f8878121e_2[] = {
/* columns rows colors chars-per-pixel */
"80 80 256 2 ",
"   c None",
".  c #8A1D1D",
"X  c #8B1D1D",
"o  c #8B1D1E",
"O  c #8B1E1E",
"+  c #8C1E1E",
"@  c #8E1F1F",
"#  c #922121",
"$  c #932222",
"%  c #952323",
"&  c #972424",
"*  c #992525",
"=  c #9A2625",
"-  c #9B2625",
";  c #9F2828",
":  c #A02928",
">  c #A12929",
",  c #A22A29",
"<  c #A72D2C",
"1  c #A92E2D",
"2  c #AB2F2E",
"3  c #AF3130",
"4  c #B03130",
"5  c #B13231",
"6  c #B23231",
"7  c #B53433",
"8  c #B73534",
"9  c #B93735",
"0  c #BB3736",
"q  c #BD3837",
"w  c #C03A38",
"e  c #C23B39",
"r  c #C33B39",
"t  c #C63D3B",
"y  c #E73B39",
"u  c #E73C39",
"i  c #E83D3B",
"p  c #E83E3C",
"a  c #E83F3D",
"s  c #CC403E",
"d  c #E9403E",
"f  c #E9413E",
"g  c #E9413F",
"h  c #E9423F",
"j  c #EA423F",
"k  c #D34442",
"l  c #D44442",
"z  c #D64644",
"x  c #D74644",
"c  c #DB4846",
"v  c #DC4946",
"b  c #DC4947",
"n  c #DE4A48",
"m  c #DF4A48",
"M  c #EA4240",
"N  c #EA4340",
"B  c #EA4441",
"V  c #EB4441",
"C  c #EA4442",
"Z  c #EB4542",
"A  c #EA4543",
"S  c #EB4643",
"D  c #EC4744",
"F  c #EC4845",
"G  c #EC4846",
"H  c #EC4946",
"J  c #EC4A47",
"K  c #ED4A47",
"L  c #E04B48",
"P  c #E34D4A",
"I  c #E44D4A",
"U  c #E44D4B",
"Y  c #E74F4C",
"T  c #EC4A48",
"R  c #ED4B48",
"E  c #ED4C49",
"W  c #ED4C4A",
"Q  c #ED4D4A",
"!  c #ED4E4B",
"~  c #EE4E4B",
"^  c #E84F4D",
"/  c #E94F4D",
"(  c #EE4E4C",
")  c #EE4F4C",
"_  c #E9504D",
"`  c #EA504D",
"'  c #EA514E",
"]  c #EE504D",
"[  c #EC514F",
"{  c #EE514E",
"}  c #EF514E",
"|  c #ED524F",
" . c #EE524F",
".. c #EF524F",
"X. c #EE5350",
"o. c #EF5350",
"O. c #EF5450",
"+. c #EF5451",
"@. c #EF5551",
"#. c #EF5552",
"$. c #F05350",
"%. c #F05451",
"&. c #F05552",
"*. c #F05653",
"=. c #F05753",
"-. c #F05754",
";. c #F05854",
":. c #F05855",
">. c #F05955",
",. c #F15955",
"<. c #F05956",
"1. c #F15A56",
"2. c #F15A57",
"3. c #F15B58",
"4. c #F15C58",
"5. c #F15D59",
"6. c #F25D59",
"7. c #F25D5A",
"8. c #F25E5A",
"9. c #F25E5B",
"0. c #F25F5B",
"q. c #F25F5C",
"w. c #F2605C",
"e. c #F2605D",
"r. c #F2615D",
"t. c #F2625E",
"y. c #F3625E",
"u. c #F3625F",
"i. c #F3635F",
"p. c #F3645F",
"a. c #F36360",
"s. c #F36460",
"d. c black",
"f. c black",
"g. c black",
"h. c black",
"j. c black",
"k. c black",
"l. c black",
"z. c black",
"x. c black",
"c. c black",
"v. c black",
"b. c black",
"n. c black",
"m. c black",
"M. c black",
"N. c black",
"B. c black",
"V. c black",
"C. c black",
"Z. c black",
"A. c black",
"S. c black",
"D. c black",
"F. c black",
"G. c black",
"H. c black",
"J. c black",
"K. c black",
"L. c black",
"P. c black",
"I. c black",
"U. c black",
"Y. c black",
"T. c black",
"R. c black",
"E. c black",
"W. c black",
"Q. c black",
"!. c black",
"~. c black",
"^. c black",
"/. c black",
"(. c black",
"). c black",
"_. c black",
"`. c black",
"'. c black",
"]. c black",
"[. c black",
"{. c black",
"}. c black",
"|. c black",
" X c black",
".X c black",
"XX c black",
"oX c black",
"OX c black",
"+X c black",
"@X c black",
"#X c black",
"$X c black",
"%X c black",
"&X c black",
"*X c black",
"=X c black",
"-X c black",
";X c black",
":X c black",
">X c black",
",X c black",
"<X c black",
"1X c black",
"2X c black",
"3X c black",
"4X c black",
"5X c black",
"6X c black",
"7X c black",
"8X c black",
"9X c black",
"0X c black",
"qX c black",
"wX c black",
"eX c black",
"rX c black",
"tX c black",
"yX c black",
"uX c black",
"iX c black",
"pX c black",
"aX c black",
"sX c black",
"dX c black",
"fX c black",
"gX c black",
"hX c black",
"jX c black",
"kX c black",
"lX c black",
"zX c black",
"xX c black",
"cX c black",
"vX c black",
"bX c black",
"nX c black",
"mX c black",
"MX c black",
"NX c black",
"BX c black",
"VX c black",
"CX c black",
"ZX c black",
"AX c black",
"SX c black",
"DX c black",
"FX c black",
"GX c black",
"HX c black",
"JX c black",
"KX c black",
"LX c black",
"PX c black",
"IX c black",
"UX c black",
/* pixels */
"                                                                                                                                                                ",
"                                                                                                                                                                ",
"                                                                                                                                                                ",
"                                                                                                                                                                ",
"                                                                                                                                                                ",
"                                                                                                                                                                ",
"                                                                                                                                                                ",
"                                                                                                                                                                ",
"                                                                                                                                                                ",
"                                                                                                                                                                ",
"                                                                                                                                                                ",
"                                                                                                                                                                ",
"                                                                                                                                                                ",
"                                                                            o.o.                                                                                ",
"                                                                  o.o.o.o.o.o.o.o.o.o.o.o.o.o.o.o.                                                              ",
"                                                            T ] o.o.o.o.o.o.o.o.o.o.o.o.o.o.o.o.o.o.o.o.                                                        ",
"                                                          D ] o.o.o.o.o.o.o.o.o.o.o.o.o.o.o.o.o.o.o.o.o.o.o.                                                    ",
"                                                      j A ( o.o.o.o.o.o.o.o.o.o.o.o.o.o.o.o.o.o.o.o.o.o.o.o.o.o.                                                ",
"                                                    j j T o.o.o.o.o.o.o.o.o.o.o.o.o.o.o.o.o.o.o.o.o.o.o.o.o.o.o.o.                                              ",
"                                                    j A ] o.o.o.o.o.o.o.o.o.o.o.o.o.o.o.o.o.o.o.o.o.o.o.o.o.o.o.o.o.                                            ",
"                                                  j j H o.o.o.o.o.o.o.o.o.o.o.o.o.o.o.o.o.o.o.o.o.o.o.o.o.o.o.o.o.o.o.                                          ",
"                                                j j N ( o.o.o.o.o.o.o.o.o.o.o.o.o.o.o.o.o.o.o.o.o.o.o.o.o.o.o.o.o.o.o.o.                                        ",
"                                                j j A ] o.o.o.o.o.o.o.o.o.o.o.o.o.o.o.o.o.o.o.o.o.o.o.o.o.o.o.o.o.o.o.o.o.                                      ",
"                                                j j H o.o.o.o.o.o.o.o.o.o.o.o.o.o.o.o.o.o.o.o.o.o.o.o.o.o.o.o.o.o.o.o.o.o.                                      ",
"                                              j j j E o.o.o.o.o.o.o.o.o.o.o.o.o.o.o.o.$.] ] o.o.o.o.o.o.o.o.o.o.o.o.o.o.o.                                      ",
"                                              j j N ( o.o.o.o.o.o.o.o.o.o.o.o.o.o.o.o.x 4 1 t _ o.o.o.o.o.o.o.o.o.o.$.$.o.o.                                    ",
"                                              j j A ] o.o.o.o.o.o.o.o.o.o.o.o.o.o.$.c * X X @ w o.o.o.o.o.o.o.o.o.o.P U o.o.                                    ",
"                                              j j A ] o.o.o.o.o.o.o.o.o.o.o.o.o.o.o.9 X @ @ X , Y $.o.o.o.o.o.o.$.l ; , b &.                                    ",
"                                              j j D ] o.o.o.o.o.o.o.o.o.o.o.o.o.o.o.3 X @ @ X * U $.o.o.o.o.o.$._ < X X q o.                                    ",
"                                            j j j H o.o.o.&.,.,.&.o.o.o.o.o.o.o.o.o.q X @ @ X 1 _ o.o.o.o.o.o.$.b % X X 4 ]                                     ",
"                                            j j j T o.o.,.u.u.s.u.6.&.o.o.o.o.o.o.o.b , X X * k $.o.o.o.o.o.o.&.l # @ X 7 o.                                    ",
"                                            j j j E o.-.u.s.s.s.s.s.6.O.o.o.o.o.o.o.o.m w w c o.o.o.o.o.o.o.o.&.b & X @ s &.                                    ",
"                                            j j j E o.6.s.s.s.s.s.s.u.,.o.o.o.o.o.o.o.$.$.&.$.o.o.o.o.o.o.o.o.o.] 8 # 4 / $.                                    ",
"                                            j j N E O.u.s.s.s.s.s.s.s.u.&.o.o.o.o.o.o.o.o.o.o.o.o.o.o.o.o.o.o.o.o./ c / o.o.                                    ",
"                                            j j N ( O.6.s.s.s.s.s.s.s.s.6.O.o.o.o.o.o.o.o.o.o.o.o.o.o.o.o.o.o.o.o.o.&.o.o.o.                                    ",
"                                            j j N ( o.3.s.s.s.s.s.s.s.s.s.6.&.O.o.o.o.o.o.o.o.o.o.o.o.o.o.o.o.o.o.o.o.o.o.o.                                    ",
"                                            j j N ( o.&.u.s.s.s.s.s.s.s.s.s.u.u.6.,.-.O.o.o.o.o.o.o.o.o.o.o.o.o.o.o.o.o.o.o.                                    ",
"                                            j j N ( o.o.,.u.s.s.s.s.s.s.s.s.s.s.s.s.u.6.&.o.o.o.o.o.o.o.o.o.o.o.o.o.o.o.o.o.                                    ",
"                                            j j j E o.o.o.3.s.s.s.s.s.s.s.s.s.s.s.s.s.s.6.o.o.o.o.o.o.o.o.o.o.o.o.o.o.o.o.                                      ",
"                                            j j j T o.o.o.O.6.s.s.s.s.s.s.s.s.s.s.s.s.s.u.&.o.o.o.o.o.o.o.o.o.o.o.o.o.o.o.                                      ",
"                                            j j j H o.o.o.o.&.u.s.s.s.s.s.s.s.s.s.s.s.s.p.,.o.o.o.o.o.o.o.o.o.o.o.o.o.o.o.                                      ",
"                                            j j j A ] o.o.o.o.,.u.s.s.s.s.s.s.s.s.s.s.s.u.,.o.o.o.o.o.o.o.o.o.o.o.o.o.o.o.                                      ",
"                                            j j j j E o.o.o.o.o.,.u.s.s.s.s.s.s.s.s.s.s.u.O.o.o.o.o.o.o.o.o.o.o.o.o.o.o.o.                                      ",
"                                            j j j j A ] o.o.o.o.o.&.,.6.u.u.u.s.s.s.s.u.,.o.o.o.o.o.o.o.o.o.o.o.o.o.o.o.                                        ",
"                                              j j j j E o.o.o.o.o.o.o.o.O.&.,.6.6.q.6.&.o.o.o.o.o.o.o.o.o.o.o.o.o.o.o.o.                                        ",
"                                              j j j j A ( o.o.o.o.o.o.o.o.o.o.o.O.o.o.o.o.o.o.o.o.o.o.o.o.o.o.o.o.o.o.o.                                        ",
"                                                j j j j A ( o.o.o.o.o.o.o.o.o.o.o.o.o.o.o.o.o.o.o.o.o.o.o.o.o.o.o.o.o.                                          ",
"                                                  j j j j A E o.o.o.o.o.o.o.o.o.o.o.o.o.o.o.o.o.o.o.o.o.o.o.o.o.o.o.o.                                          ",
"                                                  j j j j j N H ( o.o.o.o.o.o.o.o.o.o.o.o.o.o.o.o.o.o.o.o.o.o.o.o.o.                                            ",
"                                                    j N j j j j A H E ] ] o.o.o.o.o.o.o.o.o.o.o.o.o.o.o.o.o.o.o.o.                                              ",
"                                                  y j E S N j j j j j A A H E E ] ] ] o.o.o.o.o.o.o.o.o.o.o.] ]                                                 ",
"                                                  y i E ] E H A N j j j j j j N A A A H H T E E E E E E E T T E                                                 ",
"                                                    y p ( o.o.] E T H A j j j j j j j j j j j j j j N N A H ] o.                                                ",
"                                                    y y j ] o.o.o.o.o.          j j j j j j j A A S H E ] o.o.o.                                                ",
"                                                      y y A ] o.] ]                           ] ] o.o.O.o.o.o.]                                                 ",
"                                                        y y j A                               ] o.o.o.O.o.o.o.T                                                 ",
"                                                          y y                                 N E ] ] ] ] E H p                                                 ",
"                                                                                                i j j p p i y y                                                 ",
"                                                                                                u y y y y y y                                                   ",
"                                                                                                                                                                ",
"                                                                                                                                                                ",
"                                                                                                                                                                ",
"                                                                                                                                                                ",
"                                                                                                                                                                ",
"                                                                                                                                                                ",
"                                                                                                                                                                ",
"                                                                                                                                                                ",
"                                                                                                                                                                ",
"                                                                                                                                                                ",
"                                                                                                                                                                ",
"                                                                                                                                                                ",
"                                                                                                                                                                ",
"                                                                                                                                                                ",
"                                                                                                                                                                ",
"                                                                                                                                                                ",
"                                                                                                                                                                ",
"                                                                                                                                                                ",
"                                                                                                                                                                ",
"                                                                                                                                                                ",
"                                                                                                                                                                "
};
