/* XPM */
static char *_629_7a5cd10c158f16fc7b7be1c3a0c323ef838914e16fe3c7664d1fe50f8878121e_3[] = {
/* columns rows colors chars-per-pixel */
"80 80 128 2 ",
"   c None",
".  c #8A1D1D",
"X  c #8B1D1D",
"o  c #8B1E1E",
"O  c #8C1E1E",
"+  c #8E1F1F",
"@  c #8F2020",
"#  c #902020",
"$  c #922121",
"%  c #942222",
"&  c #972424",
"*  c #9B2626",
"=  c #9E2827",
"-  c #A42B2A",
";  c #A52B2B",
":  c #A82D2C",
">  c #A92E2D",
",  c #AA2E2D",
"<  c #B43432",
"1  c #B53433",
"2  c #B63433",
"3  c #B73534",
"4  c #BA3635",
"5  c #BD3836",
"6  c #BF3938",
"7  c #C13B39",
"8  c #C33B39",
"9  c #C63D3B",
"0  c #C83E3C",
"q  c #E73B39",
"w  c #E73C3A",
"e  c #E83D3B",
"r  c #E83E3C",
"t  c #E83F3D",
"y  c #E93F3D",
"u  c #CC403F",
"i  c #E9403E",
"p  c #E9413E",
"a  c #E9413F",
"s  c #E9423F",
"d  c #EA423F",
"f  c #CF4240",
"g  c #D04240",
"h  c #D14341",
"j  c #D24341",
"k  c #D44442",
"l  c #D44542",
"z  c #D64643",
"x  c #D74643",
"c  c #DC4946",
"v  c #DD4A47",
"b  c #DE4A48",
"n  c #E94240",
"m  c #EA4340",
"M  c #EA4341",
"N  c #EA4441",
"B  c #EB4441",
"V  c #EA4442",
"C  c #EB4542",
"Z  c #EB4643",
"A  c #EB4744",
"S  c #EC4744",
"D  c #EC4845",
"F  c #EC4946",
"G  c #EC4A47",
"H  c #E14B49",
"J  c #E44D4A",
"K  c #E54D4B",
"L  c #E54E4B",
"P  c #E74F4C",
"I  c #ED4B48",
"U  c #ED4C49",
"Y  c #ED4D4A",
"T  c #ED4E4B",
"R  c #EE4E4B",
"E  c #EE4F4C",
"W  c #E9504D",
"Q  c #EA514D",
"!  c #EB514E",
"~  c #EE504D",
"^  c #EE504E",
"/  c #EE514E",
"(  c #EF514E",
")  c #EC524E",
"_  c #ED524F",
"`  c #EE524F",
"'  c #EF524F",
"]  c #EE534F",
"[  c #EF5350",
"{  c #EF5451",
"}  c #EF5552",
"|  c #F05350",
" . c #F05450",
".. c #F05451",
"X. c #F15451",
"o. c #F05552",
"O. c #F05652",
"+. c #F05653",
"@. c #F05754",
"#. c #F05855",
"$. c #F05956",
"%. c #F15956",
"&. c #F15A56",
"*. c #F15A57",
"=. c #F15B57",
"-. c #F15C58",
";. c #F15C59",
":. c #F15D59",
">. c #F15D5A",
",. c #F25E5A",
"<. c #F25F5B",
"1. c #F25F5C",
"2. c #F2605C",
"3. c #F2605D",
"4. c #F2615E",
"5. c #F3625E",
"6. c #F3635E",
"7. c #F3625F",
"8. c #F3635F",
"9. c #F3645F",
"0. c #F36460",
"q. c black",
"w. c black",
"e. c black",
"r. c black",
"t. c black",
"y. c black",
"u. c black",
/* pixels */
"                                                                                                                                                                ",
"                                                                                                                                                                ",
"                                                                                                                                                                ",
"                                                                                                                                                                ",
"                                                                                                                                                                ",
"                                                                                                                                                                ",
"                                                                                                                                                                ",
"                                                                                                                                                                ",
"                                                                                                                                                                ",
"                                                                                                                                                                ",
"                                                                                                                                                                ",
"                                                                                                                                                                ",
"                                                                                                                                                                ",
"                                                                    [ [ [ [ [ [ [ [ [ [ [ [ [                                                                   ",
"                                                              ~ [ [ [ [ [ [ [ [ [ [ [ [ [ [ [ [ [ [ [                                                           ",
"                                                          N E [ [ [ [ [ [ [ [ [ [ [ [ [ [ [ [ [ [ [ [ [ [ [                                                     ",
"                                                        m T [ [ [ [ [ [ [ [ [ [ [ [ [ [ [ [ [ [ [ [ [ [ [ [ [                                                   ",
"                                                      d F ~ [ [ [ [ [ [ [ [ [ [ [ [ [ [ [ [ [ [ [ [ [ [ [ [ [ [ [                                               ",
"                                                    d N E [ [ [ [ [ [ [ [ [ [ [ [ [ [ [ [ [ [ [ [ [ [ [ [ [ [ [ [ [                                             ",
"                                                  d d F [ [ [ [ [ [ [ [ [ [ [ [ [ [ [ [ [ [ [ [ [ [ [ [ [ [ [ [ [ [ [                                           ",
"                                                  d d T [ [ [ [ [ [ [ [ [ [ [ [ [ [ [ [ [ [ [ [ [ [ [ [ [ [ [ [ [ [ [ [                                         ",
"                                                d d N ~ [ [ [ [ [ [ [ [ [ [ [ [ [ [ [ [ [ [ [ [ [ [ [ [ [ [ [ [ [ [ [ [                                         ",
"                                                d d F [ [ [ [ [ [ [ [ [ [ [ [ [ [ [ [ [ [ [ [ [ [ [ [ [ [ [ [ [ [ [ [ [ [                                       ",
"                                              d d d I [ [ [ [ [ [ [ [ [ [ [ [ [ [ [ [ O.O.O.[ [ [ [ [ [ [ [ [ [ [ [ [ [ [                                       ",
"                                              d d m T [ [ [ [ [ [ [ [ [ [ [ [ [ [ [ ~ k 7 f ! | [ [ [ [ [ [ [ [ [ [ [ [ [ [                                     ",
"                                              d d N ~ [ [ [ [ [ [ [ [ [ [ [ [ [ [ ~ 7 # O @ 3 ! [ [ [ [ [ [ [ [ [ | ~ [ | [                                     ",
"                                              d d N ~ [ [ [ [ [ [ [ [ [ [ [ [ [ O.c & . O . # k O.[ [ [ [ [ [ [ [ c 1 4 K |                                     ",
"                                              d d N ~ [ [ [ [ [ [ [ [ [ [ [ [ [ O.j O O O O O 0 O.[ [ [ [ [ [ | K - . . 1 ~                                     ",
"                                              d d F [ [ { O.O.{ [ [ [ [ [ [ [ [ O.k # O O O # j O.[ [ [ [ [ [ O.u O O . = K                                     ",
"                                            d d d F [ #.2.2.2.<.#.[ [ [ [ [ [ [ [ P , . . . , P [ [ [ [ [ [ [ | 5 . O . * K                                     ",
"                                            d d d I #.2.0.0.0.0.2.#.[ [ [ [ [ [ [ | b 1 - 3 H | [ [ [ [ [ [ [ O.9 O O . , !                                     ",
"                                            d d d T 2.0.0.0.0.0.0.<.{ [ [ [ [ [ [ [ | ~ ! ~ | [ [ [ [ [ [ [ [ O.c * . % f O.                                    ",
"                                            d d d ~ 2.0.0.0.0.0.0.2.#.[ [ [ [ [ [ [ [ [ [ [ [ [ [ [ [ [ [ [ [ [ [ k 5 j ~ [                                     ",
"                                            d d m ~ 2.0.0.0.0.0.0.0.<.{ [ [ [ [ [ [ [ [ [ [ [ [ [ [ [ [ [ [ [ [ [ | | O.[ [                                     ",
"                                            d d m ~ 2.0.0.0.0.0.0.0.2.O.[ [ [ [ [ [ [ [ [ [ [ [ [ [ [ [ [ [ [ [ [ [ [ [ [ [                                     ",
"                                            d d m E #.0.0.0.0.0.0.0.0.#.[ [ [ [ [ [ [ [ [ [ [ [ [ [ [ [ [ [ [ [ [ [ [ [ [ [                                     ",
"                                            d d m E O.2.0.0.0.0.0.0.0.2.O.[ [ [ [ [ [ [ [ [ [ [ [ [ [ [ [ [ [ [ [ [ [ [ [ [                                     ",
"                                            d d m T { <.0.0.0.0.0.0.0.0.2.#.{ [ [ [ [ [ [ [ [ [ [ [ [ [ [ [ [ [ [ [ [ [ [                                       ",
"                                            d d d T [ @.2.0.0.0.0.0.0.0.0.0.2.#.{ [ [ [ [ [ [ [ [ [ [ [ [ [ [ [ [ [ [ [ [                                       ",
"                                            d d d F [ { <.0.0.0.0.0.0.0.0.0.0.0.1.O.[ [ [ [ [ [ [ [ [ [ [ [ [ [ [ [ [ [ [                                       ",
"                                            d d d N ~ [ #.0.0.0.0.0.0.0.0.0.0.0.0.<.{ [ [ [ [ [ [ [ [ [ [ [ [ [ [ [ [ [ [                                       ",
"                                            d d d m E [ @.2.0.0.0.0.0.0.0.0.0.0.0.2.@.[ [ [ [ [ [ [ [ [ [ [ [ [ [ [ [ [ [                                       ",
"                                            d d d d F [ { <.0.0.0.0.0.0.0.0.0.0.0.0.#.[ [ [ [ [ [ [ [ [ [ [ [ [ [ [ [ [                                         ",
"                                              d d d N E [ { #.2.0.0.0.0.0.0.0.0.0.2.@.[ [ [ [ [ [ [ [ [ [ [ [ [ [ [ [ [                                         ",
"                                              d d d d A ~ [ [ { #.2.2.0.0.0.0.0.0.<.{ [ [ [ [ [ [ [ [ [ [ [ [ [ [ [ [ [                                         ",
"                                                d d d d F ~ [ [ [ { #.<.2.0.0.0.2.O.[ [ [ [ [ [ [ [ [ [ [ [ [ [ [ [ [                                           ",
"                                                d d d d d F ~ [ [ [ [ { #.<.<.#.{ [ [ [ [ [ [ [ [ [ [ [ [ [ [ [ [ [ [                                           ",
"                                                  d d d d d N T ~ [ [ [ [ [ [ [ [ [ [ [ [ [ [ [ [ [ [ [ [ [ [ [ [ [                                             ",
"                                                    d d d d d m F T ~ [ [ [ [ [ [ [ [ [ [ [ [ [ [ [ [ [ [ [ [ [ [ [                                             ",
"                                                      d d d d d d d N F I T ~ ~ [ [ [ [ [ [ [ [ [ [ [ [ [ [ [ [ [                                               ",
"                                                        N F N m d d d d d m N N F F T T T ~ ~ ~ ~ ~ ~ ~ ~ E T T                                                 ",
"                                                      q r T ~ T F N N m d d d d d d d m m N N N N N N N N N                                                     ",
"                                                        q r F ~ [ ~ ~ E F d d d d d d m m m m d m m N A                                                         ",
"                                                        q q q d F ~ ~ T               T E T T T T E ~ [                                                         ",
"                                                            q q w d d r               [ [ [ [ [ [ { { [                                                         ",
"                                                                q q q                 T [ [ [ [ [ [ { ~                                                         ",
"                                                                                      d T ~ ~ ~ [ ~ T m                                                         ",
"                                                                                      q e d m m m d r q                                                         ",
"                                                                                        q q q q q q q                                                           ",
"                                                                                                                                                                ",
"                                                                                                                                                                ",
"                                                                                                                                                                ",
"                                                                                                                                                                ",
"                                                                                                                                                                ",
"                                                                                                                                                                ",
"                                                                                                                                                                ",
"                                                                                                                                                                ",
"                                                                                                                                                                ",
"                                                                                                                                                                ",
"                                                                                                                                                                ",
"                                                                                                                                                                ",
"                                                                                                                                                                ",
"                                                                                                                                                                ",
"                                                                                                                                                                ",
"                                                                                                                                                                ",
"                                                                                                                                                                ",
"                                                                                                                                                                ",
"                                                                                                                                                                ",
"                                                                                                                                                                ",
"                                                                                                                                                                "
};
