/* XPM */
static char *_629_7a5cd10c158f16fc7b7be1c3a0c323ef838914e16fe3c7664d1fe50f8878121e_4[] = {
/* columns rows colors chars-per-pixel */
"80 80 256 2 ",
"   c None",
".  c #8A1C1C",
"X  c #8A1D1D",
"o  c #8B1D1D",
"O  c #8B1E1D",
"+  c #8C1E1D",
"@  c #8C1E1E",
"#  c #8D1E1E",
"$  c #8E1F1F",
"%  c #8F1F1F",
"&  c #922121",
"*  c #932121",
"=  c #942222",
"-  c #952322",
";  c #962323",
":  c #972424",
">  c #9B2625",
",  c #9D2726",
"<  c #9E2827",
"1  c #A32A2A",
"2  c #A42B2A",
"3  c #A52B2B",
"4  c #A62C2B",
"5  c #AA2E2D",
"6  c #AB2E2D",
"7  c #AB2F2E",
"8  c #AE302F",
"9  c #B03130",
"0  c #B73534",
"q  c #BB3736",
"w  c #BC3836",
"e  c #BE3837",
"r  c #C43C3A",
"t  c #CA3F3D",
"y  c #E73B39",
"u  c #E73C3A",
"i  c #E83D3A",
"p  c #E83E3C",
"a  c #E83F3D",
"s  c #CB403E",
"d  c #E9403E",
"f  c #E9413F",
"g  c #E9423F",
"h  c #EA423F",
"j  c #CF4240",
"k  c #D04240",
"l  c #D34442",
"z  c #D74644",
"x  c #D94845",
"c  c #DB4845",
"v  c #DB4846",
"b  c #DC4946",
"n  c #DC4947",
"m  c #DD4947",
"M  c #DE4A47",
"N  c #E94240",
"B  c #EA4240",
"V  c #EA4340",
"C  c #EA4341",
"Z  c #EA4441",
"A  c #EB4441",
"S  c #EA4542",
"D  c #EB4542",
"F  c #EB4543",
"G  c #EB4643",
"H  c #EB4744",
"J  c #EC4744",
"K  c #EC4845",
"L  c #EC4946",
"P  c #EC4A46",
"I  c #EC4A47",
"U  c #ED4A47",
"Y  c #EC4B47",
"T  c #E14C49",
"R  c #E44D4A",
"E  c #E74E4C",
"W  c #EC4A48",
"Q  c #EC4B48",
"!  c #ED4B48",
"~  c #EC4B49",
"^  c #ED4C48",
"/  c #ED4C49",
"(  c #ED4D49",
")  c #ED4D4A",
"_  c #ED4E4B",
"`  c #EE4F4B",
"'  c #E84F4D",
"]  c #EE4F4C",
"[  c #E9504D",
"{  c #EA504D",
"}  c #EB514E",
"|  c #EE504D",
" . c #EE514E",
".. c #EF514E",
"X. c #EE524F",
"o. c #EF524F",
"O. c #EE5250",
"+. c #EF5350",
"@. c #EF5450",
"#. c #EF5451",
"$. c #EF5551",
"%. c #EF5552",
"&. c #EF5652",
"*. c #F05350",
"=. c #F05450",
"-. c #F05451",
";. c #F15451",
":. c #F05552",
">. c #F05653",
",. c #F05753",
"<. c #F05754",
"1. c #F05955",
"2. c #F05956",
"3. c #F05A56",
"4. c #F15A57",
"5. c #F15B57",
"6. c #F15B58",
"7. c #F15C58",
"8. c #F15C59",
"9. c #F15D59",
"0. c #F15D5A",
"q. c #F25E5A",
"w. c #F25E5B",
"e. c #F25F5B",
"r. c #F25F5C",
"t. c #F2605C",
"y. c #F2605D",
"u. c #F2615D",
"i. c #F2625E",
"p. c #F3625E",
"a. c #F3635F",
"s. c #F36460",
"d. c black",
"f. c black",
"g. c black",
"h. c black",
"j. c black",
"k. c black",
"l. c black",
"z. c black",
"x. c black",
"c. c black",
"v. c black",
"b. c black",
"n. c black",
"m. c black",
"M. c black",
"N. c black",
"B. c black",
"V. c black",
"C. c black",
"Z. c black",
"A. c black",
"S. c black",
"D. c black",
"F. c black",
"G. c black",
"H. c black",
"J. c black",
"K. c black",
"L. c black",
"P. c black",
"I. c black",
"U. c black",
"Y. c black",
"T. c black",
"R. c black",
"E. c black",
"W. c black",
"Q. c black",
"!. c black",
"~. c black",
"^. c black",
"/. c black",
"(. c black",
"). c black",
"_. c black",
"`. c black",
"'. c black",
"]. c black",
"[. c black",
"{. c black",
"}. c black",
"|. c black",
" X c black",
".X c black",
"XX c black",
"oX c black",
"OX c black",
"+X c black",
"@X c black",
"#X c black",
"$X c black",
"%X c black",
"&X c black",
"*X c black",
"=X c black",
"-X c black",
";X c black",
":X c black",
">X c black",
",X c black",
"<X c black",
"1X c black",
"2X c black",
"3X c black",
"4X c black",
"5X c black",
"6X c black",
"7X c black",
"8X c black",
"9X c black",
"0X c black",
"qX c black",
"wX c black",
"eX c black",
"rX c black",
"tX c black",
"yX c black",
"uX c black",
"iX c black",
"pX c black",
"aX c black",
"sX c black",
"dX c black",
"fX c black",
"gX c black",
"hX c black",
"jX c black",
"kX c black",
"lX c black",
"zX c black",
"xX c black",
"cX c black",
"vX c black",
"bX c black",
"nX c black",
"mX c black",
"MX c black",
"NX c black",
"BX c black",
"VX c black",
"CX c black",
"ZX c black",
"AX c black",
"SX c black",
"DX c black",
"FX c black",
"GX c black",
"HX c black",
"JX c black",
"KX c black",
"LX c black",
"PX c black",
"IX c black",
"UX c black",
/* pixels */
"                                                                                                                                                                ",
"                                                                                                                                                                ",
"                                                                                                                                                                ",
"                                                                                                                                                                ",
"                                                                                                                                                                ",
"                                                                                                                                                                ",
"                                                                                                                                                                ",
"                                                                                                                                                                ",
"                                                                                                                                                                ",
"                                                                                                                                                                ",
"                                                                                                                                                                ",
"                                                                                                                                                                ",
"                                                                        +.+.+.+.+.+.+.                                                                          ",
"                                                                +.+.+.+.+.+.+.+.+.+.+.+.+.+.+.+.+.+.                                                            ",
"                                                            ( +.+.+.+.+.+.+.+.+.+.+.+.+.+.+.+.+.+.+.+.+.+.                                                      ",
"                                                        h K  .+.+.+.+.+.+.+.+.+.+.+.+.+.+.+.+.+.+.+.+.+.+.+.+.                                                  ",
"                                                      h D  .+.+.+.+.+.+.+.+.+.+.+.+.+.+.+.+.+.+.+.+.+.+.+.+.+.+.                                                ",
"                                                    h V ( +.+.+.+.+.+.+.+.+.+.+.+.+.+.+.+.+.+.+.+.+.+.+.+.+.+.+.+.+.                                            ",
"                                                  h h D  .+.+.+.+.+.+.+.+.+.+.+.+.+.+.+.+.+.+.+.+.+.+.+.+.+.+.+.+.+.+.                                          ",
"                                                  h h ( +.+.+.+.+.+.+.+.+.+.+.+.+.+.+.+.+.+.+.+.+.+.+.+.+.+.+.+.+.+.+.                                          ",
"                                                h h D  .+.+.+.+.+.+.+.+.+.+.+.+.+.+.+.+.+.+.+.+.+.+.+.+.+.+.+.+.+.+.+.+.                                        ",
"                                                h h H  .+.+.+.+.+.+.+.+.+.+.+.+.+.+.+.+.+.+.+.+.+.+.+.+.+.+.+.+.+.+.+.+.+.                                      ",
"                                                h h K +.+.+.+.+.+.+.+.+.+.+.+.+.+.*.=.=.+.+.+.+.+.+.+.+.+.+.+.+.+.+.+.+.+.                                      ",
"                                              h h h ( +.+.+.+.+.+.+.+.+.+.+.+.+.+.T k z { *.+.+.+.+.+.+.+.+.+.+.+.+.+.+.+.                                      ",
"                                              h h V ] +.+.+.+.+.+.+.+.+.+.+.+.+.l , # * 0 { +.+.+.+.+.+.+.+.+.+.+.=.=.*.+.+.                                    ",
"                                              h h D  .+.+.+.+.+.+.+.+.+.+.+.*.E 1 X # X # k =.+.+.+.+.+.+.+.+.+. .x t M +.+.                                    ",
"                                              h h D  .+.+.+.+.+.+.+.+.+.+.+.=.x * # # # X w *.+.+.+.+.+.+.+.+.*.j : # < M *.                                    ",
"                                              h h K  .+.$.$.+.+.+.+.+.+.+.+.=.M - # # # # r =.+.+.+.+.+.+.+.+.' 2 X # X w +.                                    ",
"                                            h h h K <.0.a.0.5.$.+.+.+.+.+.+.*.{ 5 X # X > M *.+.+.+.+.+.+.+.=.M - # # X 9 +.                                    ",
"                                            h h h  .a.s.s.s.s.0.$.+.+.+.+.+.+.*.M 8 > 4 l +.+.+.+.+.+.+.+.+.=.M ; X # X q +.                                    ",
"                                            h h D 0.s.s.s.s.s.s.5.+.+.+.+.+.+.+.*.{ R { +.+.+.+.+.+.+.+.+.+.+.{ 5 X X - z =.                                    ",
"                                            h h ( a.s.s.s.s.s.s.r.$.+.+.+.+.+.+.+.+.*.+.+.+.+.+.+.+.+.+.+.+.+.*.x 5 2 s  .+.                                    ",
"                                            h h ( a.s.s.s.s.s.s.a.$.+.+.+.+.+.+.+.+.+.+.+.+.+.+.+.+.+.+.+.+.+.+.+.{ { +.+.+.                                    ",
"                                            h h K a.s.s.s.s.s.s.a.=.+.+.+.+.+.+.+.+.+.+.+.+.+.+.+.+.+.+.+.+.+.+.+.+.+.+.+.+.                                    ",
"                                            h h H a.s.s.s.s.s.s.s.5.+.+.+.+.+.+.+.+.+.+.+.+.+.+.+.+.+.+.+.+.+.+.+.+.+.+.+.+.                                    ",
"                                            h h D 0.s.s.s.s.s.s.s.6.+.+.+.+.+.+.+.+.+.+.+.+.+.+.+.+.+.+.+.+.+.+.+.+.+.+.+.+.                                    ",
"                                            h h V 5.s.s.s.s.s.s.s.0.$.+.+.+.+.+.+.+.+.+.+.+.+.+.+.+.+.+.+.+.+.+.+.+.+.+.+.+.                                    ",
"                                            h h h $.s.s.s.s.s.s.s.s.0.=.+.+.+.+.+.+.+.+.+.+.+.+.+.+.+.+.+.+.+.+.+.+.+.+.+.                                      ",
"                                            h h h  .s.s.s.s.s.s.s.s.s.a.<.+.+.+.+.+.+.+.+.+.+.+.+.+.+.+.+.+.+.+.+.+.+.+.+.                                      ",
"                                            h h h W a.s.s.s.s.s.s.s.s.s.a.5.+.+.+.+.+.+.+.+.+.+.+.+.+.+.+.+.+.+.+.+.+.+.+.                                      ",
"                                            h h h D 0.s.s.s.s.s.s.s.s.s.s.a.<.+.+.+.+.+.+.+.+.+.+.+.+.+.+.+.+.+.+.+.+.+.+.                                      ",
"                                            h h h h  .a.s.s.s.s.s.s.s.s.s.s.0.+.+.+.+.+.+.+.+.+.+.+.+.+.+.+.+.+.+.+.+.+.+.                                      ",
"                                              h h h D $.a.s.s.s.s.s.s.s.s.s.a.$.+.+.+.+.+.+.+.+.+.+.+.+.+.+.+.+.+.+.+.+.                                        ",
"                                              h h h h K =.0.s.s.s.s.s.s.s.s.a.$.+.+.+.+.+.+.+.+.+.+.+.+.+.+.+.+.+.+.+.+.                                        ",
"                                              h h h h V ( $.0.a.s.s.s.s.s.s.6.+.+.+.+.+.+.+.+.+.+.+.+.+.+.+.+.+.+.+.+.+.                                        ",
"                                                h h h h D ( +.5.a.s.s.s.s.r.$.+.+.+.+.+.+.+.+.+.+.+.+.+.+.+.+.+.+.+.+.                                          ",
"                                                  h h h h V K  .<.0.a.r.5.$.+.+.+.+.+.+.+.+.+.+.+.+.+.+.+.+.+.+.+.+.+.                                          ",
"                                                    h h h h h D (  .$.$.+.+.+.+.+.+.+.+.+.+.+.+.+.+.+.+.+.+.+.+.+.+.                                            ",
"                                                      h h h h h h D K (  . .+.+.+.+.+.+.+.+.+.+.+.+.+.+.+.+.+.+.+.                                              ",
"                                                        h h h h h h h h D D K W ( ]  . . . .+.+.+.+.+.+.+. . . .                                                ",
"                                                              h h V h h h h h h h V D D D J K K K K W K K H D                                                   ",
"                                                                  K ( K H D D V h h h h h h h h h h h h h                                                       ",
"                                                                  h (  . . . .] W V K K K K K K D h                                                             ",
"                                                                  y i h h V D D h h  .+.+.+.+.+.                                                                ",
"                                                                    y y y y y y a W +.+.+.+.+.+.                                                                ",
"                                                                              h ( +.+.+.+.+.+. .                                                                ",
"                                                                                K  . . . . . .D                                                                 ",
"                                                                                u h V V V V a u                                                                 ",
"                                                                                y y y y y y y                                                                   ",
"                                                                                                                                                                ",
"                                                                                                                                                                ",
"                                                                                                                                                                ",
"                                                                                                                                                                ",
"                                                                                                                                                                ",
"                                                                                                                                                                ",
"                                                                                                                                                                ",
"                                                                                                                                                                ",
"                                                                                                                                                                ",
"                                                                                                                                                                ",
"                                                                                                                                                                ",
"                                                                                                                                                                ",
"                                                                                                                                                                ",
"                                                                                                                                                                ",
"                                                                                                                                                                ",
"                                                                                                                                                                ",
"                                                                                                                                                                ",
"                                                                                                                                                                ",
"                                                                                                                                                                ",
"                                                                                                                                                                ",
"                                                                                                                                                                "
};
