/* XPM */
static char *_629_7a5cd10c158f16fc7b7be1c3a0c323ef838914e16fe3c7664d1fe50f8878121e_5[] = {
/* columns rows colors chars-per-pixel */
"80 80 256 2 ",
"   c None",
".  c #8A1D1D",
"X  c #8B1D1D",
"o  c #8B1E1E",
"O  c #8C1E1E",
"+  c #8D1E1E",
"@  c #8E1F1F",
"#  c #902020",
"$  c #912121",
"%  c #922121",
"&  c #932222",
"*  c #952323",
"=  c #962423",
"-  c #992524",
";  c #9B2626",
":  c #9F2828",
">  c #A02928",
",  c #A22A29",
"<  c #A52B2B",
"1  c #A52C2B",
"2  c #A62C2B",
"3  c #A72D2C",
"4  c #AB2F2D",
"5  c #B13231",
"6  c #B83635",
"7  c #B93635",
"8  c #BA3735",
"9  c #BE3937",
"0  c #C03A38",
"q  c #C83E3C",
"w  c #E03636",
"e  c #E13837",
"r  c #E73B39",
"t  c #E73C39",
"y  c #E43C3B",
"u  c #E53D3B",
"i  c #E73C3A",
"p  c #E53F3E",
"a  c #E83D3A",
"s  c #E83E3B",
"d  c #E83E3C",
"f  c #CC403E",
"g  c #CD413F",
"h  c #E5403F",
"j  c #E9403E",
"k  c #E9413E",
"l  c #E9413F",
"z  c #EA423F",
"x  c #EA433F",
"c  c #D04240",
"v  c #D54543",
"b  c #D64543",
"n  c #D74644",
"m  c #D84744",
"M  c #DB4846",
"N  c #DC4946",
"B  c #DE4A47",
"V  c #DF4A48",
"C  c #E94240",
"Z  c #EA4240",
"A  c #EA4340",
"S  c #EA4341",
"D  c #EA4441",
"F  c #EB4441",
"G  c #EB4541",
"H  c #EB4542",
"J  c #EA4643",
"K  c #EB4643",
"L  c #EB4644",
"P  c #EB4744",
"I  c #EC4744",
"U  c #EB4845",
"Y  c #EB4946",
"T  c #EC4845",
"R  c #EC4946",
"E  c #EC4947",
"W  c #EC4A47",
"Q  c #E04B48",
"!  c #E14B49",
"~  c #E14C49",
"^  c #E24C49",
"/  c #E24C4A",
"(  c #E44D4A",
")  c #E54E4B",
"_  c #E64E4B",
"`  c #E74F4C",
"'  c #EC4B48",
"]  c #ED4B48",
"[  c #ED4C49",
"{  c #ED4D49",
"}  c #ED4D4A",
"|  c #ED4E4B",
" . c #EE4E4B",
".. c #E84F4C",
"X. c #ED4F4C",
"o. c #EE4F4C",
"O. c #E9504D",
"+. c #EA504D",
"@. c #EB514E",
"#. c #ED504D",
"$. c #EE504D",
"%. c #EE514E",
"&. c #EF514E",
"*. c #ED524F",
"=. c #EE524F",
"-. c #EF524F",
";. c #EE534F",
":. c #EE5350",
">. c #EF5350",
",. c #EF5451",
"<. c #EF5551",
"1. c #EF5552",
"2. c #EF5652",
"3. c #F05350",
"4. c #F05450",
"5. c #F05451",
"6. c #F05552",
"7. c #F05652",
"8. c #F05753",
"9. c #F05754",
"0. c #F05855",
"q. c #F05955",
"w. c #F05956",
"e. c #F05A56",
"r. c #F15A56",
"t. c #F15A57",
"y. c #F05B57",
"u. c #F15B57",
"i. c #F15B58",
"p. c #F15C58",
"a. c #F15C59",
"s. c #F15D59",
"d. c #F15E5A",
"f. c #F15F5B",
"g. c #F25E5B",
"h. c #F25F5B",
"j. c #F25F5C",
"k. c #F2605C",
"l. c #F2615D",
"z. c #F2625E",
"x. c #F3625E",
"c. c #F3635F",
"v. c #F36360",
"b. c #F36460",
"n. c #F36560",
"m. c black",
"M. c black",
"N. c black",
"B. c black",
"V. c black",
"C. c black",
"Z. c black",
"A. c black",
"S. c black",
"D. c black",
"F. c black",
"G. c black",
"H. c black",
"J. c black",
"K. c black",
"L. c black",
"P. c black",
"I. c black",
"U. c black",
"Y. c black",
"T. c black",
"R. c black",
"E. c black",
"W. c black",
"Q. c black",
"!. c black",
"~. c black",
"^. c black",
"/. c black",
"(. c black",
"). c black",
"_. c black",
"`. c black",
"'. c black",
"]. c black",
"[. c black",
"{. c black",
"}. c black",
"|. c black",
" X c black",
".X c black",
"XX c black",
"oX c black",
"OX c black",
"+X c black",
"@X c black",
"#X c black",
"$X c black",
"%X c black",
"&X c black",
"*X c black",
"=X c black",
"-X c black",
";X c black",
":X c black",
">X c black",
",X c black",
"<X c black",
"1X c black",
"2X c black",
"3X c black",
"4X c black",
"5X c black",
"6X c black",
"7X c black",
"8X c black",
"9X c black",
"0X c black",
"qX c black",
"wX c black",
"eX c black",
"rX c black",
"tX c black",
"yX c black",
"uX c black",
"iX c black",
"pX c black",
"aX c black",
"sX c black",
"dX c black",
"fX c black",
"gX c black",
"hX c black",
"jX c black",
"kX c black",
"lX c black",
"zX c black",
"xX c black",
"cX c black",
"vX c black",
"bX c black",
"nX c black",
"mX c black",
"MX c black",
"NX c black",
"BX c black",
"VX c black",
"CX c black",
"ZX c black",
"AX c black",
"SX c black",
"DX c black",
"FX c black",
"GX c black",
"HX c black",
"JX c black",
"KX c black",
"LX c black",
"PX c black",
"IX c black",
"UX c black",
/* pixels */
"                                                                                                                                                                ",
"                                                                                                                                                                ",
"                                                                                                                                                                ",
"                                                                                                                                                                ",
"                                                                                                                                                                ",
"                                                                                                                                                                ",
"                                                                                                                                                                ",
"                                                                                                                                                                ",
"                                                                                                                                                                ",
"                                                                                                                                                                ",
"                                                                                                                                                                ",
"                                                                            >.>.                                                                                ",
"                                                                  >.>.>.>.>.>.>.>.>.>.>.>.>.>.                                                                  ",
"                                                            { >.>.>.>.>.>.>.>.>.>.>.>.>.>.>.>.>.>.>.>.                                                          ",
"                                                          T -.>.>.>.>.>.>.>.>.>.>.>.>.>.>.>.>.>.>.>.>.>.>.>.                                                    ",
"                                                      z D -.>.>.>.>.>.>.>.>.>.>.>.>.>.>.>.>.>.>.>.>.>.>.>.>.>.>.                                                ",
"                                                    z A { >.>.>.>.>.>.>.>.>.>.>.>.>.>.>.>.>.>.>.>.>.>.>.>.>.>.>.>.                                              ",
"                                                  z z P -.>.>.>.>.>.>.>.>.>.>.>.>.>.>.>.>.>.>.>.>.>.>.>.>.>.>.>.>.>.                                            ",
"                                                  z z { >.>.>.>.>.>.>.>.>.>.>.>.>.>.>.>.>.>.>.>.>.>.>.>.>.>.>.>.>.>.>.                                          ",
"                                                z z D -.>.>.>.>.>.>.>.>.>.>.>.>.>.>.>.>.>.>.>.>.>.>.>.>.>.>.>.>.>.>.>.>.                                        ",
"                                                z z T >.>.>.>.>.>.>.>.>.>.>.>.>.>.>.>.>.>.>.>.>.>.>.>.>.>.>.>.>.>.>.>.>.                                        ",
"                                                z z ] >.>.>.>.>.>.>.>.>.>.>.>.>.3.8.>.>.>.>.>.>.>.>.>.>.>.>.>.>.>.>.>.>.>.                                      ",
"                                              z z A { >.>.>.>.>.>.>.>.>.>.>.3.-.~ N +.3.>.>.>.>.>.>.>.>.>.>.>.>.>.>.>.>.>.                                      ",
"                                              z z D -.>.>.>.>.>.>.>.>.>.>.3.` 6 - * 2 v >.>.>.>.>.>.>.>.>.>.>.>.3.8.>.>.>.                                      ",
"                                              z z D -.>.>.>.>.>.>.>.>.>.>.>.9 O . . . : ~ 3.>.>.>.>.>.>.>.>.>.>._ V ..>.>.>.                                    ",
"                                              z z T >.>.>.>.>.>.>.>.>.>.3..., . O O O O g 8.>.>.>.>.>.>.>.>.>.n , * 4 ! 3.>.                                    ",
"                                            z z z T >.>.>.>.>.>.>.>.>.>.3.` , . O O O O g 8.>.>.>.>.>.>.>.>.` < . . . 6 >.>.                                    ",
"                                            z z A -.s.s.y.8.>.>.>.>.>.>.>.-.6 . . O . - V 3.>.>.>.>.>.>.>.8.m & O O . < +.3.                                    ",
"                                            z A -.x.n.n.n.x.9.>.>.>.>.>.>.3._ 5 * & : c >.>.>.>.>.>.>.>.>.8.v & O O . 3 +.>.                                    ",
"                                            z { x.n.n.n.n.n.x.<.>.>.>.>.>.>.>.+.M n _ >.>.>.>.>.>.>.>.>.>.3.~ - . . O 0 >.>.                                    ",
"                                            z 8.n.n.n.n.n.n.x.y.>.>.>.>.>.>.>.>.8.8.3.>.>.>.>.>.>.>.>.>.>.>.>.q - & 5 _ 3.>.                                    ",
"                                            D y.n.n.n.n.n.n.n.y.>.>.>.>.>.>.>.>.>.>.>.>.>.>.>.>.>.>.>.>.>.>.>.-.! N +.3.>.>.                                    ",
"                                            D i.n.n.n.n.n.n.n.y.>.>.>.>.>.>.>.>.>.>.>.>.>.>.>.>.>.>.>.>.>.>.>.>.3.8.>.>.>.>.                                    ",
"                                          z D s.n.n.n.n.n.n.x.y.>.>.>.>.>.>.>.>.>.>.>.>.>.>.>.>.>.>.>.>.>.>.>.>.>.>.>.>.>.>.                                    ",
"                                          z D s.n.n.n.n.n.n.x.y.>.>.>.>.>.>.>.>.>.>.>.>.>.>.>.>.>.>.>.>.>.>.>.>.>.>.>.>.>.                                      ",
"                                          z D s.n.n.n.n.n.n.x.y.>.>.>.>.>.>.>.>.>.>.>.>.>.>.>.>.>.>.>.>.>.>.>.>.>.>.>.>.>.                                      ",
"                                          z D s.n.n.n.n.n.n.x.y.>.>.>.>.>.>.>.>.>.>.>.>.>.>.>.>.>.>.>.>.>.>.>.>.>.>.>.>.>.                                      ",
"                                          z D s.n.n.n.n.n.n.n.x.8.>.>.>.>.>.>.>.>.>.>.>.>.>.>.>.>.>.>.>.>.>.>.>.>.>.>.>.>.                                      ",
"                                          z D s.n.n.n.n.n.n.n.n.s.<.>.>.>.>.>.>.>.>.>.>.>.>.>.>.>.>.>.>.>.>.>.>.>.>.>.>.>.                                      ",
"                                            A y.n.n.n.n.n.n.n.n.n.s.<.>.>.>.>.>.>.>.>.>.>.>.>.>.>.>.>.>.>.>.>.>.>.>.>.>.>.                                      ",
"                                            z { x.n.n.n.n.n.n.n.n.x.y.>.>.>.>.>.>.>.>.>.>.>.>.>.>.>.>.>.>.>.>.>.>.>.>.>.                                        ",
"                                            z A -.x.n.n.n.n.n.n.n.n.x.<.>.>.>.>.>.>.>.>.>.>.>.>.>.>.>.>.>.>.>.>.>.>.>.>.                                        ",
"                                              z D <.n.n.n.n.n.n.n.n.x.9.>.>.>.>.>.>.>.>.>.>.>.>.>.>.>.>.>.>.>.>.>.>.>.>.                                        ",
"                                              z z D y.n.n.n.n.n.n.n.x.9.>.>.>.>.>.>.>.>.>.>.>.>.>.>.>.>.>.>.>.>.>.>.>.                                          ",
"                                                z z I s.n.n.n.n.n.n.x.<.>.>.>.>.>.>.>.>.>.>.>.>.>.>.>.>.>.>.>.>.>.>.>.                                          ",
"                                                z z z T s.n.n.n.n.x.y.>.>.>.>.>.>.>.>.>.>.>.>.>.>.>.>.>.>.>.>.>.>.>.>.                                          ",
"                                                  z z z T y.j.x.s.y.<.>.>.>.>.>.>.>.>.>.>.>.>.>.>.>.>.>.>.>.>.>.>.{                                             ",
"                                                    z z z A P I P ] o.-.-.>.>.>.>.>.>.>.>.>.>.>.>.>.>.>.>.>.>.>.-.p                                             ",
"                                                        z z z z z z A D T ] { -.-.-.>.>.>.>.>.>.>.>.>.>.>.>.>.o.h w                                             ",
"                                                          z z z z z z z z z z A D P T T { { { o.o.o.o.o.{ { D u w w                                             ",
"                                                                  z D D A z z z z z z z z z A A A A A A z u e w w                                               ",
"                                                                    -.-.o.{ ] T T P D D D D A z z z z                                                           ",
"                                                                    >.>.>.-.>.>.>.-.-.-.-.o.D                                                                   ",
"                                                                    >.>.>.-.{ >.<.>.>.>.-.T a                                                                   ",
"                                                                    >.>.>.-.A Y ] Y P D z u r                                                                   ",
"                                                                    o.>.>.-.D r r r r r r r                                                                     ",
"                                                                    z ] -.-.-.Y A A a                                                                           ",
"                                                                    r a z A A A z d r                                                                           ",
"                                                                      u r r r r r r                                                                             ",
"                                                                                                                                                                ",
"                                                                                                                                                                ",
"                                                                                                                                                                ",
"                                                                                                                                                                ",
"                                                                                                                                                                ",
"                                                                                                                                                                ",
"                                                                                                                                                                ",
"                                                                                                                                                                ",
"                                                                                                                                                                ",
"                                                                                                                                                                ",
"                                                                                                                                                                ",
"                                                                                                                                                                ",
"                                                                                                                                                                ",
"                                                                                                                                                                ",
"                                                                                                                                                                ",
"                                                                                                                                                                ",
"                                                                                                                                                                ",
"                                                                                                                                                                ",
"                                                                                                                                                                ",
"                                                                                                                                                                ",
"                                                                                                                                                                "
};
