/* XPM */
static char *_629_7a5cd10c158f16fc7b7be1c3a0c323ef838914e16fe3c7664d1fe50f8878121e_6[] = {
/* columns rows colors chars-per-pixel */
"80 80 256 2 ",
"   c None",
".  c #8A1D1D",
"X  c #8B1D1D",
"o  c #8B1D1E",
"O  c #8B1E1E",
"+  c #8C1E1E",
"@  c #8D1E1E",
"#  c #8D1F1F",
"$  c #8E1F1F",
"%  c #912121",
"&  c #962323",
"*  c #972423",
"=  c #982424",
"-  c #9C2626",
";  c #9C2726",
":  c #A32A29",
">  c #A72C2B",
",  c #AB2E2E",
"<  c #AD302F",
"1  c #AF3130",
"2  c #B33331",
"3  c #B63534",
"4  c #B73534",
"5  c #B83534",
"6  c #B83634",
"7  c #B93635",
"8  c #BA3735",
"9  c #BE3937",
"0  c #C23B39",
"q  c #C33C3A",
"w  c #C43C3A",
"e  c #C73D3C",
"r  c #C83E3C",
"t  c #C93F3D",
"y  c #E03636",
"u  c #E13838",
"i  c #E13938",
"p  c #E33B3B",
"a  c #E73B39",
"s  c #E33C3B",
"d  c #E73C3A",
"f  c #E73D3B",
"g  c #E83D3B",
"h  c #E83E3C",
"j  c #E9413E",
"k  c #E9413F",
"l  c #EA413E",
"z  c #EA423F",
"x  c #CF4240",
"c  c #D54543",
"v  c #D84644",
"b  c #DB4846",
"n  c #DD4947",
"m  c #DE4A47",
"M  c #DF4A48",
"N  c #E74442",
"B  c #E94341",
"V  c #EA4340",
"C  c #EA4341",
"Z  c #EA4441",
"A  c #EB4441",
"S  c #EB4442",
"D  c #EB4542",
"F  c #EB4643",
"G  c #EB4743",
"H  c #E84544",
"J  c #EB4744",
"K  c #EB4745",
"L  c #EB4845",
"P  c #EB4846",
"I  c #EB4947",
"U  c #EC4845",
"Y  c #EC4945",
"T  c #EC4946",
"R  c #EC4A47",
"E  c #ED4A47",
"W  c #EC4B47",
"Q  c #E14B49",
"!  c #E24C49",
"~  c #E34C4A",
"^  c #E44D4A",
"/  c #E44D4B",
"(  c #E64E4C",
")  c #EB4B49",
"_  c #EC4B48",
"`  c #ED4B48",
"'  c #ED4C49",
"]  c #ED4D49",
"[  c #ED4D4A",
"{  c #EC4D4B",
"}  c #EE4D4A",
"|  c #ED4E4A",
" . c #EC4E4B",
".. c #EE4E4B",
"X. c #E84F4D",
"o. c #ED4F4D",
"O. c #EE4F4C",
"+. c #EE504D",
"@. c #EC514E",
"#. c #EE514E",
"$. c #EF514E",
"%. c #EC524F",
"&. c #ED524F",
"*. c #EF524E",
"=. c #EE524F",
"-. c #EF524F",
";. c #EF534F",
":. c #EE5350",
">. c #EF5350",
",. c #EF5450",
"<. c #EF5451",
"1. c #EF5551",
"2. c #EF5552",
"3. c #F05350",
"4. c #F05450",
"5. c #F05451",
"6. c #F05552",
"7. c #F05653",
"8. c #F05754",
"9. c #F05955",
"0. c #F05956",
"q. c #F15956",
"w. c #F15B57",
"e. c #F15B58",
"r. c #F15C58",
"t. c #F15C59",
"y. c #F15D59",
"u. c #F15E5A",
"i. c #F25E5A",
"p. c #F25E5B",
"a. c #F25F5B",
"s. c #F2605C",
"d. c #F2615D",
"f. c #F3625E",
"g. c #F3635F",
"h. c #F36460",
"j. c black",
"k. c black",
"l. c black",
"z. c black",
"x. c black",
"c. c black",
"v. c black",
"b. c black",
"n. c black",
"m. c black",
"M. c black",
"N. c black",
"B. c black",
"V. c black",
"C. c black",
"Z. c black",
"A. c black",
"S. c black",
"D. c black",
"F. c black",
"G. c black",
"H. c black",
"J. c black",
"K. c black",
"L. c black",
"P. c black",
"I. c black",
"U. c black",
"Y. c black",
"T. c black",
"R. c black",
"E. c black",
"W. c black",
"Q. c black",
"!. c black",
"~. c black",
"^. c black",
"/. c black",
"(. c black",
"). c black",
"_. c black",
"`. c black",
"'. c black",
"]. c black",
"[. c black",
"{. c black",
"}. c black",
"|. c black",
" X c black",
".X c black",
"XX c black",
"oX c black",
"OX c black",
"+X c black",
"@X c black",
"#X c black",
"$X c black",
"%X c black",
"&X c black",
"*X c black",
"=X c black",
"-X c black",
";X c black",
":X c black",
">X c black",
",X c black",
"<X c black",
"1X c black",
"2X c black",
"3X c black",
"4X c black",
"5X c black",
"6X c black",
"7X c black",
"8X c black",
"9X c black",
"0X c black",
"qX c black",
"wX c black",
"eX c black",
"rX c black",
"tX c black",
"yX c black",
"uX c black",
"iX c black",
"pX c black",
"aX c black",
"sX c black",
"dX c black",
"fX c black",
"gX c black",
"hX c black",
"jX c black",
"kX c black",
"lX c black",
"zX c black",
"xX c black",
"cX c black",
"vX c black",
"bX c black",
"nX c black",
"mX c black",
"MX c black",
"NX c black",
"BX c black",
"VX c black",
"CX c black",
"ZX c black",
"AX c black",
"SX c black",
"DX c black",
"FX c black",
"GX c black",
"HX c black",
"JX c black",
"KX c black",
"LX c black",
"PX c black",
"IX c black",
"UX c black",
/* pixels */
"                                                                                                                                                                ",
"                                                                                                                                                                ",
"                                                                                                                                                                ",
"                                                                                                                                                                ",
"                                                                                                                                                                ",
"                                                                                                                                                                ",
"                                                                                                                                                                ",
"                                                                                                                                                                ",
"                                                                                                                                                                ",
"                                                                                                                                                                ",
"                                                                                                                                                                ",
"                                                                                                                                                                ",
"                                                                        >.>.>.>.>.>.>.>.                                                                        ",
"                                                                >.>.>.>.>.>.>.>.>.>.>.>.>.>.>.>.>.>.                                                            ",
"                                                            | >.>.>.>.>.>.>.>.>.>.>.>.>.>.>.>.>.>.>.>.>.>.                                                      ",
"                                                        z W #.>.>.>.>.>.>.>.>.>.>.>.>.>.>.>.>.>.>.>.>.>.>.>.>.                                                  ",
"                                                      z S #.>.>.>.>.>.>.>.>.>.>.>.>.>.>.>.>.>.>.>.>.>.>.>.>.>.>.                                                ",
"                                                    z V | >.>.>.>.>.>.>.>.>.>.>.>.>.>.>.>.>.>.>.>.>.>.>.>.>.>.>.>.>.                                            ",
"                                                  z z J #.>.>.>.>.>.>.>.>.>.>.>.>.>.>.>.>.>.>.>.>.>.>.>.>.>.>.>.>.>.>.                                          ",
"                                                  z z | >.>.>.>.>.>.>.>.>.>.>.>.>.>.>.>.>.>.>.>.>.>.>.>.>.>.>.>.>.>.>.>.                                        ",
"                                                z z S #.>.>.>.>.>.>.>.>.>.>.>.>.>.>.>.>.>.>.>.>.>.>.>.>.>.>.>.>.>.>.>.>.                                        ",
"                                                z z J #.>.>.>.>.>.>.>.>.>.>.>.>.>.>.>.>.>.>.>.>.>.>.>.>.>.>.>.>.>.>.>.>.>.                                      ",
"                                                z z W >.>.>.>.>.>.>.>.>.>.>.>.3.6.3.6.3.>.>.>.>.>.>.>.>.>.>.>.>.>.>.>.>.>.                                      ",
"                                              z z z | >.>.>.>.>.>.>.>.>.>.>.>./ e 7 r ( 3.>.>.>.>.>.>.>.>.>.>.>.>.>.>.>.>.>.                                    ",
"                                              z z V O.>.>.>.>.>.>.>.>.>.>.3.~ > + X + < ( 3.>.>.>.>.>.>.>.>.>.>.6.>.3.>.>.>.                                    ",
"                                              z z S #.>.>.>.>.>.>.>.>.>.>.>.9 X + + + + e 6.>.>.>.>.>.>.>.>.>.#.x 7 r X.>.>.                                    ",
"                                              z z S #.>.>.>.>.>.>.>.>.>.>.#.< X + + + X 3 >.>.>.>.>.>.>.>.>.#.q % X + 7 #.>.                                    ",
"                                              z S | 8.6.>.>.>.>.>.>.>.>.>.>.7 X X + + X 0 3.>.>.>.>.>.>.>.3.~ - X + X * m 6.                                    ",
"                                            z W w.d.d.d.i.2.>.>.>.>.>.>.>.3.b - X X X : Q 3.>.>.>.>.>.>.>.6.v % + + X % c 6.                                    ",
"                                            ` i.h.h.h.h.h.i.2.>.>.>.>.>.>.>.>.b 3 , 7 M >.>.>.>.>.>.>.>.>.6.m & X + X = M 3.                                    ",
"                                            e.h.h.h.h.h.h.d.8.>.>.>.>.>.>.>.>.3.>.#.>.3.>.>.>.>.>.>.>.>.>.>.#.2 X X + 7 #.>.                                    ",
"                                            d.h.h.h.h.h.h.h.w.>.>.>.>.>.>.>.>.>.>.>.>.>.>.>.>.>.>.>.>.>.>.>.3./ 9 1 w X.3.>.                                    ",
"                                            d.h.h.h.h.h.h.h.w.>.>.>.>.>.>.>.>.>.>.>.>.>.>.>.>.>.>.>.>.>.>.>.>.3.>.#.>.>.>.>.                                    ",
"                                            h.h.h.h.h.h.h.d.6.>.>.>.>.>.>.>.>.>.>.>.>.>.>.>.>.>.>.>.>.>.>.>.>.>.>.>.>.>.>.>.                                    ",
"                                          h.h.h.h.h.h.h.h.d.2.>.>.>.>.>.>.>.>.>.>.>.>.>.>.>.>.>.>.>.>.>.>.>.>.>.>.>.>.>.>.>.                                    ",
"                                          h.h.h.h.h.h.h.h.i.>.>.>.>.>.>.>.>.>.>.>.>.>.>.>.>.>.>.>.>.>.>.>.>.>.>.>.>.>.>.>.>.                                    ",
"                                          h.h.h.h.h.h.h.h.w.>.>.>.>.>.>.>.>.>.>.>.>.>.>.>.>.>.>.>.>.>.>.>.>.>.>.>.>.>.>.>.>.                                    ",
"                                          h.h.h.h.h.h.h.d.8.>.>.>.>.>.>.>.>.>.>.>.>.>.>.>.>.>.>.>.>.>.>.>.>.>.>.>.>.>.>.>.                                      ",
"                                          h.h.h.h.h.h.h.h.w.>.>.>.>.>.>.>.>.>.>.>.>.>.>.>.>.>.>.>.>.>.>.>.>.>.>.>.>.>.>.>.                                      ",
"                                          h.h.h.h.h.h.h.h.d.6.>.>.>.>.>.>.>.>.>.>.>.>.>.>.>.>.>.>.>.>.>.>.>.>.>.>.>.>.>.>.                                      ",
"                                          h.h.h.h.h.h.h.h.h.i.>.>.>.>.>.>.>.>.>.>.>.>.>.>.>.>.>.>.>.>.>.>.>.>.>.>.>.>.>.>.                                      ",
"                                            h.h.h.h.h.h.h.h.d.6.>.>.>.>.>.>.>.>.>.>.>.>.>.>.>.>.>.>.>.>.>.>.>.>.>.>.>.>.>.                                      ",
"                                            h.h.h.h.h.h.h.h.h.i.>.>.>.>.>.>.>.>.>.>.>.>.>.>.>.>.>.>.>.>.>.>.>.>.>.>.>.#.                                        ",
"                                              h.h.h.h.h.h.h.h.i.>.>.>.>.>.>.>.>.>.>.>.>.>.>.>.>.>.>.>.>.>.>.>.>.>.>.>.| s                                       ",
"                                              h.h.h.h.h.h.h.h.i.>.>.>.>.>.>.>.>.>.>.>.>.>.>.>.>.>.>.>.>.>.>.>.>.>.>.>.J y                                       ",
"                                                h.h.h.h.h.h.h.e.>.>.>.>.>.>.>.>.>.>.>.>.>.>.>.>.>.>.>.>.>.>.>.>.>.>.O.s y                                       ",
"                                                  h.h.h.h.h.i.#.>.>.>.>.>.>.>.>.>.>.>.>.>.>.>.>.>.>.>.>.>.>.>.>.>.>.N y y y                                     ",
"                                                    i.i.i.2.S S ` #.#.>.>.>.>.>.>.>.>.>.>.>.>.>.>.>.>.>.>.>.>.>.>.) i y y y                                     ",
"                                                      J S z z z z S W | O.#.#.>.>.>.>.>.>.>.>.>.>.>.>.>.>.>.>.>.| i y y y y                                     ",
"                                                          z z z z z z z V S J W | | O.#.#.#.#.>.>.>.>.>.>.#.O.I s y y y y y                                     ",
"                                                            W W S V z z z z z z z V V S S S J W W W W W W S V i y y y y y                                       ",
"                                                            >.>.#.#.| ` W S S V z z z z z z z z z z z z z       y y y y                                         ",
"                                                            >.>.>.>.>.>.>.#.#.      z J W W W S z h g g                                                         ",
"                                                            >.>.>.>.>.>.>.>.>.        z J I V h a a a                                                           ",
"                                                            #.>.>.>.>.>.>.>.>.          a a a a a                                                               ",
"                                                            I #.>.>.>.>.>.#.O.                                                                                  ",
"                                                            d S W | #.#.#.`                                                                                     ",
"                                                            a a a d h z z g                                                                                     ",
"                                                                a a a a a                                                                                       ",
"                                                                                                                                                                ",
"                                                                                                                                                                ",
"                                                                                                                                                                ",
"                                                                                                                                                                ",
"                                                                                                                                                                ",
"                                                                                                                                                                ",
"                                                                                                                                                                ",
"                                                                                                                                                                ",
"                                                                                                                                                                ",
"                                                                                                                                                                ",
"                                                                                                                                                                ",
"                                                                                                                                                                ",
"                                                                                                                                                                ",
"                                                                                                                                                                ",
"                                                                                                                                                                ",
"                                                                                                                                                                ",
"                                                                                                                                                                ",
"                                                                                                                                                                ",
"                                                                                                                                                                ",
"                                                                                                                                                                ",
"                                                                                                                                                                "
};
