/* XPM */
static char *_629_7a5cd10c158f16fc7b7be1c3a0c323ef838914e16fe3c7664d1fe50f8878121e_7[] = {
/* columns rows colors chars-per-pixel */
"80 80 256 2 ",
"   c None",
".  c #8A1D1D",
"X  c #8A1D1E",
"o  c #8A1E1E",
"O  c #8B1E1E",
"+  c #8C1E1E",
"@  c #8D1F1F",
"#  c #8E1F1F",
"$  c #8F2020",
"%  c #922221",
"&  c #932222",
"*  c #942222",
"=  c #942323",
"-  c #952323",
";  c #972424",
":  c #9A2625",
">  c #9D2727",
",  c #9E2827",
"<  c #9E2828",
"1  c #9F2928",
"2  c #A02928",
"3  c #A12929",
"4  c #A32A2A",
"5  c #A42B2A",
"6  c #A62C2B",
"7  c #B13231",
"8  c #B53433",
"9  c #B63533",
"0  c #B83534",
"q  c #E03536",
"w  c #E03636",
"e  c #E03737",
"r  c #E13737",
"t  c #E23939",
"y  c #E73B39",
"u  c #E73C3A",
"i  c #E33C3C",
"p  c #E33D3C",
"a  c #E83E3B",
"s  c #E83E3C",
"d  c #E83F3D",
"f  c #CC403E",
"g  c #CC413F",
"h  c #CD413F",
"j  c #E5403F",
"k  c #E6403F",
"l  c #E9403E",
"z  c #E9413F",
"x  c #E9423F",
"c  c #EA423F",
"v  c #D04241",
"b  c #D14341",
"n  c #D24341",
"m  c #D44442",
"M  c #D54543",
"N  c #D84644",
"B  c #D94745",
"V  c #DA4745",
"C  c #DC4946",
"Z  c #DD4947",
"A  c #DF4A48",
"S  c #E74241",
"D  c #E74342",
"F  c #EA4340",
"G  c #E94441",
"H  c #EA4441",
"J  c #EB4441",
"K  c #EA4442",
"L  c #EA4542",
"P  c #EB4542",
"I  c #EA4543",
"U  c #EB4643",
"Y  c #EB4744",
"T  c #EB4745",
"R  c #EC4744",
"E  c #E94947",
"W  c #EB4947",
"Q  c #EC4845",
"!  c #EC4946",
"~  c #EC4A46",
"^  c #EC4A47",
"/  c #E04B48",
"(  c #E14B49",
")  c #E34C4A",
"_  c #E34D4A",
"`  c #E44D4A",
"'  c #E54D4B",
"]  c #E54E4B",
"[  c #E64E4C",
"{  c #E74E4C",
"}  c #EA4A48",
"|  c #EB4A48",
" . c #EC4A48",
".. c #ED4B48",
"X. c #EC4C49",
"o. c #ED4C49",
"O. c #ED4D4A",
"+. c #ED4E4B",
"@. c #EE4E4B",
"#. c #E84F4D",
"$. c #ED4E4C",
"%. c #ED4F4C",
"&. c #EE4E4C",
"*. c #EE4F4C",
"=. c #EB514E",
"-. c #EE504D",
";. c #EE514D",
":. c #ED504E",
">. c #EC514F",
",. c #EE514E",
"<. c #EF514E",
"1. c #ED524F",
"2. c #EF524F",
"3. c #EF5250",
"4. c #EE5350",
"5. c #EF5350",
"6. c #EF5451",
"7. c #EF5552",
"8. c #EF5652",
"9. c #F05350",
"0. c #F05450",
"q. c #F05451",
"w. c #F15451",
"e. c #F05552",
"r. c #F05653",
"t. c #F05754",
"y. c #F05854",
"u. c #F15955",
"i. c #F05956",
"p. c #F15B57",
"a. c #F15B58",
"s. c #F15C58",
"d. c #F15C59",
"f. c #F15D59",
"g. c #F15D5A",
"h. c #F25E5B",
"j. c #F25F5B",
"k. c #F2615D",
"l. c #F2625E",
"z. c #F3625E",
"x. c #F3635F",
"c. c #F36460",
"v. c #F36560",
"b. c black",
"n. c black",
"m. c black",
"M. c black",
"N. c black",
"B. c black",
"V. c black",
"C. c black",
"Z. c black",
"A. c black",
"S. c black",
"D. c black",
"F. c black",
"G. c black",
"H. c black",
"J. c black",
"K. c black",
"L. c black",
"P. c black",
"I. c black",
"U. c black",
"Y. c black",
"T. c black",
"R. c black",
"E. c black",
"W. c black",
"Q. c black",
"!. c black",
"~. c black",
"^. c black",
"/. c black",
"(. c black",
"). c black",
"_. c black",
"`. c black",
"'. c black",
"]. c black",
"[. c black",
"{. c black",
"}. c black",
"|. c black",
" X c black",
".X c black",
"XX c black",
"oX c black",
"OX c black",
"+X c black",
"@X c black",
"#X c black",
"$X c black",
"%X c black",
"&X c black",
"*X c black",
"=X c black",
"-X c black",
";X c black",
":X c black",
">X c black",
",X c black",
"<X c black",
"1X c black",
"2X c black",
"3X c black",
"4X c black",
"5X c black",
"6X c black",
"7X c black",
"8X c black",
"9X c black",
"0X c black",
"qX c black",
"wX c black",
"eX c black",
"rX c black",
"tX c black",
"yX c black",
"uX c black",
"iX c black",
"pX c black",
"aX c black",
"sX c black",
"dX c black",
"fX c black",
"gX c black",
"hX c black",
"jX c black",
"kX c black",
"lX c black",
"zX c black",
"xX c black",
"cX c black",
"vX c black",
"bX c black",
"nX c black",
"mX c black",
"MX c black",
"NX c black",
"BX c black",
"VX c black",
"CX c black",
"ZX c black",
"AX c black",
"SX c black",
"DX c black",
"FX c black",
"GX c black",
"HX c black",
"JX c black",
"KX c black",
"LX c black",
"PX c black",
"IX c black",
"UX c black",
/* pixels */
"                                                                                                                                                                ",
"                                                                                                                                                                ",
"                                                                                                                                                                ",
"                                                                                                                                                                ",
"                                                                                                                                                                ",
"                                                                                                                                                                ",
"                                                                                                                                                                ",
"                                                                                                                                                                ",
"                                                                                                                                                                ",
"                                                                                                                                                                ",
"                                                                                                                                                                ",
"                                                                                                                                                                ",
"                                                                                                                                                                ",
"                                                                  5.5.5.5.5.5.5.5.5.5.5.5.5.5.5.                                                                ",
"                                                            ~ -.5.5.5.5.5.5.5.5.5.5.5.5.5.5.5.5.5.5.5.5.                                                        ",
"                                                          J -.5.5.5.5.5.5.5.5.5.5.5.5.5.5.5.5.5.5.5.5.5.5.5.                                                    ",
"                                                      c J +.5.5.5.5.5.5.5.5.5.5.5.5.5.5.5.5.5.5.5.5.5.5.5.5.5.5.                                                ",
"                                                    c c ~ 5.5.5.5.5.5.5.5.5.5.5.5.5.5.5.5.5.5.5.5.5.5.5.5.5.5.5.5.                                              ",
"                                                    c J -.5.5.5.5.5.5.5.5.5.5.5.5.5.5.5.5.5.5.5.5.5.5.5.5.5.5.5.5.5.                                            ",
"                                                  c c ~ 5.5.5.5.5.5.5.5.5.5.5.5.5.5.5.5.5.5.5.5.5.5.5.5.5.5.5.5.5.5.5.                                          ",
"                                                  c F +.5.5.5.5.5.5.5.5.5.5.5.5.5.5.5.5.5.5.5.5.5.5.5.5.5.5.5.5.5.5.5.5.                                        ",
"                                                c c J -.5.5.5.5.5.5.5.5.5.5.5.5.5.5.5.5.5.5.5.5.5.5.5.5.5.5.5.5.5.5.5.5.5.                                      ",
"                                                c c ~ 5.5.5.5.5.5.5.5.5.5.5.5.9.r.r.5.5.5.5.5.5.5.5.5.5.5.5.5.5.5.5.5.5.5.                                      ",
"                                              c c c ..5.5.5.5.5.5.5.5.5.5.5.9.[ V C =.9.5.5.5.5.5.5.5.5.5.5.5.5.5.5.5.5.5.                                      ",
"                                              c c F +.5.5.5.5.5.5.5.5.5.5.5.m 5 % * 7 _ 9.5.5.5.5.5.5.5.5.5.5.5.9.r.9.5.5.5.                                    ",
"                                              c c J -.5.5.5.5.5.5.5.5.5.9._ 1 . . . . 8 -.5.5.5.5.5.5.5.5.5.5.5.[ C ` 5.5.5.                                    ",
"                                              c c J -.5.5.5.5.5.5.5.5.5.r.b $ # # # . > ` 9.5.5.5.5.5.5.5.5.5.m 4 * , h 5.5.                                    ",
"                                              F J ~ 5.5.5.5.5.5.5.5.5.5.r.b $ # # # . > ` 9.5.5.5.5.5.5.5.9._ 4 . . . : A 9.                                    ",
"                                              8.f.f.f.t.5.5.5.5.5.5.5.5.9.` 4 . . . . 0 -.5.5.5.5.5.5.5.5.r.b $ # # . # h r.                                    ",
"                                            x.c.c.c.c.x.y.5.5.5.5.5.5.5.5.5.N 6 * ; 8 ` 9.5.5.5.5.5.5.5.5.r.b $ . # # # h r.                                    ",
"                                          c.c.c.c.c.c.c.f.8.5.5.5.5.5.5.5.5.5.#.C A -.9.5.5.5.5.5.5.5.5.5.5.( : . . . > ( 9.                                    ",
"                                          c.c.c.c.c.c.c.x.r.5.5.5.5.5.5.5.5.5.5.r.r.5.5.5.5.5.5.5.5.5.5.5.5.5.h > % , b 5.5.                                    ",
"                                        c.c.c.c.c.c.c.c.x.r.5.5.5.5.5.5.5.5.5.5.5.5.5.5.5.5.5.5.5.5.5.5.5.5.5.5._ V _ 5.5.5.                                    ",
"                                        c.c.c.c.c.c.c.c.x.8.5.5.5.5.5.5.5.5.5.5.5.5.5.5.5.5.5.5.5.5.5.5.5.5.5.5.9.r.9.5.5.5.                                    ",
"                                      c.c.c.c.c.c.c.c.c.a.5.5.5.5.5.5.5.5.5.5.5.5.5.5.5.5.5.5.5.5.5.5.5.5.5.5.5.5.5.5.5.5.5.                                    ",
"                                      c.c.c.c.c.c.c.c.x.r.5.5.5.5.5.5.5.5.5.5.5.5.5.5.5.5.5.5.5.5.5.5.5.5.5.5.5.5.5.5.5.5.5.                                    ",
"                                    c.c.c.c.c.c.c.c.c.a.5.5.5.5.5.5.5.5.5.5.5.5.5.5.5.5.5.5.5.5.5.5.5.5.5.5.5.5.5.5.5.5.5.%.                                    ",
"                                    c.c.c.c.c.c.c.c.x.r.5.5.5.5.5.5.5.5.5.5.5.5.5.5.5.5.5.5.5.5.5.5.5.5.5.5.5.5.5.5.5.5.5.E                                     ",
"                                    c.c.c.c.c.c.c.c.f.5.5.5.5.5.5.5.5.5.5.5.5.5.5.5.5.5.5.5.5.5.5.5.5.5.5.5.5.5.5.5.5.5.-.S                                     ",
"                                    c.c.c.c.c.c.c.c.y.5.5.5.5.5.5.5.5.5.5.5.5.5.5.5.5.5.5.5.5.5.5.5.5.5.5.5.5.5.5.5.5.5.-.p                                     ",
"                                    c.c.c.c.c.c.c.c.f.5.5.5.5.5.5.5.5.5.5.5.5.5.5.5.5.5.5.5.5.5.5.5.5.5.5.5.5.5.5.5.5.5.%.t e                                   ",
"                                      c.c.c.c.c.c.c.x.r.5.5.5.5.5.5.5.5.5.5.5.5.5.5.5.5.5.5.5.5.5.5.5.5.5.5.5.5.5.5.5.5.} e e e                                 ",
"                                      c.c.c.c.c.c.c.c.y.5.5.5.5.5.5.5.5.5.5.5.5.5.5.5.5.5.5.5.5.5.5.5.5.5.5.5.5.5.5.5.5.S e e e e e                             ",
"                                      c.c.c.c.c.c.c.c.f.5.5.5.5.5.5.5.5.5.5.5.5.5.5.5.5.5.5.5.5.5.5.5.5.5.5.5.5.5.5.5.-.p e e e e e e                           ",
"                                      c.c.c.c.c.c.c.c.f.-.5.5.5.5.5.5.5.5.5.5.5.5.5.5.5.5.5.5.5.5.5.5.5.5.5.5.5.5.5.5.} e e e e e e e                           ",
"                                        c.c.c.c.c.c.c.y.Y -.5.5.5.5.5.5.5.5.5.5.5.5.5.5.5.5.5.5.5.5.5.5.5.5.5.5.5.5.-.k e e e e e e e e                         ",
"                                        c.c.c.c.c.c.c.-.c J %.5.5.5.5.5.5.5.5.5.5.5.5.5.5.5.5.5.5.5.5.5.5.5.5.5.5.5.} e e e e e e e e e                         ",
"                                          c.c.c.c.c.y.J c c J ~ -.5.5.5.5.5.5.5.5.5.5.5.5.5.5.5.5.5.5.5.5.5.5.5.5.5.k e e e e e e e e e                         ",
"                                            c.c.c.x.~ c c c c c J ~ +.-.5.5.5.5.5.5.5.5.5.5.5.5.5.5.5.5.5.5.5.5.5.      e e e e e e e                           ",
"                                                      Y J c c c c c F J ~ ..+.%.-.-.5.5.5.5.5.5.5.5.5.5.5.5.5.-.5.        e e e e e                             ",
"                                                      5.-.+.R J c c c c c c F F J J ~ ~ ..+.+.+.%.-.-.%.+.+...E                                                 ",
"                                                      5.5.5.-.-.+.~ R J F c c c c c c c c c c F F F F F J ~ +.c                                                 ",
"                                                    -.5.5.5.5.5.5.5.-.-.      c c c c c c c F J J J R ..-.-.~ u                                                 ",
"                                                    +.5.5.5.5.5.5.5.5.5.                      -.-.-.5.5.%.J u y                                                 ",
"                                                  y J -.5.5.5.5.5.5.5.                        +.-.5.-.~ d y y                                                   ",
"                                                  y u J +.5.5.5.5.5.5.                          F J c u y y                                                     ",
"                                                    y y a J +.5.5.%.                              y y y                                                         ",
"                                                      y y y d J J c                                                                                             ",
"                                                          y y y y                                                                                               ",
"                                                                                                                                                                ",
"                                                                                                                                                                ",
"                                                                                                                                                                ",
"                                                                                                                                                                ",
"                                                                                                                                                                ",
"                                                                                                                                                                ",
"                                                                                                                                                                ",
"                                                                                                                                                                ",
"                                                                                                                                                                ",
"                                                                                                                                                                ",
"                                                                                                                                                                ",
"                                                                                                                                                                ",
"                                                                                                                                                                ",
"                                                                                                                                                                ",
"                                                                                                                                                                ",
"                                                                                                                                                                ",
"                                                                                                                                                                ",
"                                                                                                                                                                ",
"                                                                                                                                                                ",
"                                                                                                                                                                ",
"                                                                                                                                                                "
};
