/* XPM */
static char *_629_7a5cd10c158f16fc7b7be1c3a0c323ef838914e16fe3c7664d1fe50f8878121e_8[] = {
/* columns rows colors chars-per-pixel */
"80 80 128 2 ",
"   c None",
".  c #8A1D1D",
"X  c #8B1D1D",
"o  c #8B1D1E",
"O  c #8B1E1E",
"+  c #8C1E1E",
"@  c #8D1E1E",
"#  c #8E1F1F",
"$  c #8F1F1F",
"%  c #902020",
"&  c #912120",
"*  c #912121",
"=  c #952322",
"-  c #962323",
";  c #982424",
":  c #9B2626",
">  c #A02928",
",  c #A52C2B",
"<  c #AC2F2E",
"1  c #AE302F",
"2  c #B03130",
"3  c #B53433",
"4  c #B63533",
"5  c #B73534",
"6  c #B83534",
"7  c #B93635",
"8  c #BD3837",
"9  c #BF3938",
"0  c #C13A39",
"q  c #C33B3A",
"w  c #C43C3A",
"e  c #C63D3B",
"r  c #E03636",
"t  c #E03737",
"y  c #E13838",
"u  c #E23939",
"i  c #E73B39",
"p  c #E33C3B",
"a  c #E73C3A",
"s  c #E43D3C",
"d  c #E43E3D",
"f  c #E83E3B",
"g  c #E83E3C",
"h  c #CB403E",
"j  c #CC403E",
"k  c #CD413F",
"l  c #E6413F",
"z  c #E9413E",
"x  c #EA413E",
"c  c #EA423F",
"v  c #D14341",
"b  c #D34442",
"n  c #D44442",
"m  c #D44543",
"M  c #D64644",
"N  c #DB4846",
"B  c #DC4947",
"V  c #DD4947",
"C  c #DE4A48",
"Z  c #E74442",
"A  c #E74443",
"S  c #E74543",
"D  c #EA4340",
"F  c #EA4441",
"G  c #EB4441",
"H  c #EA4442",
"J  c #EA4542",
"K  c #EB4542",
"L  c #EB4643",
"P  c #EB4644",
"I  c #EB4744",
"U  c #EC4744",
"Y  c #EB4845",
"T  c #E94846",
"R  c #EB4846",
"E  c #EC4845",
"W  c #EC4946",
"Q  c #EC4A47",
"!  c #ED4A47",
"~  c #E54D4B",
"^  c #E64E4C",
"/  c #E64F4C",
"(  c #EA4A48",
")  c #EC4B48",
"_  c #ED4B48",
"`  c #EB4C49",
"'  c #ED4C49",
"]  c #EC4D4A",
"[  c #ED4D4A",
"{  c #ED4E4B",
"}  c #ED4F4B",
"|  c #EE4E4B",
" . c #E84F4D",
".. c #ED4F4C",
"X. c #EE4F4C",
"o. c #E9504D",
"O. c #EA514E",
"+. c #EB514E",
"@. c #EE504D",
"#. c #EE514D",
"$. c #EC514E",
"%. c #EE514E",
"&. c #EF514E",
"*. c #EE514F",
"=. c #EC524F",
"-. c #ED524F",
";. c #EE524F",
":. c #EF524F",
">. c #EE5350",
",. c #EF5350",
"<. c #EF5451",
"1. c #F05350",
"2. c #F05451",
"3. c #F05652",
"4. c #F05653",
"5. c #F05855",
"6. c #F05955",
"7. c #F15956",
"8. c #F05A56",
"9. c #F15A56",
"0. c #F15B57",
"q. c #F15D59",
"w. c #F25F5B",
"e. c #F2615D",
"r. c #F3625E",
"t. c #F3635F",
"y. c #F36460",
"u. c black",
/* pixels */
"                                                                                                                                                                ",
"                                                                                                                                                                ",
"                                                                                                                                                                ",
"                                                                                                                                                                ",
"                                                                                                                                                                ",
"                                                                                                                                                                ",
"                                                                                                                                                                ",
"                                                                                                                                                                ",
"                                                                                                                                                                ",
"                                                                                                                                                                ",
"                                                                                                                                                                ",
"                                                                                                                                                                ",
"                                                                                                                                                                ",
"                                                                      ,.,.,.,.,.,.,.,.,.                                                                        ",
"                                                                ,.,.,.,.,.,.,.,.,.,.,.,.,.,.,.,.,.,.                                                            ",
"                                                          F { ,.,.,.,.,.,.,.,.,.,.,.,.,.,.,.,.,.,.,.,.,.,.                                                      ",
"                                                        D _ ,.,.,.,.,.,.,.,.,.,.,.,.,.,.,.,.,.,.,.,.,.,.,.,.,.                                                  ",
"                                                      c I @.,.,.,.,.,.,.,.,.,.,.,.,.,.,.,.,.,.,.,.,.,.,.,.,.,.,.                                                ",
"                                                    c D { ,.,.,.,.,.,.,.,.,.,.,.,.,.,.,.,.,.,.,.,.,.,.,.,.,.,.,.,.,.                                            ",
"                                                  c c E @.,.,.,.,.,.,.,.,.,.,.,.,.,.,.,.,.,.,.,.,.,.,.,.,.,.,.,.,.,.,.                                          ",
"                                                  c D { ,.,.,.,.,.,.,.,.,.,.,.,.,.,.,.,.,.,.,.,.,.,.,.,.,.,.,.,.,.,.,.                                          ",
"                                                c c F @.,.,.,.,.,.,.,.,.,.,.,.,.,.,.,.,.,.,.,.,.,.,.,.,.,.,.,.,.,.,.,.,.                                        ",
"                                                c c E @.,.,.,.,.,.,.,.,.,.,.,.,.,.,.,.,.,.,.,.,.,.,.,.,.,.,.,.,.,.,.,.,.,.                                      ",
"                                              c c c _ ,.,.,.,.,.,.,.,.,.,.,.,.4.,.1.1.,.,.,.,.,.,.,.,.,.,.,.,.,.,.,.,.,.,.                                      ",
"                                              c c D { ,.,.,.,.,.,.,.,.,.,.,.o.j 5 9 V ,.,.,.,.,.,.,.,.,.,.,.,.,.,.,.,.,.,.                                      ",
"                                              c c F @.,.,.,.,.,.,.,.,.,.,.o.3 # . . : M ,.,.,.,.,.,.,.,.,.,.,.,.4.4.4.,.,.,.                                    ",
"                                              c c F @.,.,.,.,.,.,.,.,.,.4.m % . # # . 1 @.,.,.,.,.,.,.,.,.,.,. .h 8 j o.,.,.                                    ",
"                                              c c I @.,.,.,.,.,.,.,.,.,.4.w # # # # . > / ,.,.,.,.,.,.,.,.,.o.3 # . # 7 @.,.                                    ",
"                                              { @.@.<.,.,.,.,.,.,.,.,.,.4.v % # # # . < @.,.,.,.,.,.,.,.,.1.m % . # . = V 4.                                    ",
"                                            t.t.y.t.w.4.,.,.,.,.,.,.,.,.1. .2 # . . ; b 1.,.,.,.,.,.,.,.,.1.w # # # # % b 4.                                    ",
"                                          y.y.y.y.y.y.w.<.,.,.,.,.,.,.,.,.,.~ q 2 3 M ,.,.,.,.,.,.,.,.,.,.1.j # # # . = N 4.                                    ",
"                                        y.y.y.y.y.y.y.y.5.,.,.,.,.,.,.,.,.,.,.,.@.,.4.,.,.,.,.,.,.,.,.,.,.,.~ , . . # 3 @.,.                                    ",
"                                      y.y.y.y.y.y.y.y.y.5.,.,.,.,.,.,.,.,.,.,.,.,.,.,.,.,.,.,.,.,.,.,.,.,.,.,.C 7 < q / ,.,.                                    ",
"                                    y.y.y.y.y.y.y.y.y.y.5.,.,.,.,.,.,.,.,.,.,.,.,.,.,.,.,.,.,.,.,.,.,.,.,.,.,.1.,.@.,.,.,.,.                                    ",
"                                  y.y.y.y.y.y.y.y.y.y.t.4.,.,.,.,.,.,.,.,.,.,.,.,.,.,.,.,.,.,.,.,.,.,.,.,.,.,.,.,.,.,.,.,.@.                                    ",
"                                  y.y.y.y.y.y.y.y.y.t.5.,.,.,.,.,.,.,.,.,.,.,.,.,.,.,.,.,.,.,.,.,.,.,.,.,.,.,.,.,.,.,.,.,.`                                     ",
"                                y.y.y.y.y.y.y.y.y.y.5.,.,.,.,.,.,.,.,.,.,.,.,.,.,.,.,.,.,.,.,.,.,.,.,.,.,.,.,.,.,.,.,.,.,.T t                                   ",
"                                y.y.y.y.y.y.y.y.y.w.<.,.,.,.,.,.,.,.,.,.,.,.,.,.,.,.,.,.,.,.,.,.,.,.,.,.,.,.,.,.,.,.,.,.,.A t                                   ",
"                                y.y.y.y.y.y.y.y.5.@.,.,.,.,.,.,.,.,.,.,.,.,.,.,.,.,.,.,.,.,.,.,.,.,.,.,.,.,.,.,.,.,.,.,.,.Z t                                   ",
"                                y.y.y.y.y.y.y.t.{ _ ,.,.,.,.,.,.,.,.,.,.,.,.,.,.,.,.,.,.,.,.,.,.,.,.,.,.,.,.,.,.,.,.,.,.@.s t t                                 ",
"                                y.y.y.y.y.y.y.t._ E ,.,.,.,.,.,.,.,.,.,.,.,.,.,.,.,.,.,.,.,.,.,.,.,.,.,.,.,.,.,.,.,.,.,...u t t t t t                           ",
"                                y.y.y.y.y.y.y.t.{ F @.,.,.,.,.,.,.,.,.,.,.,.,.,.,.,.,.,.,.,.,.,.,.,.,.,.,.,.,.,.,.,.,.,.( t t t t t t t t t                     ",
"                                y.y.y.y.y.y.y.t.{ c { <.,.,.,.,.,.,.,.,.,.,.,.,.,.,.,.,.,.,.,.,.,.,.,.,.,.,.,.,.,.,.,.,.A t t t t t t t t t                     ",
"                                y.y.y.y.y.y.y.y...c F @.,.,.,.,.,.,.,.,.,.,.,.,.,.,.,.,.,.,.,.,.,.,.,.,.,.,.,.,.,.,.,.@.s t t t t t t t t t t                   ",
"                                y.y.y.y.y.y.y.y.{ c c E ,.,.,.,.,.,.,.,.,.,.,.,.,.,.,.,.,.,.,.,.,.,.,.,.,.,.,.,.,.,.,.` u t t t t t t t t t t                   ",
"                                y.y.y.y.y.y.y.t.E c c D { ,.,.,.,.,.,.,.,.,.,.,.,.,.,.,.,.,.,.,.,.,.,.,.,.,.,.,.,.,.,.Z t t t t t t t t t t t                   ",
"                                  y.y.y.y.y.y.w.D c c c F { ,.,.,.,.,.,.,.,.,.,.,.,.,.,.,.,.,.,.,.,.,.,.,.,.,.,.,.,.@.p t t t t t t t t t t                     ",
"                                    y.y.y.y.y.    c c c c D E @.,.,.,.,.,.,.,.,.,.,.,.,.,.,.,.,.,.,.,.,.,.,.,.,.,.,.        t t t t t t t t                     ",
"                                                    D c c c c F { @.,.,.,.,.,.,.,.,.,.,.,.,.,.,.,.,.,.,.,.,.,.,.,.@.                                            ",
"                                                  _ { F c c c c c F E { @.@.,.,.<.,.,.,.,.,.,.,.,.,.,.,.,.,.,.,.,.,.F                                           ",
"                                                g { ,.@.E F c c c c c c F F U E { { @.@.@.@.,.,.,.,.,.,.,.@.@.@.,.,.F i                                         ",
"                                              i g ..,.,.,.@.{ E F D c c c c c c c D F F F I E E E E E E E E _ @.,.{ g i                                         ",
"                                              i i T ,.,.,.,.,.,.@...{ E c c c c c c c c c c c c c c D F E { ,.,.@.c i i                                         ",
"                                                i f { ,.,.,.,.,.,.,.,.              c c c c c c c c _ @.,.,.,.@.F i i                                           ",
"                                                i i c @.,.,.,.,.,.                                    <.@.@.@.I i i                                             ",
"                                                  i i F @.,.,.,.                                          F c a i                                               ",
"                                                    i a D T {                                               i i                                                 ",
"                                                      i i                                                                                                       ",
"                                                                                                                                                                ",
"                                                                                                                                                                ",
"                                                                                                                                                                ",
"                                                                                                                                                                ",
"                                                                                                                                                                ",
"                                                                                                                                                                ",
"                                                                                                                                                                ",
"                                                                                                                                                                ",
"                                                                                                                                                                ",
"                                                                                                                                                                ",
"                                                                                                                                                                ",
"                                                                                                                                                                ",
"                                                                                                                                                                ",
"                                                                                                                                                                ",
"                                                                                                                                                                ",
"                                                                                                                                                                ",
"                                                                                                                                                                ",
"                                                                                                                                                                ",
"                                                                                                                                                                ",
"                                                                                                                                                                ",
"                                                                                                                                                                ",
"                                                                                                                                                                "
};
