/* XPM */
static char *_9967_d17113f30037de19f6b384f9263e17255b77c8b7cd0d401d243766e58f009552[] = {
/* columns rows colors chars-per-pixel */
"20 40 52 1 ",
"  c #9D3A13",
". c #9F3B14",
"X c #9F3C14",
"o c #A13D15",
"O c #A23E16",
"+ c #A33F16",
"@ c #A54316",
"# c #AC4B17",
"$ c #A74318",
"% c #A84418",
"& c #A84518",
"* c #AC5319",
"= c #B35517",
"- c #8E671B",
"; c #BE6519",
": c #B25020",
"> c #BC5A26",
", c #C7662C",
"< c #D37535",
"1 c #DA7F3B",
"2 c #DF8820",
"3 c #DF9220",
"4 c #C6A02B",
"5 c #DDB731",
"6 c #E5AE2B",
"7 c #FBC41B",
"8 c #FBC61D",
"9 c #FBC81E",
"0 c #FBC91F",
"q c #F2C225",
"w c #FCCD23",
"e c #FCCE24",
"r c #F1C12D",
"t c #FCD227",
"y c #FCD328",
"u c #FEDC2D",
"i c #F6CA37",
"p c #FAD139",
"a c #FFD93B",
"s c #FEE02F",
"d c #FDE134",
"f c #FDE336",
"g c #FDE437",
"h c #FDE538",
"j c #FEE83A",
"k c #FEEB3D",
"l c #FFEC3E",
"z c #FEED43",
"x c #FFF149",
"c c #FFF44D",
"v c #FFF651",
"b c None",
/* pixels */
"bbbbbbbbbbbbbbbbbbbb",
"bbbbbbbbbbbbbbbbbbbb",
"bbbbbbbbbbbbbbbbbbbb",
"bbbbbbbbbbbbbbbbbbbb",
"bbbbbbbbbbbbbbbbbbbb",
"bbbbbbbbbbbbbbbbbbbb",
"bbbbbbbbbbbbbbbbbbbb",
"bbbbbbbbbbbbbbbbbbbb",
"bbbbbbbbbbbbbbbbbbbb",
"bbbbbbbbbbbbbbbbbbbb",
"bbbbbbbbbbbbbbbbbbbb",
"bbbbbbbbbbbbbbbbbbbb",
"bbbbbbbbbbbbbbbbbbbb",
"bbbbbbbbbbbbbbbbbbbb",
"bbbbbbbbbbbbbbbbbbbb",
"bbbbbbbbbbbbbbbbbbbb",
"bbbbbbbbbbbbbbbbbbbb",
"bbbbbbbbbbbbbbbbbbbb",
"bbbbbbbbbbbbbbbbbbbb",
"bbbbbbbbbbbbbbbbbbbb",
"zc1111111111111111cv",
"sl<<<<<<<<<<<<<<<<lc",
"sl,,,,,,,,,,,,,,,,lc",
"sl,,,,,,,,,,,,,,,,lc",
"sl>>>>>>>>>>>>>>>>lc",
"uj::::::::::::::::jx",
"0y.OOOOOOOOOOOOOO.yh",
"9to%%%%%%%%%%%%%%otg",
"9to$$$$$&##&$$$$$otg",
"9t3222226rr6222223tg",
"8wwwwwwwa55awwwwwwwf",
"ejjjjjjja--ajjjjjjjk",
"9ttttttta44atttttttg",
"9tqqqqqqippiqqqqqqtg",
"9t +++++@**@+++++ tg",
"9tX%%%%%%%%%%%%%%Xtg",
"9tX%%%%%%%%%%%%%%Xtg",
"9t;==============;tg",
"9ttttttttttttttttttg",
"7999999999999999999d"
};
