/* XPM */
static char *_1164_90cd021fe0bec0decb4a4ec1f5de24f080329e41c6ff5b7c388bd40d8cc9c329[] = {
/* columns rows colors chars-per-pixel */
"40 40 232 2 ",
"   c #FF9A0A",
".  c #FF9A0B",
"X  c #FF9B0B",
"o  c #FF9C0B",
"O  c #FF9D0B",
"+  c #FF9E0B",
"@  c #FF9F0B",
"#  c #FF9C0C",
"$  c #FF9D0D",
"%  c #FF9E0D",
"&  c #FF9E0E",
"*  c #FE9F0E",
"=  c #FF9F0E",
"-  c #FF9D11",
";  c #FF9E10",
":  c #FF9F12",
">  c #FF9F14",
",  c #FFA00B",
"<  c #FFA30B",
"1  c #FFA40B",
"2  c #FFA10C",
"3  c #FFA20C",
"4  c #FFA30C",
"5  c #FFA00F",
"6  c #FFA50C",
"7  c #FFA60C",
"8  c #FFA80C",
"9  c #FFA90C",
"0  c #FFAA0C",
"q  c #FFAB0C",
"w  c #FFAA0D",
"e  c #FFAC0C",
"r  c #FFAC0D",
"t  c #FFAD0D",
"y  c #FFAE0D",
"u  c #FEA613",
"i  c #FFA615",
"p  c #FFA715",
"a  c #FCAF17",
"s  c #FFAA18",
"d  c #FEAD18",
"f  c #FFAD1A",
"g  c #FFAD1B",
"h  c #FEB21D",
"j  c #FEB31D",
"k  c #FEB31E",
"l  c #FCB51C",
"z  c #FCB61C",
"x  c #FCB71D",
"c  c #FEB41F",
"v  c #FEB51F",
"b  c #FCB81E",
"n  c #FFB521",
"m  c #FFB723",
"M  c #FCBA20",
"N  c #FEB822",
"B  c #FEBC25",
"V  c #FCBF24",
"C  c #FEBD27",
"Z  c #FFB82A",
"A  c #FFB92A",
"S  c #FFBD28",
"D  c #FFBE30",
"F  c #FCC227",
"G  c #FFC02A",
"H  c #FFC12A",
"J  c #FDC42B",
"K  c #FCC62B",
"L  c #FCC62C",
"P  c #FCC72D",
"I  c #FDC82D",
"U  c #FDCA2F",
"Y  c #FDCB30",
"T  c #FDCB31",
"R  c #FDCB32",
"E  c #FDCC31",
"W  c #FDCD31",
"Q  c #FDCC32",
"!  c #FDCD32",
"~  c #FDCC33",
"^  c #FDCE32",
"/  c #FDCC34",
"(  c #FDCC35",
")  c #FECD34",
"_  c #FDCF34",
"`  c #FDCC36",
"'  c #FDCD37",
"]  c #FFCD36",
"[  c #FFCF37",
"{  c #FDCD39",
"}  c #FDCE3C",
"|  c #FDCF3E",
" . c #FDD035",
".. c #FDD136",
"X. c #FDD236",
"o. c #FDD237",
"O. c #FDD337",
"+. c #FDD63A",
"@. c #FDD73C",
"#. c #FFD63D",
"$. c #FFD73D",
"%. c #FFD73E",
"&. c #FED93D",
"*. c #FDDB3F",
"=. c #FEDA3E",
"-. c #FEDA3F",
";. c #FEDB3F",
":. c #FEDC3F",
">. c #FFBA58",
",. c #FDCF41",
"<. c #FDD046",
"1. c #FDD146",
"2. c #FDD147",
"3. c #FEDC40",
"4. c #FEDD41",
"5. c #FEDF42",
"6. c #FDD24D",
"7. c #FDD34F",
"8. c #FFDD50",
"9. c #FEE043",
"0. c #FEE044",
"q. c #FEE144",
"w. c #FEE145",
"e. c #FEE246",
"r. c #FFE247",
"t. c #FEE448",
"y. c #FFE54A",
"u. c #FFE64A",
"i. c #FEE74A",
"p. c #FFE74B",
"a. c #FFE74C",
"s. c #FFE74D",
"d. c #FEE54E",
"f. c #FFE74E",
"g. c #FEE84C",
"h. c #FFE84C",
"j. c #FFE94D",
"k. c #FEEA4D",
"l. c #FFEA4D",
"z. c #FFE84E",
"x. c #FFEB4E",
"c. c #FFEB4F",
"v. c #FFEC4F",
"b. c #FEE851",
"n. c #FEEA50",
"m. c #FFEB50",
"M. c #FFEC50",
"N. c #FFED50",
"B. c #FFED51",
"V. c #FFEE51",
"C. c #FFED53",
"Z. c #FFEE52",
"A. c #FFEF52",
"S. c #FFEE53",
"D. c #FFEF53",
"F. c #FFEB56",
"G. c #FFEB57",
"H. c #FFEE56",
"J. c #FFEC59",
"K. c #FFED5C",
"L. c #FFF053",
"P. c #FFF057",
"I. c #FFF058",
"U. c #FFF059",
"Y. c #FFF15A",
"T. c #FFF15D",
"R. c #FFF35D",
"E. c #FFF45E",
"W. c #FFF55F",
"Q. c #FED762",
"!. c #FED864",
"~. c #FED967",
"^. c #FED968",
"/. c #FED969",
"(. c #FDDA6C",
"). c #FEDA6C",
"_. c #FFC776",
"`. c #FDDB70",
"'. c #FDDB71",
"]. c #FDDC71",
"[. c #FFE960",
"{. c #FFEF61",
"}. c #FFF063",
"|. c #FFF560",
" X c #FFF562",
".X c #FFF767",
"XX c #FFF869",
"oX c #FFF96A",
"OX c #FFFA6C",
"+X c #FFFA6D",
"@X c #FFEB75",
"#X c #FFEB76",
"$X c #FFEC76",
"%X c #FFEB7B",
"&X c #FFEC7F",
"*X c #FFF270",
"=X c #FFF07E",
"-X c #FFF37E",
";X c #FEE082",
":X c #FEE083",
">X c #FFED8A",
",X c #FFF282",
"<X c #FFF482",
"1X c #FFF484",
"2X c #FFF485",
"3X c #FFF589",
"4X c #FFF496",
"5X c #FFF697",
"6X c #FFF698",
"7X c #FFE1B6",
"8X c #FFE1B7",
"9X c #FFF0B6",
"0X c #FEF0C4",
"qX c #FFF9C4",
"wX c #FEF1C9",
"eX c #FEF2CC",
"rX c #FEF4D3",
"tX c #FFF5D8",
"yX c #FFF6DB",
"uX c #FFF4DD",
"iX c #FEF7DF",
"pX c #FFF2E0",
"aX c #FFF3E2",
"sX c #FFF5E6",
"dX c #FFF5E7",
"fX c #FFFCE0",
"gX c #FFF9E8",
"hX c #FFFBEF",
"jX c #FFFEFD",
"kX c #FFFFFE",
"lX c white",
"zX c None",
/* pixels */
"zXzXzXzXzXzXzX  . X X X X X X X X X X X X X X X X X X X X X X .   zXzXzXzXzXzXzX",
"zXzXzXzXzXX o >.8XaXsXsXsXuX[.a.a.a.a.a.a.G.}.}.}.}.}.}.}.}.{.8.A o X zXzXzXzXzX",
"zXzXzX  - _.pXlXlXlXlXlXfX*XL.L.L.L.L.L.E.OX+X+X+X+X+X+X+X+X+X+X Xy.G $   zXzXzX",
"zXzX  > 7XlXlXlXlXlXlXhX7.Y Y Y Y Y Y &.v.v.v.v.v.v.v.v.v.N.S.b.k.A.L.#.&   zXzX",
"zXzX- 7XjXlXlXlXlXlXyX6.Y Y Y Y Y Y &.x.v.v.v.v.v.v.v.v.v.v.5.E W +.M.A.#.$ zXzX",
"zXX _.lXlXlXlXlXlXtX2.Y Y Y Y Y Y &.v.v.v.v.v.v.v.v.v.v.v.5.Y Y Y Y O.M.L.G X zX",
"zXo pXlXlXlXlXlXgX1.Y Y Y Y Y Y =.x.v.v.v.v.v.v.v.v.v.v.9.E Y Y Y Y Y +.A.y.o zX",
"  >.lXlXlXlXlXwX<.! ;.i.V.L.L.W.OX+X+X+X+X+X+X+X+X+X+XR.q.X.Y Y Y Y Y W k.L.n   ",
". 8XlXlXlXkXiX| _ l.L.B.j.a.F.}.}.}.}.}.}.}.}.}.}.}.K.c.L.A.&.Y Y Y Y Y -.L.%.. ",
"X aXlXlXlXeX,...c.L.#.f = X X X X X X X X X X X X X # i G v.Z.&.Y Y Y Y  .L.u.X ",
"# dXlXkX0X{ Y t.A.[ o , 8 r y y y y y y y y y y y t q 1 o m v.A.X.Y Y Y E Y.%XX ",
"X sXlXrX} Y ..D.p.5 4 y r < O O O O O O O O O O O @ 0 y w o G L.0.Y Y Y T 3X>XX ",
"X sXqX{ Y Y w.L.S + t w O u h j j v B C C C C C C c # 6 y 1 i c.k.Y Y { '.6X>XX ",
"X 9XP.Y Y Y c.L.% 6 t o d Y Y Y Y Y E @.5.9.9.9.9.9.) $ 0 q # h.D.Y ( ].:X6X>XX ",
"X f.L.Y Y Y v.L.X 8 9 X J Y Y Y Y Y Y Y _ *.9.9.9.9.9.c @ t X a.L.( `.:X:X6X>XX ",
"X a.L.Y Y Y v.W.X 8 8 X Y Y Y Y Y Y Y Y Y Y +.9.9.9.9.C O y X a.Y.].:X:X:X6X>XX ",
"X a.L.Y Y Y T.+XX 8 8 X Y Y Y Y Y Y Y Y Y Y Y ..5.9.9.C O y X a.3X:X:X:X:X6X>XX ",
"X a.L.Y Y ;.XX+XX 8 8 X Y Y Y Y Y Y Y Y Y Y Y Y O.5.9.C O y X &X6X:X:X:X:X6X>XX ",
"X a.L.Y :.v.oX+XX 8 8 X Y Y Y Y Y Y Y Y Y Y Y Y Y o.9.C O y X >X6X:X:X:X:X6X>XX ",
"X a.L.:.x.v.oX+XX 8 8 X Y Y Y Y Y Y Y Y Y Y Y Y Y Y +.C O y X >X6X:X:X:X:X6X>XX ",
"X a.W.v.v.v.oX+XX 8 8 X F Y Y Y Y Y Y Y Y Y Y Y Y Y Y N O y X >X6X:X:X:X:X6X&XX ",
"X J.+Xv.v.v.oX+XX 8 8 X x K Y Y Y Y Y Y Y Y Y Y Y Y Y k O y X >X6X:X:X:X:X1Xz.X ",
"X }.+Xv.v.v.oX+XX 8 8 X z x L Y Y Y Y Y Y Y Y Y Y Y Y j O y X >X6X:X:X:X/.I.a.X ",
"X }.+Xv.v.v.oX+XX 8 8 X z z x P Y Y Y Y Y Y Y Y Y Y Y j O y X >X6X:X:X).Q L.a.X ",
"X }.+Xv.v.v.oX+XX 8 8 X z z z b K Y Y Y Y Y Y Y Y Y Y j O y X >X6X:X~.` Y L.a.X ",
"X }.+Xv.v.v.oX+XX 8 8 X l z z z z F U Y Y Y Y Y Y Y Y h O y X >X6X).` Y Y L.a.X ",
"X }.+Xv.v.v.oX+XX 7 0 o a z z z z z M I Y Y Y Y Y Y Y u < r X >X<XQ Y Y Y L.a.X ",
"X }.+Xv.v.v..X|.p < t 2 * a l z z z z x V L Y Y Y J d O r 8 : $XH.Y Y Y Y L.a.X ",
"X }.+Xv.v.v.n.L.] o e y 2 o X X X X X X X X X X X X o w y , g B.i.Y Y Y Y L.a.X ",
"X }.+XN.v.3.^ N.v.s + e t 0 8 8 8 8 8 8 8 8 8 8 8 9 t t 3 o $.L.;.Y Y Y E L.a.X ",
"X {.+XS.3.Y Y 4.L.r.s o < 7 8 8 8 8 8 8 8 8 8 8 8 8 6 + 5 [ L.l.! Y Y Y  .L.u.X ",
". 8.+Xd.E Y Y E e.L.v.] p X X X X X X X X X X X X X ; D p.A.c._ Y Y Y Y -.L.%.. ",
"  Z |.k.W Y Y Y E 4.N.L.L.L.L.U.2X6X6X6X6X6X6X6X6X5X-XP.D.t...Y Y Y Y W k.L.n   ",
"zXo y.A.+.Y Y Y Y Y ! 3.g.v.C.,X4X4X4X4X4X4X4X4X4X=Xm.w...Y Y Y Y Y Y +.A.y.o zX",
"zXX H L.M.O.Y Y Y Y Y Y Y ~ (.:X:X:X:X:X:X:X:X:XQ./ Y Y Y Y Y Y Y Y O.M.L.G X zX",
"zXzX$ #.A.M.+.W Y Y Y Y ' (.:X:X:X:X:X:X:X:X;X^./ Y Y Y Y Y Y Y W +.M.A.#.$ zXzX",
"zXzX  & #.L.A.k.-. .E Y (.:X:X:X:X:X:X:X:X:X!.R Y Y Y Y Y !  .-.k.A.L.#.&   zXzX",
"zXzXzX  $ G y.L.L.L.U.2X6X6X6X6X6X6X6X6X5X-XP.L.L.L.L.L.L.L.L.L.L.y.G $   zXzXzX",
"zXzXzXzXzXX o n %.u.#X>X>X>X>X>X>X>X>X>X@Xs.a.a.a.a.a.a.a.a.u.%.n o X zXzXzXzXzX",
"zXzXzXzXzXzXzX  . X X X X X X X X X X X X X X X X X X X X X X .   zXzXzXzXzXzXzX"
};
