/* XPM */
static char *result[] = {
/* columns rows colors chars-per-pixel */
"80 80 116 2 ",
"   c #7F6434",
".  c #7A7639",
"X  c #787A39",
"o  c #8A5C36",
"O  c #8A5D36",
"+  c #8B5D37",
"@  c #885F36",
"#  c #8D5F39",
"$  c #866237",
"%  c #836837",
"&  c #816A37",
"*  c #8E613A",
"=  c #8F623B",
"-  c #806C38",
";  c #90633C",
":  c #91643D",
">  c #91653D",
",  c #92653E",
"<  c #94663C",
"1  c #95663D",
"2  c #946740",
"3  c #946840",
"4  c #986B41",
"5  c #986C44",
"6  c #996D45",
"7  c #996E45",
"8  c #9A6E46",
"9  c #9C6F46",
"0  c #9D7147",
"q  c #9C7148",
"w  c #9D7148",
"e  c #9E724A",
"r  c #9E734A",
"t  c #9F744B",
"y  c #A0734A",
"u  c #A0744B",
"i  c #A0754C",
"p  c #A1764D",
"a  c #A2774E",
"s  c #A3784F",
"d  c #A4784F",
"f  c #A47950",
"g  c #A47A50",
"h  c #A57A50",
"j  c #A57A51",
"k  c #A57B51",
"l  c #A67B50",
"z  c #A67C51",
"x  c #A67C52",
"c  c #A87C51",
"v  c #A87D53",
"b  c #1EA71E",
"n  c #28B328",
"m  c #2BB62B",
"M  c #30BC30",
"N  c #32BF32",
"B  c #6B8E3B",
"V  c #6B8F3B",
"C  c #72823A",
"Z  c #72833A",
"A  c #70853A",
"S  c #6A903B",
"D  c #69913C",
"F  c #45AE34",
"G  c #5CA63E",
"H  c #5CA73E",
"J  c #5BA83E",
"K  c #58AF3E",
"L  c #56B13F",
"P  c #51B83F",
"I  c #32C032",
"U  c #33C033",
"Y  c #34C134",
"T  c #35C235",
"R  c #36C336",
"E  c #36C436",
"W  c #37C537",
"Q  c #38C538",
"!  c #39C739",
"~  c #3AC83A",
"^  c #3BCA3B",
"/  c #3CCB3C",
"(  c #3DCC3D",
")  c #3ECD3E",
"_  c #3FCE3F",
"`  c #4FBD40",
"'  c #51B940",
"]  c #50BB40",
"[  c #4DC040",
"{  c #4AC541",
"}  c #49C741",
"|  c #47CA41",
" . c #40CF40",
".. c #45CD42",
"X. c #44CE42",
"o. c #44CF42",
"O. c #5AC649",
"+. c #40D040",
"@. c #41D041",
"#. c #41D141",
"$. c #42D142",
"%. c #42D242",
"&. c #48ED48",
"*. c #55F155",
"=. c #5BF35B",
"-. c #62F562",
";. c #9A8951",
":. c #AB8056",
">. c #B3885C",
",. c #B2885D",
"<. c #B58A5E",
"1. c #B88D60",
"2. c #BC9163",
"3. c #BD9264",
"4. c #B19B64",
"5. c #BE9568",
/* pixels */
"-.-.-.-.-.-.-.-.-.-.-.-.-.-.-.-.-.-.-.-.-.-.-.-.-.-.-.-.-.-.-.-.-.-.-.-.-.-.-.-.-.-.-.-.-.-.-.-.-.-.-.-.-.-.-.-.-.-.-.-.-.-.-.-.-.-.-.-.-.-.-.-.-.-.-.-.-.-.-.-.",
"-.-.-.-.-.-.-.-.-.-.-.-.-.-.-.-.-.-.-.-.-.-.-.-.-.-.-.-.-.-.-.-.-.-.-.-.-.-.-.-.-.-.-.-.-.-.-.-.-.-.-.-.-.-.-.-.-.-.-.-.-.-.-.-.-.-.-.-.-.-.-.-.-.-.-.-.-.-.-.-.",
"-.-.=.*.*.*.*.*.*.*.*.*.*.*.*.*.*.*.*.*.*.*.*.*.*.*.*.*.*.*.*.*.*.*.*.*.*.*.*.*.*.*.*.*.*.*.*.*.*.*.*.*.*.*.*.*.*.*.*.*.*.*.*.*.*.*.*.*.*.*.*.*.*.*.*.*.*.=.-.-.",
"-.-.*.&.&.&.&.&.&.&.&.&.&.&.&.&.&.&.&.&.&.&.&.&.&.&.&.&.&.&.&.&.&.&.&.&.&.&.&.&.&.&.&.&.&.&.&.&.&.&.&.&.&.&.&.&.&.&.&.&.&.&.&.&.&.&.&.&.&.&.&.&.&.&.&.&.&.*.-.-.",
"-.-.*.&.&.&.&.&.&.&.&.&.&.&.&.&.&.&.&.&.&.&.&.&.&.&.&.&.&.&.&.&.&.&.&.&.&.&.&.&.&.&.&.&.&.&.&.&.&.&.&.&.&.&.&.&.&.&.&.&.&.&.&.&.&.&.&.&.&.&.&.&.&.&.&.&.&.*.-.-.",
"-.-.*.&.&.&.&.&.&.&.&.&.&.&.&.&.&.&.&.&.&.&.&.&.&.&.&.&.&.&.&.&.&.&.&.&.&.&.&.&.&.&.&.&.&.&.&.&.&.&.&.&.&.&.&.&.&.&.&.&.&.&.&.&.&.&.&.&.&.&.&.&.&.&.&.&.&.*.-.-.",
"-.-.*.&.&.&.&.&.&.&.&.&.&.&.&.&.&.&.&.&.&.&.&.&.&.&.&.&.&.&.&.&.&.&.&.&.&.&.&.&.&.&.&.&.&.&.&.&.&.&.&.&.&.&.&.&.&.&.&.&.&.&.&.&.&.&.&.&.&.&.&.&.&.&.&.&.&.*.-.-.",
"-.-.*.&.&.&.&.&.&.&.&.&.&.&.&.&.&.&.&.&.&.&.&.&.&.&.&.&.&.&.&.&.&.&.&.&.&.&.&.&.&.&.&.&.&.&.&.&.&.&.&.&.&.&.&.&.&.&.&.&.&.&.&.&.&.&.&.&.&.&.&.&.&.&.&.&.&.*.-.-.",
"-.-.*.&.&.&.&.&.&.&.&.&.&.&.&.&.&.&.&.&.&.&.&.&.&.&.&.&.&.&.&.&.&.&.&.&.&.&.&.&.&.&.&.&.&.&.&.&.&.&.&.&.&.&.&.&.&.&.&.&.&.&.&.&.&.&.&.&.&.&.&.&.&.&.&.&.&.*.-.-.",
"-.-.*.&.&.&.&.&.&.&.&.&.&.&.&.&.&.&.&.&.&.&.&.&.&.&.&.&.&.&.&.&.&.&.&.&.&.&.&.&.&.&.&.&.&.&.&.&.&.&.&.&.&.&.&.&.&.&.&.&.&.&.&.&.&.&.&.&.&.&.&.&.&.&.&.&.&.*.-.-.",
"-.-.*.&.&.&.&.&.&.&.&.&.&.&.&.&.&.&.&.&.&.&.&.&.&.&.&.&.&.&.&.&.&.&.&.&.&.&.&.&.&.&.&.&.&.&.&.&.&.&.&.&.&.&.&.&.&.&.&.&.&.&.&.&.&.&.&.&.&.&.&.&.&.&.&.&.&.*.-.-.",
"-.-.*.&.&.&.&.&.&.&.&.&.&.&.&.&.&.&.&.&.&.&.&.&.&.&.&.&.&.&.&.&.&.&.&.&.&.&.&.&.&.&.&.&.&.&.&.&.&.&.&.&.&.&.&.&.&.&.&.&.&.&.&.&.&.&.&.&.&.&.&.&.&.&.&.&.&.*.-.-.",
"-.-.*.&.&.&.&.&.&.&.&.&.&.&.&.&.&.&.&.&.&.&.&.&.&.&.&.&.&.&.&.&.&.&.&.&.&.&.&.&.&.&.&.&.&.&.&.&.&.&.&.&.&.&.&.&.&.&.&.&.&.&.&.&.&.&.&.&.&.&.&.&.&.&.&.&.&.*.-.-.",
"-.-.*.&.&.&.&.&.&.&.&.&.&.&.&.&.&.&.&.&.&.&.&.&.&.&.&.&.&.&.&.&.&.&.&.&.&.&.&.&.&.&.&.&.&.&.&.&.&.&.&.&.&.&.&.&.&.&.&.&.&.&.&.&.&.&.&.&.&.&.&.&.&.&.&.&.&.*.-.-.",
"-.-.*.&.&.&.&.&.&.&.&.&.&.&.&.&.&.&.&.&.&.&.&.&.&.&.&.&.&.&.&.&.&.&.&.&.&.&.&.&.&.&.&.&.&.&.&.&.&.&.&.&.&.&.&.&.&.&.&.&.&.&.&.&.&.&.&.&.&.&.&.&.&.&.&.&.&.*.-.-.",
"-.-.*.&.&.&.&.&.&.&.&.&.&.&.&.&.&.&.&.&.&.&.&.&.&.&.&.&.&.&.&.&.&.&.&.&.&.&.&.&.&.&.&.&.&.&.&.&.&.&.&.&.&.&.&.&.&.&.&.&.&.&.&.&.&.&.&.&.&.&.&.&.&.&.&.&.&.*.-.-.",
"-.-.*.&.&.&.&.&.&.&.&.&.&.&.&.&.&.&.&.&.&.&.&.&.&.&.&.&.&.&.&.&.&.&.&.&.&.&.&.&.&.&.&.&.&.&.&.&.&.&.&.&.&.&.&.&.&.&.&.&.&.&.&.&.&.&.&.&.&.&.&.&.&.&.&.&.&.*.-.-.",
"-.-.=.*.*.*.*.*.*.*.*.*.*.*.*.*.*.*.*.*.*.*.*.*.*.*.*.*.*.*.*.*.*.*.*.*.*.*.*.*.*.*.*.*.*.*.*.*.*.*.*.*.*.*.*.*.*.*.*.*.*.*.*.*.*.*.*.*.*.*.*.*.*.*.*.*.*.=.-.-.",
"-.-.-.-.-.-.-.-.-.-.-.-.-.-.-.-.-.-.-.-.-.-.-.-.-.-.-.-.-.-.-.-.-.-.-.-.-.-.-.-.-.-.-.-.-.-.-.-.-.-.-.-.-.-.-.-.-.-.-.-.-.-.-.-.-.-.-.-.-.-.-.-.-.-.-.-.-.-.-.-.",
"-.-.-.-.-.-.-.-.-.-.-.-.-.-.-.-.-.-.-.-.-.-.-.-.-.-.-.-.-.-.-.-.-.-.-.-.-.-.-.-.-.-.-.-.-.-.-.-.-.-.-.-.-.-.-.-.-.-.-.-.-.-.-.-.-.-.-.-.-.-.-.-.-.-.-.-.-.-.-.-.",
"%.%.%.%.%.%.%.%.%.%.%.%.%.%.%.%.%.%.%.%.%.%.%.%.%.%.%.%.%.%.%.%.%.%.%.%.%.%.%.%.%.%.%.%.%.%.%.%.%.%.%.%.%.%.%.%.%.%.%.%.%.%.%.%.%.%.%.%.%.%.%.%.%.%.%.%.%.%.%.%.",
"%.%.%.%.%.%.%.%.%.%.%.%.%.%.%.%.%.%.%.%.%.%.%.%.%.%.%.%.%.%.%.%.%.%.%.%.%.%.%.%.%.%.%.%.%.%.%.%.%.%.%.%.%.%.%.%.%.%.%.%.%.%.%.%.%.%.%.%.%.%.%.%.%.%.%.%.%.%.%.%.",
"M M T ~ ~ ~ ~ ~ ~ ~ ~ ~ ~ ~ ~ ~ ~ ~ ~ ~ ~ ~ ~ ~ ~ ~ ~ ~ ~ ~ ~ ~ ~ ~ ~ ~ ~ ~ ~ ~ ~ ~ ~ ~ ~ ~ ~ ~ ~ ~ ~ ~ ~ ~ ~ ~ ~ ~ ~ ~ ~ ~ ~ ~ ~ ~ ~ ~ ~ ~ ~ ~ ~ ~ ~ ~ ~ ) %.%.",
"b b n N N N N N N N N N N N N N N N N N N N N N N N N N N N N N N N N N N N N N N N N N N N N N N N N N N N N N N N N N N N N N N N N N N N N N N N N N N ~ %.%.",
"b b n N N N N N N N N N N N N N N N N N N N N N N N N N N N N N N N N N N N N N N N N N N N N N N N N N N N N N N N N N N N N N N N N N N N N N N N N N N ~ %.%.",
"b b n N N N N N N N N N N N N N N N N N N N N N N N N N N N N N N N N N N N N N N N N N N N N N N N N N N N N N N N N N N N N N N N N N N N N N N N N N N ~ %.%.",
"b b n N N N N N N N N N N N N N N N N N N N N N N N N N N N N N N N N N N N N N N N N N N N N N N N N N N N N N N N N N N N N N N N N N N N N N N N N N N ~ %.%.",
"b b n N N N N N N N N N N N N N N N N N N N N N N N N N N N N N N N N N N N N N N N N N N N N N N N N N N N N N N N N N N N N N N N N N N N N N N N N N N ~ %.%.",
"b b n N N N N N N N N N N N N N N N N N N N N N N N N N N N N N N N N N N N N N N N N N N N N N N N N N N N N N N N N N N N N N N N N N N N N N N N N N N ~ %.%.",
"b b n N N N N N N N N N N N N N N N N N N N N N N N N N N N N N N N N N N N N N N N N N N N N N N N N N N N N N N N N N N N N N N N N N N N N N N N N N N ~ %.%.",
"b b n N N N N N N N N N N N N N N N N N N N N N N N N N N N N N N N N N N N N N N N N N N N N N N N N N N N N N N N N N N N N N N N N N N N N N N N N N N ~ %.%.",
"b b n N N N N N N N N N N N N N N N N N N N N N N N N N N N N N N N N N N N N N N N N N N N N N N N N N N N N N N N N N N N N N N N N N N N N N N N N N N ~ %.%.",
"b b n N N N N N N N N N N N N N N N N N N N N N N N N N N N N N N N N N N N N N N N N N N N N N N N N N N N N N N N N N N N N N N N N N N N N N N N N N N ~ %.%.",
"b b n N N N N N N N N N N N N N N N N N N N N N N N N N N N N N N N N N N N N N N N N N N N N N N N N N N N N N N N N N N N N N N N N N N N N N N N N N N ~ %.%.",
"b b n N N N N N N N N N N N N N N N N N N N N N N N N N N N N N N N N N N N N N N N N N N N N N N N N N N N N N N N N N N N N N N N N N N N N N N N N N N ~ %.%.",
"b b n N N N N N N N N N N N N N N N N N N N N N N N N N N N N N N N N N N N N N N N N N N N N N N N N N N N N N N N N N N N N N N N N N N N N N N N N N N ~ %.%.",
"b b n N N N N N N N N N N N N N N N N N N N N N N N N N N N N N N N N N N N N N N N N N N N N N N N N N N N N N N N N N N N N N N N N N N N N N N N N N N ~ %.%.",
"b b n N N N N N N N N N N N N N N N N N N N N N N N N N N N N N N N N N N N N N N N N N N N N N N N N N N N N N N N N N N N N N N N N N N N N N N N N N N ~ %.%.",
"b b n N N N N N N N N N N N N N N N N N N N N N N N N N N N N N N N N N N N N N N N N N N N N N N N N N N N N N N N N N N N N N N N N N N N N N N N N N N ~ %.%.",
"b b n N N N N N N N N N N N N N N N N N N N N N N N N N N N N N N N N N N N N N N N N N N N N N N N N N N N N N N N N N N N N N N N N N N N N N N N N N N ~ %.%.",
"b b n N N N N N N N N N N N N N N N N N N N N N N N N N N N N N N N N N N N N N N N N N N N N N N N N N N N N N N N N N N N N N N N N N N N N N N N N N N ~ %.%.",
"b b n N N N N N N N N N N N N N N N N N N N N N N N N N N N N N N N N N N N N N N N N N N N N N N N N N N N N N N N N N N N N N N N N N N N N N N N N N N ~ %.%.",
"b b n N N N N N N N N N N N N N N N N N N N N N N N N N N N N N N N N N N N N N N N N N N N N N N N N N N N N N N N N N N N N N N N N N N N N N N N N N N ~ %.%.",
"b b n N N N N N N N N N N N N N N I / %.%.%.%.#.R N N N N N N N N N N N N N N N N U _ %.%.%.%.W N N N N N N N N N N N N R #.%.%.%.! N N N N N N N N N N N ~ %.%.",
"b b m N N N N N N N N N N N N N N / %.%.%.%.%.%.@.E N N N N N N N N N N N N N N Y _ %.%.%.%.%.#.Q N N N N N N N N N N E @.%.%.%.%.#.! N N N N N N N N N N ( %.%.",
"b b M / U N N N N N N N N N N U / %.[ K K K K L ..@.R N N N N N N N N N N N N Y _ %.P K K K K | $.W N N N N N N N N R @...L K K K } %.! N N N N N N N U / %.%.%.",
"    F %./ N N N N N N N N N N / %.] $ o o o o O S %.#.R N N N N N N N N N N U _ %.J @ o o o o Z %.$.Q N N N N N N R #.%.S O o o o . ..%.! N N N N N N / %.O.4.4.",
"o o - ] %./ I N N N N N N I / %.] - o o o o o o o V o.+.R N N N N N N N N Y _ %.G @ o o o o o o Z | #.W N N N N R +.o.V o o o o o o X { %.^ ~ ~ ~ ~ ( %.] ;.5.5.",
"o o o $ ` %./ Y Y Y Y Y Y / %.` $ + 6 x x x x j = o D o.#.R N N N N N N U _ $.H o + t x x x x > o A X.%.%.%.%.%.%.o.D o = j x x x 2 o X ..%.%.%.%.%.%.` $ d 5.5.",
"o o * o & ' %.%.%.%.%.%.%.%.' & o 8 x x x x x x s ; o V %.@.( ( ( ( ( (  .%.H $ # i x x x x x f , o C X.%.%.%.%.%.V o ; s x x x x j 2 o . } %.%.%.%.' & o v 5.5.",
"o o 5 7 + & ` %.%.%.%.%.%.` & + 7 x x x x x x x x s = o S ..%.%.%.%.%.%.%.G o # r x x x x x x x k , o A K K K K B o = s x x x x x x x 3 o o o o o o o + 7 ,.5.5.",
"o o 5 x 7 o $ % % % % % % $ o 7 x x x x x x x x x x j = O S %.%.%.%.%.%.J @ + i x x x x x x x x x k , o o o o o o = j x x x x x x x x k 2 o o o o o o 7 x ,.5.5.",
"o o 5 x x 8 + o o o o o o + 8 x x x x x x x x x x x x a = o o o o o o o o # t x x x x x x x x x x x f > o o o o = a x x x x x x x x x x k 8 5 5 5 5 q x x ,.5.5.",
"o o 5 x x x 6 # # # # # # 6 x x x x x x x x x x x x x x j = o o o o o o + t x x x x x x x x x x x x x x x x x x x x x x x x x x x x x x x x x x x x x x x ,.5.5.",
"o o 5 x x x x x x x x x x x x x x x x x x x x x x x x x x s e e e e e e p x x x x x x x x x x x x x x x x x x x x x x x x x x x x x x x x x x x x x x x x ,.5.5.",
"o o 5 x x x x x x x x x x x x x x x x x x x x x x x x x x x x x x x x x x x x x x x x x x x x x x x x x x x x x x x x x x x x x x x x x x x x x x x x x x ,.5.5.",
"o o 5 x x x x x x x x x x x x x x x x x x x x x x x x x x x x x x x x x x x x x x x x x x x x x x x x x x x x x x x x x x x x x x x x x x x x x x x x x x ,.5.5.",
"o o 5 x x x x x x x x x x x x x x x x x x x x x x x x x x x x x x x x x x x x x x x x x x x x x x x x x x x x x x x x x x x x x x x x x x x x x x x x x x ,.5.5.",
"o o 5 x x x x x x x x x x x x x x x x x x x x x x x x x x x x x x x x x x x x x x x x x x x x x x x x x x x x x x x x x x x x x x x x x x x x x x x x x x ,.5.5.",
"o o 5 x x x x x x x x x x x x x x x x x x x x x x x x x x x x x x x x x x x x x x x x x x x x 4 4 4 4 4 4 4 4 4 4 4 x x x x x x x x x x x x x x x x x x x ,.5.5.",
"o o 5 x x x x x x x x x x x x x x x x x x x x x x x x x x x x x x x x x x x x x x x x x x x x >.x x x x x x x x x 9 x x x x x x x x x x x x x x x x x x x ,.5.5.",
"o o 5 x x x x x x x x x x x x x x x x x x x x x x x x x x x x x x x x x x x x x x x x x x x x >.x x x x x x x x x 9 x x x x x x x x x x x x x x x x x x x ,.5.5.",
"o o 5 x x x x x x x x x x x x x x x x x x x x x x x x x x x x x x x x x x x x x x x x x x x x >.x x x x x x x x x 9 x x x x x x x x x x x x x x x x x x x ,.5.5.",
"o o 5 x x x x x x x x x x x x x x x x x x x x x x x x x x x x x x x x x x x x x x x x x x x x >.x x x x x x x x x 9 x x x x x x x x x x x x x x x x x x x ,.5.5.",
"o o 5 x x x x x x x x x x x x x x x x x x x x x x x x x x x x x x x x x x x x x x x x x x x x >.x x x x x x x x x 9 x x x x x x x x x x x x x x x x x x x ,.5.5.",
"o o 5 x x x x x x x x x x x x x x x x x x x x x x x x x x x x x x x x x x x x x x x x x x x x 1.1.1.1.1.1.1.1.1.1.c x x x x x x x x x x x x x x x x x x x ,.5.5.",
"o o 5 x x x x x x x x x x x x x x x x x x x x x x x x x x x x x x x x x x x x x x x x x x x x x x x x x x x x x x x x x x x x x x x x x x x x x x x x x x ,.5.5.",
"o o 5 x x x x x x x x x x x x x x x x x x x x x x x x x x x x x x x x x x x x x x x x x x x x x x x x x x x x x x x x x x x x x x x x x x x x x x x x x x ,.5.5.",
"o o 5 x x x x x x x x x x x x x x x g f h x x x x x x x x x x x x x x x x x x x x x x x x x x x x x x x x x x x x x x x x x x x x x x x x x x x x x x x x ,.5.5.",
"o o 5 x x x x x x x x x x x x x x l y u w g x x x x x x x x x x x x x x x x x x x x x x x x x x x x x x x x x x x x x x x x x x x x x x x x x x x x x x x ,.5.5.",
"o o 5 x x x x x x x x x x x x x x >.x x x 1 x x x x x x x x x x x x x x x x x x x x x x x x x x x x x x x x x x x x x x x x x x x x x x x x x x x x x x x ,.5.5.",
"o o 5 x x x x x x x x x x x x x x >.x x x < x x x x x x x x x x x x x x x x x x x x x x x x x x x x x x x x x x x x x x x x x x x x x x x x x x x x x x x ,.5.5.",
"o o 5 x x x x x x x x x x x x x x >.x x z 0 x x x x x x x x x x x x x x x x x x x x x x x x x x x x x x x x x x x x x x x x x x x x x x x x x x x x x x x ,.5.5.",
"o o 5 x x x x x x x x x x x x x x x 2.3.<.x x x x x x x x x x x x x x x x x x x x x x x x x x x x x x x x x x x x x x x x x x x x x x x x x x x x x x x x ,.5.5.",
"o o 5 x x x x x x x x x x x x x x x x x x x x x x x x x x x x x x x x x x x x x x x x x x x x x x x x x x x x x x x x x x x x x x x x x x x x x x x x x x ,.5.5.",
"o o 5 x x x x x x x x x x x x x x x x x x x x x x x x x x x x x x x x x x x x x x x x x x x x x x x x x x x x x x x x x x x x x x x x x x x x x x x x x x ,.5.5.",
"o o 5 x x x x x x x x x x x x x x x x x x x x x x x x x x x x x x x x x x x x x x x x x x x x x x x x x x x x x x x x x x x x x x x x x x x x x x x x x x ,.5.5.",
"o o : 5 5 5 5 5 5 5 5 5 5 5 5 5 5 5 5 5 5 5 5 5 5 5 5 5 5 5 5 5 5 5 5 5 5 5 5 5 5 5 5 5 5 5 5 5 5 5 5 5 5 5 5 5 5 5 5 5 5 5 5 5 5 5 5 5 5 5 5 5 5 5 5 5 5 :.5.5.",
"o o o o o o o o o o o o o o o o o o o o o o o o o o o o o o o o o o o o o o o o o o o o o o o o o o o o o o o o o o o o o o o o o o o o o o o o o o o o o d 5.5.",
"o o o o o o o o o o o o o o o o o o o o o o o o o o o o o o o o o o o o o o o o o o o o o o o o o o o o o o o o o o o o o o o o o o o o o o o o o o o o o d 5.5."
};
